SplineFontDB: 3.0
FontName: URWChanceryL-MediItal
FullName: URW Chancery L Medium Italic
FamilyName: URW Chancery L
Weight: Medium
Copyright: URW Software, Copyright 1996 by URW
Version: 001.005
ItalicAngle: -14
UnderlinePosition: -70
UnderlineWidth: 50
Ascent: 800
Descent: 200
InvalidEm: 0
sfntRevision: 0x00010148
LayerCount: 2
Layer: 0 1 "Back" 1
Layer: 1 1 "Fore" 0
XUID: [1021 591 -286901576 16694094]
FSType: 0
OS2Version: 2
OS2_WeightWidthSlopeOnly: 0
OS2_UseTypoMetrics: 1
CreationTime: 1108395286
ModificationTime: 1108395286
PfmFamily: 17
TTFWeight: 500
TTFWidth: 5
LineGap: 69
VLineGap: 0
Panose: 2 0 6 3 6 0 0 2 0 3
OS2TypoAscent: 677
OS2TypoAOffset: 0
OS2TypoDescent: -248
OS2TypoDOffset: 0
OS2TypoLinegap: 69
OS2WinAscent: 821
OS2WinAOffset: 0
OS2WinDescent: 266
OS2WinDOffset: 0
HheadAscent: 677
HheadAOffset: 0
HheadDescent: -248
HheadDOffset: 0
OS2SubXSize: 700
OS2SubYSize: 650
OS2SubXOff: 0
OS2SubYOff: 140
OS2SupXSize: 700
OS2SupYSize: 650
OS2SupXOff: 0
OS2SupYOff: 477
OS2StrikeYSize: 50
OS2StrikeYPos: 250
OS2CapHeight: 0
OS2XHeight: 0
OS2Vendor: 'pyrs'
OS2CodePages: 00000001.00000000
OS2UnicodeRanges: 00000001.00000000.00000000.00000000
Lookup: 258 0 0 "'kern' Horizontal Kerning in Latin lookup 0" { "'kern' Horizontal Kerning in Latin lookup 0 subtable"  } ['kern' ('DFLT' <'dflt' > 'latn' <'dflt' > ) ]
DEI: 91125
TtTable: prep
PUSHW_1
 0
CALL
SVTCA[y-axis]
PUSHW_3
 1
 5
 2
CALL
SVTCA[x-axis]
PUSHW_3
 6
 1
 2
CALL
SVTCA[x-axis]
PUSHW_7
 6
 71
 63
 51
 37
 25
 8
CALL
SVTCA[y-axis]
PUSHW_7
 1
 115
 94
 68
 49
 32
 8
CALL
PUSHW_7
 2
 104
 80
 68
 49
 25
 8
CALL
PUSHW_7
 3
 99
 80
 68
 49
 25
 8
CALL
PUSHW_7
 4
 88
 80
 51
 37
 25
 8
CALL
PUSHW_7
 5
 81
 63
 51
 37
 25
 8
CALL
SVTCA[y-axis]
PUSHW_3
 7
 3
 7
CALL
PUSHW_1
 0
DUP
RCVT
RDTG
ROUND[Black]
RTG
WCVTP
EndTTInstrs
TtTable: fpgm
PUSHW_1
 0
FDEF
MPPEM
PUSHW_1
 9
LT
IF
PUSHB_2
 1
 1
INSTCTRL
EIF
PUSHW_1
 511
SCANCTRL
PUSHW_1
 68
SCVTCI
PUSHW_2
 9
 3
SDS
SDB
ENDF
PUSHW_1
 1
FDEF
DUP
DUP
RCVT
ROUND[Black]

StartChar: Atilde
Encoding: 195 195 4
Width: 620
Flags: W
LayerCount: 2
Back
Fore
SplineSet
61 79 m 1,0,1
 75 74 75 74 83.5 73 c 128,-1,2
 92 72 92 72 105 72 c 0,3,4
 140 72 140 72 166.5 84.5 c 128,-1,5
 193 97 193 97 225 129 c 0,6,7
 235 138 235 138 251 156 c 128,-1,8
 267 174 267 174 285 195.5 c 128,-1,9
 303 217 303 217 321.5 239.5 c 128,-1,10
 340 262 340 262 355 281 c 2,11,-1
 528 505 l 1,12,13
 507 507 507 507 497 507 c 128,-1,14
 487 507 487 507 473 509 c 2,15,-1
 421 515 l 2,16,17
 411 516 411 516 401.5 516.5 c 128,-1,18
 392 517 392 517 384 517 c 0,19,20
 329 517 329 517 298.5 493 c 128,-1,21
 268 469 268 469 268 426 c 0,22,23
 268 409 268 409 272.5 389.5 c 128,-1,24
 277 370 277 370 289 333 c 1,25,-1
 215 293 l 1,26,27
 207 315 207 315 204 329.5 c 128,-1,28
 201 344 201 344 201 361 c 0,29,30
 201 402 201 402 219 437 c 128,-1,31
 237 472 237 472 277 510 c 0,32,33
 347 579 347 579 417 579 c 0,34,35
 433 579 433 579 454 576.5 c 128,-1,36
 475 574 475 574 509 569 c 0,37,38
 524 567 524 567 532.5 565.5 c 128,-1,39
 541 564 541 564 547 563 c 128,-1,40
 553 562 553 562 557 562 c 128,-1,41
 561 562 561 562 566 562 c 0,42,43
 574 562 574 562 579 563 c 128,-1,44
 584 564 584 564 589.5 567 c 128,-1,45
 595 570 595 570 601.5 576.5 c 128,-1,46
 608 583 608 583 619 594 c 1,47,-1
 633 584 l 1,48,49
 625 544 625 544 617 496 c 128,-1,50
 609 448 609 448 601 397.5 c 128,-1,51
 593 347 593 347 586 297 c 128,-1,52
 579 247 579 247 573.5 204.5 c 128,-1,53
 568 162 568 162 565 129.5 c 128,-1,54
 562 97 562 97 562 81 c 0,55,56
 562 55 562 55 572.5 45.5 c 128,-1,57
 583 36 583 36 611 36 c 0,58,59
 624 36 624 36 633 36.5 c 128,-1,60
 642 37 642 37 664 39 c 2,61,-1
 687 41 l 1,62,-1
 671 17 l 1,63,64
 660 15 660 15 651.5 13.5 c 128,-1,65
 643 12 643 12 629 9.5 c 128,-1,66
 615 7 615 7 591.5 2.5 c 128,-1,67
 568 -2 568 -2 527 -9 c 0,68,69
 511 -13 511 -13 498 -13 c 0,70,71
 488 -13 488 -13 481.5 -7 c 128,-1,72
 475 -1 475 -1 475 9 c 0,73,74
 475 17 475 17 476.5 27.5 c 128,-1,75
 478 38 478 38 480 52 c 0,76,77
 483 75 483 75 486 93 c 0,78,79
 488 107 488 107 490 120 c 128,-1,80
 492 133 492 133 494 146 c 2,81,-1
 499 182 l 1,82,83
 470 184 470 184 426 185 c 128,-1,84
 382 186 382 186 322 186 c 1,85,86
 272 129 272 129 237 93 c 128,-1,87
 202 57 202 57 175 36.5 c 128,-1,88
 148 16 148 16 124.5 8 c 128,-1,89
 101 0 101 0 76 0 c 0,90,91
 62 0 62 0 51 2 c 128,-1,92
 40 4 40 4 23 9 c 1,93,-1
 61 79 l 1,0,1
505 227 m 1,94,-1
 546 480 l 1,95,-1
 353 227 l 1,96,-1
 505 227 l 1,94,-1
423 673 m 1,97,98
 459 723 459 723 481.5 741.5 c 128,-1,99
 504 760 504 760 528 760 c 0,100,101
 535 760 535 760 541.5 759 c 128,-1,102
 548 758 548 758 555.5 755.5 c 128,-1,103
 563 753 563 753 572.5 748 c 128,-1,104
 582 743 582 743 596 735 c 0,105,106
 613 726 613 726 628 720.5 c 128,-1,107
 643 715 643 715 654 715 c 0,108,109
 688 715 688 715 729 752 c 0,110,111
 732 756 732 756 735.5 759 c 128,-1,112
 739 762 739 762 743 765 c 1,113,-1
 753 748 l 1,114,115
 733 723 733 723 718.5 707 c 128,-1,116
 704 691 704 691 692.5 681.5 c 128,-1,117
 681 672 681 672 670.5 668.5 c 128,-1,118
 660 665 660 665 649 665 c 0,119,120
 640 665 640 665 632.5 666 c 128,-1,121
 625 667 625 667 616 670.5 c 128,-1,122
 607 674 607 674 594.5 680.5 c 128,-1,123
 582 687 582 687 563 698 c 0,124,125
 533 715 533 715 513 715 c 0,126,127
 504 715 504 715 496 712.5 c 128,-1,128
 488 710 488 710 479 703.5 c 128,-1,129
 470 697 470 697 460 685 c 128,-1,130
 450 673 450 673 436 655 c 1,131,-1
 423 673 l 1,97,98
EndSplineSet
EndChar

StartChar: Aring
Encoding: 197 197 5
Width: 620
Flags: W
LayerCount: 2
Back
Fore
SplineSet
61 79 m 1,0,1
 75 74 75 74 83.5 73 c 128,-1,2
 92 72 92 72 105 72 c 0,3,4
 140 72 140 72 166.5 84.5 c 128,-1,5
 193 97 193 97 225 129 c 0,6,7
 235 138 235 138 251 156 c 128,-1,8
 267 174 267 174 285 195.5 c 128,-1,9
 303 217 303 217 321.5 239.5 c 128,-1,10
 340 262 340 262 355 281 c 2,11,-1
 528 505 l 1,12,13
 507 507 507 507 497 507 c 128,-1,14
 487 507 487 507 473 509 c 2,15,-1
 421 515 l 2,16,17
 411 516 411 516 401.5 516.5 c 128,-1,18
 392 517 392 517 384 517 c 0,19,20
 329 517 329 517 298.5 493 c 128,-1,21
 268 469 268 469 268 426 c 0,22,23
 268 409 268 409 272.5 389.5 c 128,-1,24
 277 370 277 370 289 333 c 1,25,-1
 215 293 l 1,26,27
 207 315 207 315 204 329.5 c 128,-1,28
 201 344 201 344 201 361 c 0,29,30
 201 402 201 402 219 437 c 128,-1,31
 237 472 237 472 277 510 c 0,32,33
 347 579 347 579 417 579 c 0,34,35
 433 579 433 579 454 576.5 c 128,-1,36
 475 574 475 574 509 569 c 0,37,38
 524 567 524 567 532.5 565.5 c 128,-1,39
 541 564 541 564 547 563 c 128,-1,40
 553 562 553 562 557 562 c 128,-1,41
 561 562 561 562 566 562 c 0,42,43
 574 562 574 562 579 563 c 128,-1,44
 584 564 584 564 589.5 567 c 128,-1,45
 595 570 595 570 601.5 576.5 c 128,-1,46
 608 583 608 583 619 594 c 1,47,-1
 633 584 l 1,48,49
 625 544 625 544 617 496 c 128,-1,50
 609 448 609 448 601 397.5 c 128,-1,51
 593 347 593 347 586 297 c 128,-1,52
 579 247 579 247 573.5 204.5 c 128,-1,53
 568 162 568 162 565 129.5 c 128,-1,54
 562 97 562 97 562 81 c 0,55,56
 562 55 562 55 572.5 45.5 c 128,-1,57
 583 36 583 36 611 36 c 0,58,59
 624 36 624 36 633 36.5 c 128,-1,60
 642 37 642 37 664 39 c 2,61,-1
 687 41 l 1,62,-1
 671 17 l 1,63,64
 660 15 660 15 651.5 13.5 c 128,-1,65
 643 12 643 12 629 9.5 c 128,-1,66
 615 7 615 7 591.5 2.5 c 128,-1,67
 568 -2 568 -2 527 -9 c 0,68,69
 511 -13 511 -13 498 -13 c 0,70,71
 488 -13 488 -13 481.5 -7 c 128,-1,72
 475 -1 475 -1 475 9 c 0,73,74
 475 17 475 17 476.5 27.5 c 128,-1,75
 478 38 478 38 480 52 c 0,76,77
 483 75 483 75 486 93 c 0,78,79
 488 107 488 107 490 120 c 128,-1,80
 492 133 492 133 494 146 c 2,81,-1
 499 182 l 1,82,83
 470 184 470 184 426 185 c 128,-1,84
 382 186 382 186 322 186 c 1,85,86
 272 129 272 129 237 93 c 128,-1,87
 202 57 202 57 175 36.5 c 128,-1,88
 148 16 148 16 124.5 8 c 128,-1,89
 101 0 101 0 76 0 c 0,90,91
 62 0 62 0 51 2 c 128,-1,92
 40 4 40 4 23 9 c 1,93,-1
 61 79 l 1,0,1
505 227 m 1,94,-1
 546 480 l 1,95,-1
 353 227 l 1,96,-1
 505 227 l 1,94,-1
610 802 m 0,97,98
 642 802 642 802 660 785.5 c 128,-1,99
 678 769 678 769 678 740 c 0,100,101
 678 716 678 716 668.5 695 c 128,-1,102
 659 674 659 674 643.5 658 c 128,-1,103
 628 642 628 642 607 632.5 c 128,-1,104
 586 623 586 623 563 623 c 0,105,106
 531 623 531 623 514 639.5 c 128,-1,107
 497 656 497 656 497 686 c 0,108,109
 497 737 497 737 529 769.5 c 128,-1,110
 561 802 561 802 610 802 c 0,97,98
595 780 m 0,111,112
 571 780 571 780 555.5 756 c 128,-1,113
 540 732 540 732 540 697 c 0,114,115
 540 674 540 674 549.5 659.5 c 128,-1,116
 559 645 559 645 574 645 c 0,117,118
 597 645 597 645 614 669.5 c 128,-1,119
 631 694 631 694 631 729 c 0,120,121
 631 780 631 780 595 780 c 0,111,112
EndSplineSet
EndChar

StartChar: Edieresis
Encoding: 203 203 6
Width: 620
Flags: W
LayerCount: 2
Back
Fore
SplineSet
541 307 m 1,0,1
 534 302 534 302 529.5 298.5 c 128,-1,2
 525 295 525 295 521.5 292 c 128,-1,3
 518 289 518 289 513.5 286 c 128,-1,4
 509 283 509 283 503 278 c 1,5,-1
 476 276 l 1,6,-1
 433 274 l 2,7,8
 424 273 424 273 417.5 272.5 c 128,-1,9
 411 272 411 272 403 271.5 c 128,-1,10
 395 271 395 271 383 270.5 c 128,-1,11
 371 270 371 270 352 269 c 1,12,13
 343 235 343 235 336.5 211 c 128,-1,14
 330 187 330 187 323 169 c 128,-1,15
 316 151 316 151 308 137 c 128,-1,16
 300 123 300 123 288 109 c 128,-1,17
 276 95 276 95 259 79 c 128,-1,18
 242 63 242 63 218 41 c 1,19,-1
 478 41 l 2,20,21
 514 41 514 41 536 42.5 c 128,-1,22
 558 44 558 44 569 48.5 c 128,-1,23
 580 53 580 53 583.5 61.5 c 128,-1,24
 587 70 587 70 587 84 c 0,25,26
 587 92 587 92 586 99 c 128,-1,27
 585 106 585 106 583 122 c 1,28,-1
 659 150 l 1,29,30
 663 137 663 137 663 127 c 0,31,32
 663 110 663 110 649 90 c 128,-1,33
 635 70 635 70 600 38 c 0,34,35
 583 23 583 23 571 14 c 128,-1,36
 559 5 559 5 547.5 0 c 128,-1,37
 536 -5 536 -5 522.5 -6.5 c 128,-1,38
 509 -8 509 -8 490 -8 c 0,39,40
 472 -8 472 -8 461 -8 c 128,-1,41
 450 -8 450 -8 434 -7.5 c 128,-1,42
 418 -7 418 -7 393.5 -6.5 c 128,-1,43
 369 -6 369 -6 324 -4 c 2,44,-1
 244 -2 l 1,45,-1
 154 -1 l 1,46,-1
 98 0 l 1,47,-1
 136 33 l 1,48,49
 167 40 167 40 186 49.5 c 128,-1,50
 205 59 205 59 218 78.5 c 128,-1,51
 231 98 231 98 242 132 c 128,-1,52
 253 166 253 166 267 224 c 0,53,54
 270 234 270 234 273 243.5 c 128,-1,55
 276 253 276 253 278 264 c 1,56,-1
 250 264 l 1,57,58
 263 279 263 279 269.5 286.5 c 128,-1,59
 276 294 276 294 289 307 c 1,60,-1
 345 532 l 1,61,62
 243 529 243 529 198 502.5 c 128,-1,63
 153 476 153 476 153 418 c 0,64,65
 153 398 153 398 156 379 c 128,-1,66
 159 360 159 360 166 335 c 1,67,-1
 94 287 l 1,68,69
 83 313 83 313 79.5 330.5 c 128,-1,70
 76 348 76 348 76 368 c 0,71,72
 76 419 76 419 110 463 c 128,-1,73
 144 507 144 507 204 535 c 0,74,75
 237 550 237 550 274 557 c 128,-1,76
 311 564 311 564 362 565 c 1,77,-1
 432 586 l 1,78,-1
 426 565 l 1,79,-1
 640 569 l 1,80,81
 664 561 664 561 668 530 c 1,82,-1
 602 464 l 1,83,84
 596 479 596 479 592 488.5 c 128,-1,85
 588 498 588 498 585.5 503.5 c 128,-1,86
 583 509 583 509 581 512 c 128,-1,87
 579 515 579 515 576 519 c 0,88,89
 561 537 561 537 530 537 c 0,90,91
 525 537 525 537 502.5 536.5 c 128,-1,92
 480 536 480 536 450 534 c 2,93,-1
 419 534 l 1,94,-1
 362 307 l 1,95,-1
 541 307 l 1,0,1
564 762 m 2,96,97
 567 765 567 765 570.5 767.5 c 128,-1,98
 574 770 574 770 578 773 c 1,99,100
 582 763 582 763 584.5 757.5 c 128,-1,101
 587 752 587 752 588 749 c 128,-1,102
 589 746 589 746 590 744 c 128,-1,103
 591 742 591 742 592 739 c 0,104,105
 595 733 595 733 599 726 c 128,-1,106
 603 719 603 719 612 705 c 1,107,108
 607 701 607 701 603 697.5 c 128,-1,109
 599 694 599 694 594 691 c 0,110,111
 588 686 588 686 584 683 c 128,-1,112
 580 680 580 680 575.5 676 c 128,-1,113
 571 672 571 672 564.5 666 c 128,-1,114
 558 660 558 660 547 650 c 1,115,116
 530 673 530 673 522.5 688 c 128,-1,117
 515 703 515 703 509 720 c 1,118,119
 519 727 519 727 523.5 730 c 128,-1,120
 528 733 528 733 535 738 c 2,121,-1
 564 762 l 2,96,97
445 773 m 1,122,123
 453 754 453 754 455 749.5 c 128,-1,124
 457 745 457 745 460 739 c 256,125,126
 463 733 463 733 467 726 c 128,-1,127
 471 719 471 719 479 705 c 1,128,129
 462 691 462 691 457.5 688 c 128,-1,130
 453 685 453 685 447 680 c 256,131,132
 441 675 441 675 434.5 669 c 128,-1,133
 428 663 428 663 414 650 c 1,134,135
 397 675 397 675 389.5 689 c 128,-1,136
 382 703 382 703 376 720 c 1,137,138
 386 727 386 727 392 731 c 128,-1,139
 398 735 398 735 403.5 739.5 c 128,-1,140
 409 744 409 744 415 749 c 128,-1,141
 421 754 421 754 431 762 c 2,142,-1
 445 773 l 1,122,123
EndSplineSet
EndChar

StartChar: Eacute
Encoding: 201 201 7
Width: 620
Flags: W
LayerCount: 2
Back
Fore
SplineSet
541 307 m 1,0,1
 534 302 534 302 529.5 298.5 c 128,-1,2
 525 295 525 295 521.5 292 c 128,-1,3
 518 289 518 289 513.5 286 c 128,-1,4
 509 283 509 283 503 278 c 1,5,-1
 476 276 l 1,6,-1
 433 274 l 2,7,8
 424 273 424 273 417.5 272.5 c 128,-1,9
 411 272 411 272 403 271.5 c 128,-1,10
 395 271 395 271 383 270.5 c 128,-1,11
 371 270 371 270 352 269 c 1,12,13
 343 235 343 235 336.5 211 c 128,-1,14
 330 187 330 187 323 169 c 128,-1,15
 316 151 316 151 308 137 c 128,-1,16
 300 123 300 123 288 109 c 128,-1,17
 276 95 276 95 259 79 c 128,-1,18
 242 63 242 63 218 41 c 1,19,-1
 478 41 l 2,20,21
 514 41 514 41 536 42.5 c 128,-1,22
 558 44 558 44 569 48.5 c 128,-1,23
 580 53 580 53 583.5 61.5 c 128,-1,24
 587 70 587 70 587 84 c 0,25,26
 587 92 587 92 586 99 c 128,-1,27
 585 106 585 106 583 122 c 1,28,-1
 659 150 l 1,29,30
 663 137 663 137 663 127 c 0,31,32
 663 110 663 110 649 90 c 128,-1,33
 635 70 635 70 600 38 c 0,34,35
 583 23 583 23 571 14 c 128,-1,36
 559 5 559 5 547.5 0 c 128,-1,37
 536 -5 536 -5 522.5 -6.5 c 128,-1,38
 509 -8 509 -8 490 -8 c 0,39,40
 472 -8 472 -8 461 -8 c 128,-1,41
 450 -8 450 -8 434 -7.5 c 128,-1,42
 418 -7 418 -7 393.5 -6.5 c 128,-1,43
 369 -6 369 -6 324 -4 c 2,44,-1
 244 -2 l 1,45,-1
 154 -1 l 1,46,-1
 98 0 l 1,47,-1
 136 33 l 1,48,49
 167 40 167 40 186 49.5 c 128,-1,50
 205 59 205 59 218 78.5 c 128,-1,51
 231 98 231 98 242 132 c 128,-1,52
 253 166 253 166 267 224 c 0,53,54
 270 234 270 234 273 243.5 c 128,-1,55
 276 253 276 253 278 264 c 1,56,-1
 250 264 l 1,57,58
 263 279 263 279 269.5 286.5 c 128,-1,59
 276 294 276 294 289 307 c 1,60,-1
 345 532 l 1,61,62
 243 529 243 529 198 502.5 c 128,-1,63
 153 476 153 476 153 418 c 0,64,65
 153 398 153 398 156 379 c 128,-1,66
 159 360 159 360 166 335 c 1,67,-1
 94 287 l 1,68,69
 83 313 83 313 79.5 330.5 c 128,-1,70
 76 348 76 348 76 368 c 0,71,72
 76 419 76 419 110 463 c 128,-1,73
 144 507 144 507 204 535 c 0,74,75
 237 550 237 550 274 557 c 128,-1,76
 311 564 311 564 362 565 c 1,77,-1
 432 586 l 1,78,-1
 426 565 l 1,79,-1
 640 569 l 1,80,81
 664 561 664 561 668 530 c 1,82,-1
 602 464 l 1,83,84
 596 479 596 479 592 488.5 c 128,-1,85
 588 498 588 498 585.5 503.5 c 128,-1,86
 583 509 583 509 581 512 c 128,-1,87
 579 515 579 515 576 519 c 0,88,89
 561 537 561 537 530 537 c 0,90,91
 525 537 525 537 502.5 536.5 c 128,-1,92
 480 536 480 536 450 534 c 2,93,-1
 419 534 l 1,94,-1
 362 307 l 1,95,-1
 541 307 l 1,0,1
421 632 m 1,96,97
 447 665 447 665 481 712 c 128,-1,98
 515 759 515 759 559 820 c 1,99,-1
 604 799 l 1,100,101
 575 769 575 769 555.5 748.5 c 128,-1,102
 536 728 536 728 519 709.5 c 128,-1,103
 502 691 502 691 485 671.5 c 128,-1,104
 468 652 468 652 445 625 c 1,105,-1
 421 632 l 1,96,97
EndSplineSet
EndChar

StartChar: Egrave
Encoding: 200 200 8
Width: 620
Flags: W
LayerCount: 2
Back
Fore
SplineSet
541 307 m 1,0,1
 534 302 534 302 529.5 298.5 c 128,-1,2
 525 295 525 295 521.5 292 c 128,-1,3
 518 289 518 289 513.5 286 c 128,-1,4
 509 283 509 283 503 278 c 1,5,-1
 476 276 l 1,6,-1
 433 274 l 2,7,8
 424 273 424 273 417.5 272.5 c 128,-1,9
 411 272 411 272 403 271.5 c 128,-1,10
 395 271 395 271 383 270.5 c 128,-1,11
 371 270 371 270 352 269 c 1,12,13
 343 235 343 235 336.5 211 c 128,-1,14
 330 187 330 187 323 169 c 128,-1,15
 316 151 316 151 308 137 c 128,-1,16
 300 123 300 123 288 109 c 128,-1,17
 276 95 276 95 259 79 c 128,-1,18
 242 63 242 63 218 41 c 1,19,-1
 478 41 l 2,20,21
 514 41 514 41 536 42.5 c 128,-1,22
 558 44 558 44 569 48.5 c 128,-1,23
 580 53 580 53 583.5 61.5 c 128,-1,24
 587 70 587 70 587 84 c 0,25,26
 587 92 587 92 586 99 c 128,-1,27
 585 106 585 106 583 122 c 1,28,-1
 659 150 l 1,29,30
 663 137 663 137 663 127 c 0,31,32
 663 110 663 110 649 90 c 128,-1,33
 635 70 635 70 600 38 c 0,34,35
 583 23 583 23 571 14 c 128,-1,36
 559 5 559 5 547.5 0 c 128,-1,37
 536 -5 536 -5 522.5 -6.5 c 128,-1,38
 509 -8 509 -8 490 -8 c 0,39,40
 472 -8 472 -8 461 -8 c 128,-1,41
 450 -8 450 -8 434 -7.5 c 128,-1,42
 418 -7 418 -7 393.5 -6.5 c 128,-1,43
 369 -6 369 -6 324 -4 c 2,44,-1
 244 -2 l 1,45,-1
 154 -1 l 1,46,-1
 98 0 l 1,47,-1
 136 33 l 1,48,49
 167 40 167 40 186 49.5 c 128,-1,50
 205 59 205 59 218 78.5 c 128,-1,51
 231 98 231 98 242 132 c 128,-1,52
 253 166 253 166 267 224 c 0,53,54
 270 234 270 234 273 243.5 c 128,-1,55
 276 253 276 253 278 264 c 1,56,-1
 250 264 l 1,57,58
 263 279 263 279 269.5 286.5 c 128,-1,59
 276 294 276 294 289 307 c 1,60,-1
 345 532 l 1,61,62
 243 529 243 529 198 502.5 c 128,-1,63
 153 476 153 476 153 418 c 0,64,65
 153 398 153 398 156 379 c 128,-1,66
 159 360 159 360 166 335 c 1,67,-1
 94 287 l 1,68,69
 83 313 83 313 79.5 330.5 c 128,-1,70
 76 348 76 348 76 368 c 0,71,72
 76 419 76 419 110 463 c 128,-1,73
 144 507 144 507 204 535 c 0,74,75
 237 550 237 550 274 557 c 128,-1,76
 311 564 311 564 362 565 c 1,77,-1
 432 586 l 1,78,-1
 426 565 l 1,79,-1
 640 569 l 1,80,81
 664 561 664 561 668 530 c 1,82,-1
 602 464 l 1,83,84
 596 479 596 479 592 488.5 c 128,-1,85
 588 498 588 498 585.5 503.5 c 128,-1,86
 583 509 583 509 581 512 c 128,-1,87
 579 515 579 515 576 519 c 0,88,89
 561 537 561 537 530 537 c 0,90,91
 525 537 525 537 502.5 536.5 c 128,-1,92
 480 536 480 536 450 534 c 2,93,-1
 419 534 l 1,94,-1
 362 307 l 1,95,-1
 541 307 l 1,0,1
433 812 m 2,96,97
 441 815 441 815 449 820 c 1,98,99
 461 787 461 787 469 764.5 c 128,-1,100
 477 742 477 742 483.5 722.5 c 128,-1,101
 490 703 490 703 496 682 c 128,-1,102
 502 661 502 661 511 631 c 1,103,104
 502 629 502 629 498 628 c 128,-1,105
 494 627 494 627 486 625 c 1,106,107
 469 663 469 663 456.5 689 c 128,-1,108
 444 715 444 715 435 734.5 c 128,-1,109
 426 754 426 754 418.5 768 c 128,-1,110
 411 782 411 782 403 796 c 1,111,-1
 416 803 l 1,112,-1
 433 812 l 2,96,97
EndSplineSet
EndChar

StartChar: Ecircumflex
Encoding: 202 202 9
Width: 620
Flags: W
LayerCount: 2
Back
Fore
SplineSet
541 307 m 1,0,1
 534 302 534 302 529.5 298.5 c 128,-1,2
 525 295 525 295 521.5 292 c 128,-1,3
 518 289 518 289 513.5 286 c 128,-1,4
 509 283 509 283 503 278 c 1,5,-1
 476 276 l 1,6,-1
 433 274 l 2,7,8
 424 273 424 273 417.5 272.5 c 128,-1,9
 411 272 411 272 403 271.5 c 128,-1,10
 395 271 395 271 383 270.5 c 128,-1,11
 371 270 371 270 352 269 c 1,12,13
 343 235 343 235 336.5 211 c 128,-1,14
 330 187 330 187 323 169 c 128,-1,15
 316 151 316 151 308 137 c 128,-1,16
 300 123 300 123 288 109 c 128,-1,17
 276 95 276 95 259 79 c 128,-1,18
 242 63 242 63 218 41 c 1,19,-1
 478 41 l 2,20,21
 514 41 514 41 536 42.5 c 128,-1,22
 558 44 558 44 569 48.5 c 128,-1,23
 580 53 580 53 583.5 61.5 c 128,-1,24
 587 70 587 70 587 84 c 0,25,26
 587 92 587 92 586 99 c 128,-1,27
 585 106 585 106 583 122 c 1,28,-1
 659 150 l 1,29,30
 663 137 663 137 663 127 c 0,31,32
 663 110 663 110 649 90 c 128,-1,33
 635 70 635 70 600 38 c 0,34,35
 583 23 583 23 571 14 c 128,-1,36
 559 5 559 5 547.5 0 c 128,-1,37
 536 -5 536 -5 522.5 -6.5 c 128,-1,38
 509 -8 509 -8 490 -8 c 0,39,40
 472 -8 472 -8 461 -8 c 128,-1,41
 450 -8 450 -8 434 -7.5 c 128,-1,42
 418 -7 418 -7 393.5 -6.5 c 128,-1,43
 369 -6 369 -6 324 -4 c 2,44,-1
 244 -2 l 1,45,-1
 154 -1 l 1,46,-1
 98 0 l 1,47,-1
 136 33 l 1,48,49
 167 40 167 40 186 49.5 c 128,-1,50
 205 59 205 59 218 78.5 c 128,-1,51
 231 98 231 98 242 132 c 128,-1,52
 253 166 253 166 267 224 c 0,53,54
 270 234 270 234 273 243.5 c 128,-1,55
 276 253 276 253 278 264 c 1,56,-1
 250 264 l 1,57,58
 263 279 263 279 269.5 286.5 c 128,-1,59
 276 294 276 294 289 307 c 1,60,-1
 345 532 l 1,61,62
 243 529 243 529 198 502.5 c 128,-1,63
 153 476 153 476 153 418 c 0,64,65
 153 398 153 398 156 379 c 128,-1,66
 159 360 159 360 166 335 c 1,67,-1
 94 287 l 1,68,69
 83 313 83 313 79.5 330.5 c 128,-1,70
 76 348 76 348 76 368 c 0,71,72
 76 419 76 419 110 463 c 128,-1,73
 144 507 144 507 204 535 c 0,74,75
 237 550 237 550 274 557 c 128,-1,76
 311 564 311 564 362 565 c 1,77,-1
 432 586 l 1,78,-1
 426 565 l 1,79,-1
 640 569 l 1,80,81
 664 561 664 561 668 530 c 1,82,-1
 602 464 l 1,83,84
 596 479 596 479 592 488.5 c 128,-1,85
 588 498 588 498 585.5 503.5 c 128,-1,86
 583 509 583 509 581 512 c 128,-1,87
 579 515 579 515 576 519 c 0,88,89
 561 537 561 537 530 537 c 0,90,91
 525 537 525 537 502.5 536.5 c 128,-1,92
 480 536 480 536 450 534 c 2,93,-1
 419 534 l 1,94,-1
 362 307 l 1,95,-1
 541 307 l 1,0,1
363 653 m 1,96,97
 403 694 403 694 429 719.5 c 128,-1,98
 455 745 455 745 473.5 762.5 c 128,-1,99
 492 780 492 780 505.5 792.5 c 128,-1,100
 519 805 519 805 536 819 c 0,101,102
 542 820 542 820 545 820.5 c 128,-1,103
 548 821 548 821 550 821 c 0,104,105
 553 821 553 821 563 819 c 1,106,107
 564 799 564 799 565 785.5 c 128,-1,108
 566 772 566 772 567 762.5 c 128,-1,109
 568 753 568 753 568.5 746.5 c 128,-1,110
 569 740 569 740 569 734 c 2,111,-1
 577 645 l 1,112,113
 567 640 567 640 561 636.5 c 128,-1,114
 555 633 555 633 541 625 c 1,115,-1
 538 648 l 1,116,-1
 532 695 l 2,117,118
 530 704 530 704 528 720 c 128,-1,119
 526 736 526 736 521 759 c 1,120,121
 509 749 509 749 499.5 741.5 c 128,-1,122
 490 734 490 734 482 727.5 c 128,-1,123
 474 721 474 721 466 714 c 128,-1,124
 458 707 458 707 448 699 c 0,125,126
 428 681 428 681 408 662.5 c 128,-1,127
 388 644 388 644 367 625 c 1,128,-1
 366 634 l 1,129,-1
 365 644 l 1,130,-1
 363 653 l 1,96,97
EndSplineSet
EndChar

StartChar: Idieresis
Encoding: 207 207 10
Width: 380
Flags: W
LayerCount: 2
Back
Fore
SplineSet
117 25 m 1,0,-1
 176 32 l 1,1,2
 182 54 182 54 186 68 c 128,-1,3
 190 82 190 82 193 93.5 c 128,-1,4
 196 105 196 105 199 117 c 128,-1,5
 202 129 202 129 207 147 c 0,6,7
 224 213 224 213 240 277 c 128,-1,8
 256 341 256 341 273 406 c 0,9,10
 280 433 280 433 285.5 455.5 c 128,-1,11
 291 478 291 478 296 497 c 0,12,13
 299 508 299 508 301.5 519 c 128,-1,14
 304 530 304 530 306 542 c 1,15,-1
 216 548 l 1,16,-1
 251 573 l 1,17,18
 277 572 277 572 293.5 572 c 128,-1,19
 310 572 310 572 328 572 c 0,20,21
 337 572 337 572 343.5 572 c 128,-1,22
 350 572 350 572 361.5 572 c 128,-1,23
 373 572 373 572 393 572.5 c 128,-1,24
 413 573 413 573 450 573 c 2,25,-1
 481 573 l 1,26,-1
 446 548 l 1,27,-1
 388 542 l 1,28,29
 377 502 377 502 364 453.5 c 128,-1,30
 351 405 351 405 338 355 c 128,-1,31
 325 305 325 305 312.5 255.5 c 128,-1,32
 300 206 300 206 289.5 163 c 128,-1,33
 279 120 279 120 271 85.5 c 128,-1,34
 263 51 263 51 259 32 c 1,35,-1
 352 25 l 1,36,-1
 316 0 l 1,37,-1
 162 1 l 2,38,39
 152 1 152 1 145.5 1 c 128,-1,40
 139 1 139 1 131.5 1 c 128,-1,41
 124 1 124 1 112.5 0.5 c 128,-1,42
 101 0 101 0 81 0 c 1,43,-1
 117 25 l 1,0,-1
433 762 m 2,44,45
 436 765 436 765 439.5 767.5 c 128,-1,46
 443 770 443 770 447 773 c 1,47,48
 451 763 451 763 453.5 757.5 c 128,-1,49
 456 752 456 752 457 749 c 128,-1,50
 458 746 458 746 459 744 c 128,-1,51
 460 742 460 742 461 739 c 0,52,53
 464 733 464 733 468 726 c 128,-1,54
 472 719 472 719 481 705 c 1,55,56
 476 701 476 701 472 697.5 c 128,-1,57
 468 694 468 694 463 691 c 0,58,59
 457 686 457 686 453 683 c 128,-1,60
 449 680 449 680 444.5 676 c 128,-1,61
 440 672 440 672 433.5 666 c 128,-1,62
 427 660 427 660 416 650 c 1,63,64
 399 673 399 673 391.5 688 c 128,-1,65
 384 703 384 703 378 720 c 1,66,67
 388 727 388 727 392.5 730 c 128,-1,68
 397 733 397 733 404 738 c 2,69,-1
 433 762 l 2,44,45
314 773 m 1,70,71
 322 754 322 754 324 749.5 c 128,-1,72
 326 745 326 745 329 739 c 256,73,74
 332 733 332 733 336 726 c 128,-1,75
 340 719 340 719 348 705 c 1,76,77
 331 691 331 691 326.5 688 c 128,-1,78
 322 685 322 685 316 680 c 256,79,80
 310 675 310 675 303.5 669 c 128,-1,81
 297 663 297 663 283 650 c 1,82,83
 266 675 266 675 258.5 689 c 128,-1,84
 251 703 251 703 245 720 c 1,85,86
 255 727 255 727 261 731 c 128,-1,87
 267 735 267 735 272.5 739.5 c 128,-1,88
 278 744 278 744 284 749 c 128,-1,89
 290 754 290 754 300 762 c 2,90,-1
 314 773 l 1,70,71
EndSplineSet
EndChar

StartChar: Iacute
Encoding: 205 205 11
Width: 380
Flags: W
LayerCount: 2
Back
Fore
SplineSet
117 25 m 1,0,-1
 176 32 l 1,1,2
 182 54 182 54 186 68 c 128,-1,3
 190 82 190 82 193 93.5 c 128,-1,4
 196 105 196 105 199 117 c 128,-1,5
 202 129 202 129 207 147 c 0,6,7
 224 213 224 213 240 277 c 128,-1,8
 256 341 256 341 273 406 c 0,9,10
 280 433 280 433 285.5 455.5 c 128,-1,11
 291 478 291 478 296 497 c 0,12,13
 299 508 299 508 301.5 519 c 128,-1,14
 304 530 304 530 306 542 c 1,15,-1
 216 548 l 1,16,-1
 251 573 l 1,17,18
 277 572 277 572 293.5 572 c 128,-1,19
 310 572 310 572 328 572 c 0,20,21
 337 572 337 572 343.5 572 c 128,-1,22
 350 572 350 572 361.5 572 c 128,-1,23
 373 572 373 572 393 572.5 c 128,-1,24
 413 573 413 573 450 573 c 2,25,-1
 481 573 l 1,26,-1
 446 548 l 1,27,-1
 388 542 l 1,28,29
 377 502 377 502 364 453.5 c 128,-1,30
 351 405 351 405 338 355 c 128,-1,31
 325 305 325 305 312.5 255.5 c 128,-1,32
 300 206 300 206 289.5 163 c 128,-1,33
 279 120 279 120 271 85.5 c 128,-1,34
 263 51 263 51 259 32 c 1,35,-1
 352 25 l 1,36,-1
 316 0 l 1,37,-1
 162 1 l 2,38,39
 152 1 152 1 145.5 1 c 128,-1,40
 139 1 139 1 131.5 1 c 128,-1,41
 124 1 124 1 112.5 0.5 c 128,-1,42
 101 0 101 0 81 0 c 1,43,-1
 117 25 l 1,0,-1
288 632 m 1,44,45
 314 665 314 665 348 712 c 128,-1,46
 382 759 382 759 426 820 c 1,47,-1
 471 799 l 1,48,49
 442 769 442 769 422.5 748.5 c 128,-1,50
 403 728 403 728 386 709.5 c 128,-1,51
 369 691 369 691 352 671.5 c 128,-1,52
 335 652 335 652 312 625 c 1,53,-1
 288 632 l 1,44,45
EndSplineSet
EndChar

StartChar: Igrave
Encoding: 204 204 12
Width: 380
Flags: W
LayerCount: 2
Back
Fore
SplineSet
117 25 m 1,0,-1
 176 32 l 1,1,2
 182 54 182 54 186 68 c 128,-1,3
 190 82 190 82 193 93.5 c 128,-1,4
 196 105 196 105 199 117 c 128,-1,5
 202 129 202 129 207 147 c 0,6,7
 224 213 224 213 240 277 c 128,-1,8
 256 341 256 341 273 406 c 0,9,10
 280 433 280 433 285.5 455.5 c 128,-1,11
 291 478 291 478 296 497 c 0,12,13
 299 508 299 508 301.5 519 c 128,-1,14
 304 530 304 530 306 542 c 1,15,-1
 216 548 l 1,16,-1
 251 573 l 1,17,18
 277 572 277 572 293.5 572 c 128,-1,19
 310 572 310 572 328 572 c 0,20,21
 337 572 337 572 343.5 572 c 128,-1,22
 350 572 350 572 361.5 572 c 128,-1,23
 373 572 373 572 393 572.5 c 128,-1,24
 413 573 413 573 450 573 c 2,25,-1
 481 573 l 1,26,-1
 446 548 l 1,27,-1
 388 542 l 1,28,29
 377 502 377 502 364 453.5 c 128,-1,30
 351 405 351 405 338 355 c 128,-1,31
 325 305 325 305 312.5 255.5 c 128,-1,32
 300 206 300 206 289.5 163 c 128,-1,33
 279 120 279 120 271 85.5 c 128,-1,34
 263 51 263 51 259 32 c 1,35,-1
 352 25 l 1,36,-1
 316 0 l 1,37,-1
 162 1 l 2,38,39
 152 1 152 1 145.5 1 c 128,-1,40
 139 1 139 1 131.5 1 c 128,-1,41
 124 1 124 1 112.5 0.5 c 128,-1,42
 101 0 101 0 81 0 c 1,43,-1
 117 25 l 1,0,-1
334 812 m 2,44,45
 342 815 342 815 350 820 c 1,46,47
 362 787 362 787 370 764.5 c 128,-1,48
 378 742 378 742 384.5 722.5 c 128,-1,49
 391 703 391 703 397 682 c 128,-1,50
 403 661 403 661 412 631 c 1,51,52
 403 629 403 629 399 628 c 128,-1,53
 395 627 395 627 387 625 c 1,54,55
 370 663 370 663 357.5 689 c 128,-1,56
 345 715 345 715 336 734.5 c 128,-1,57
 327 754 327 754 319.5 768 c 128,-1,58
 312 782 312 782 304 796 c 1,59,-1
 317 803 l 1,60,-1
 334 812 l 2,44,45
EndSplineSet
EndChar

StartChar: Icircumflex
Encoding: 206 206 13
Width: 380
Flags: W
LayerCount: 2
Back
Fore
SplineSet
117 25 m 1,0,-1
 176 32 l 1,1,2
 182 54 182 54 186 68 c 128,-1,3
 190 82 190 82 193 93.5 c 128,-1,4
 196 105 196 105 199 117 c 128,-1,5
 202 129 202 129 207 147 c 0,6,7
 224 213 224 213 240 277 c 128,-1,8
 256 341 256 341 273 406 c 0,9,10
 280 433 280 433 285.5 455.5 c 128,-1,11
 291 478 291 478 296 497 c 0,12,13
 299 508 299 508 301.5 519 c 128,-1,14
 304 530 304 530 306 542 c 1,15,-1
 216 548 l 1,16,-1
 251 573 l 1,17,18
 277 572 277 572 293.5 572 c 128,-1,19
 310 572 310 572 328 572 c 0,20,21
 337 572 337 572 343.5 572 c 128,-1,22
 350 572 350 572 361.5 572 c 128,-1,23
 373 572 373 572 393 572.5 c 128,-1,24
 413 573 413 573 450 573 c 2,25,-1
 481 573 l 1,26,-1
 446 548 l 1,27,-1
 388 542 l 1,28,29
 377 502 377 502 364 453.5 c 128,-1,30
 351 405 351 405 338 355 c 128,-1,31
 325 305 325 305 312.5 255.5 c 128,-1,32
 300 206 300 206 289.5 163 c 128,-1,33
 279 120 279 120 271 85.5 c 128,-1,34
 263 51 263 51 259 32 c 1,35,-1
 352 25 l 1,36,-1
 316 0 l 1,37,-1
 162 1 l 2,38,39
 152 1 152 1 145.5 1 c 128,-1,40
 139 1 139 1 131.5 1 c 128,-1,41
 124 1 124 1 112.5 0.5 c 128,-1,42
 101 0 101 0 81 0 c 1,43,-1
 117 25 l 1,0,-1
273 653 m 1,44,45
 313 694 313 694 339 719.5 c 128,-1,46
 365 745 365 745 383.5 762.5 c 128,-1,47
 402 780 402 780 415.5 792.5 c 128,-1,48
 429 805 429 805 446 819 c 0,49,50
 452 820 452 820 455 820.5 c 128,-1,51
 458 821 458 821 460 821 c 0,52,53
 463 821 463 821 473 819 c 1,54,55
 474 799 474 799 475 785.5 c 128,-1,56
 476 772 476 772 477 762.5 c 128,-1,57
 478 753 478 753 478.5 746.5 c 128,-1,58
 479 740 479 740 479 734 c 2,59,-1
 487 645 l 1,60,61
 477 640 477 640 471 636.5 c 128,-1,62
 465 633 465 633 451 625 c 1,63,-1
 448 648 l 1,64,-1
 442 695 l 2,65,66
 440 704 440 704 438 720 c 128,-1,67
 436 736 436 736 431 759 c 1,68,69
 419 749 419 749 409.5 741.5 c 128,-1,70
 400 734 400 734 392 727.5 c 128,-1,71
 384 721 384 721 376 714 c 128,-1,72
 368 707 368 707 358 699 c 0,73,74
 338 681 338 681 318 662.5 c 128,-1,75
 298 644 298 644 277 625 c 1,76,-1
 276 634 l 1,77,-1
 275 644 l 1,78,-1
 273 653 l 1,44,45
EndSplineSet
EndChar

StartChar: Ntilde
Encoding: 209 209 14
Width: 700
Flags: W
LayerCount: 2
Back
Fore
SplineSet
88 69 m 1,0,1
 109 67 109 67 121.5 66 c 128,-1,2
 134 65 134 65 150 65 c 0,3,4
 190 65 190 65 210 75 c 128,-1,5
 230 85 230 85 246 113 c 0,6,7
 271 158 271 158 300 252.5 c 128,-1,8
 329 347 329 347 364 499 c 1,9,10
 337 501 337 501 321 501 c 128,-1,11
 305 501 305 501 287 501 c 0,12,13
 253 501 253 501 232.5 497.5 c 128,-1,14
 212 494 212 494 194 484 c 0,15,16
 173 473 173 473 161 454 c 128,-1,17
 149 435 149 435 149 412 c 0,18,19
 149 402 149 402 150.5 392.5 c 128,-1,20
 152 383 152 383 155.5 372 c 128,-1,21
 159 361 159 361 165.5 346 c 128,-1,22
 172 331 172 331 181 311 c 1,23,-1
 112 264 l 1,24,25
 98 292 98 292 92.5 312 c 128,-1,26
 87 332 87 332 87 352 c 0,27,28
 87 373 87 373 95.5 397.5 c 128,-1,29
 104 422 104 422 119 446 c 128,-1,30
 134 470 134 470 155 492.5 c 128,-1,31
 176 515 176 515 200 533 c 0,32,33
 226 553 226 553 254.5 560.5 c 128,-1,34
 283 568 283 568 327 568 c 0,35,36
 342 568 342 568 353 567.5 c 128,-1,37
 364 567 364 567 382 565 c 1,38,-1
 416 596 l 1,39,40
 443 497 443 497 462 426 c 128,-1,41
 481 355 481 355 495.5 304 c 128,-1,42
 510 253 510 253 521 218 c 128,-1,43
 532 183 532 183 542 157 c 128,-1,44
 552 131 552 131 561.5 110 c 128,-1,45
 571 89 571 89 583 65 c 1,46,47
 590 95 590 95 598 122 c 0,48,49
 606 157 606 157 614 193 c 128,-1,50
 622 229 622 229 630 264 c 0,51,52
 648 345 648 345 662 398.5 c 128,-1,53
 676 452 676 452 689 487.5 c 128,-1,54
 702 523 702 523 716 546.5 c 128,-1,55
 730 570 730 570 749 592 c 0,56,57
 788 636 788 636 820.5 656.5 c 128,-1,58
 853 677 853 677 883 677 c 0,59,60
 890 677 890 677 898 676.5 c 128,-1,61
 906 676 906 676 915 675 c 1,62,-1
 878 608 l 1,63,64
 868 610 868 610 862.5 610 c 128,-1,65
 857 610 857 610 851 610 c 0,66,67
 816 610 816 610 796 597 c 128,-1,68
 776 584 776 584 760 552 c 0,69,70
 748 527 748 527 737.5 499.5 c 128,-1,71
 727 472 727 472 715.5 436.5 c 128,-1,72
 704 401 704 401 691.5 353.5 c 128,-1,73
 679 306 679 306 663 240 c 0,74,75
 653 200 653 200 646.5 171.5 c 128,-1,76
 640 143 640 143 634.5 117.5 c 128,-1,77
 629 92 629 92 623.5 67 c 128,-1,78
 618 42 618 42 612 10 c 1,79,80
 689 -136 689 -136 784 -136 c 0,81,82
 817 -136 817 -136 840 -114 c 128,-1,83
 863 -92 863 -92 886 -39 c 1,84,-1
 910 -128 l 1,85,86
 876 -148 876 -148 846 -155.5 c 128,-1,87
 816 -163 816 -163 778 -163 c 0,88,89
 599 -163 599 -163 507 29 c 0,90,91
 484 77 484 77 465 135.5 c 128,-1,92
 446 194 446 194 426 277 c 0,93,94
 421 295 421 295 418 307.5 c 128,-1,95
 415 320 415 320 411.5 336 c 128,-1,96
 408 352 408 352 402.5 376 c 128,-1,97
 397 400 397 400 387 442 c 1,98,99
 372 379 372 379 362.5 341 c 128,-1,100
 353 303 353 303 346.5 279.5 c 128,-1,101
 340 256 340 256 335.5 241.5 c 128,-1,102
 331 227 331 227 325 212 c 0,103,104
 302 149 302 149 268.5 99.5 c 128,-1,105
 235 50 235 50 199 24 c 0,106,107
 178 10 178 10 154.5 3.5 c 128,-1,108
 131 -3 131 -3 96 -3 c 0,109,110
 83 -3 83 -3 71.5 -2.5 c 128,-1,111
 60 -2 60 -2 40 0 c 1,112,-1
 88 69 l 1,0,1
453 673 m 1,113,114
 489 723 489 723 511.5 741.5 c 128,-1,115
 534 760 534 760 558 760 c 0,116,117
 565 760 565 760 571.5 759 c 128,-1,118
 578 758 578 758 585.5 755.5 c 128,-1,119
 593 753 593 753 602.5 748 c 128,-1,120
 612 743 612 743 626 735 c 0,121,122
 643 726 643 726 658 720.5 c 128,-1,123
 673 715 673 715 684 715 c 0,124,125
 718 715 718 715 759 752 c 0,126,127
 762 756 762 756 765.5 759 c 128,-1,128
 769 762 769 762 773 765 c 1,129,-1
 783 748 l 1,130,131
 763 723 763 723 748.5 707 c 128,-1,132
 734 691 734 691 722.5 681.5 c 128,-1,133
 711 672 711 672 700.5 668.5 c 128,-1,134
 690 665 690 665 679 665 c 0,135,136
 670 665 670 665 662.5 666 c 128,-1,137
 655 667 655 667 646 670.5 c 128,-1,138
 637 674 637 674 624.5 680.5 c 128,-1,139
 612 687 612 687 593 698 c 0,140,141
 563 715 563 715 543 715 c 0,142,143
 534 715 534 715 526 712.5 c 128,-1,144
 518 710 518 710 509 703.5 c 128,-1,145
 500 697 500 697 490 685 c 128,-1,146
 480 673 480 673 466 655 c 1,147,-1
 453 673 l 1,113,114
EndSplineSet
EndChar

StartChar: Odieresis
Encoding: 214 214 15
Width: 600
Flags: W
LayerCount: 2
Back
Fore
SplineSet
487 591 m 0,0,1
 568 591 568 591 610 541 c 128,-1,2
 652 491 652 491 652 397 c 256,3,4
 652 303 652 303 622 226.5 c 128,-1,5
 592 150 592 150 533 96 c 0,6,7
 476 44 476 44 408.5 15.5 c 128,-1,8
 341 -13 341 -13 274 -13 c 0,9,10
 190 -13 190 -13 147 36.5 c 128,-1,11
 104 86 104 86 104 183 c 0,12,13
 104 281 104 281 138 361.5 c 128,-1,14
 172 442 172 442 236 496 c 0,15,16
 262 517 262 517 293 534.5 c 128,-1,17
 324 552 324 552 357 564.5 c 128,-1,18
 390 577 390 577 423.5 584 c 128,-1,19
 457 591 457 591 487 591 c 0,0,1
425 552 m 0,20,21
 375 552 375 552 331.5 526 c 128,-1,22
 288 500 288 500 256 455.5 c 128,-1,23
 224 411 224 411 205 350.5 c 128,-1,24
 186 290 186 290 186 221 c 0,25,26
 186 129 186 129 224.5 78 c 128,-1,27
 263 27 263 27 332 27 c 0,28,29
 389 27 389 27 438.5 60 c 128,-1,30
 488 93 488 93 520 153 c 0,31,32
 543 195 543 195 556.5 252.5 c 128,-1,33
 570 310 570 310 570 365 c 0,34,35
 570 456 570 456 532.5 504 c 128,-1,36
 495 552 495 552 425 552 c 0,20,21
554 762 m 2,37,38
 557 765 557 765 560.5 767.5 c 128,-1,39
 564 770 564 770 568 773 c 1,40,41
 572 763 572 763 574.5 757.5 c 128,-1,42
 577 752 577 752 578 749 c 128,-1,43
 579 746 579 746 580 744 c 128,-1,44
 581 742 581 742 582 739 c 0,45,46
 585 733 585 733 589 726 c 128,-1,47
 593 719 593 719 602 705 c 1,48,49
 597 701 597 701 593 697.5 c 128,-1,50
 589 694 589 694 584 691 c 0,51,52
 578 686 578 686 574 683 c 128,-1,53
 570 680 570 680 565.5 676 c 128,-1,54
 561 672 561 672 554.5 666 c 128,-1,55
 548 660 548 660 537 650 c 1,56,57
 520 673 520 673 512.5 688 c 128,-1,58
 505 703 505 703 499 720 c 1,59,60
 509 727 509 727 513.5 730 c 128,-1,61
 518 733 518 733 525 738 c 2,62,-1
 554 762 l 2,37,38
435 773 m 1,63,64
 443 754 443 754 445 749.5 c 128,-1,65
 447 745 447 745 450 739 c 256,66,67
 453 733 453 733 457 726 c 128,-1,68
 461 719 461 719 469 705 c 1,69,70
 452 691 452 691 447.5 688 c 128,-1,71
 443 685 443 685 437 680 c 256,72,73
 431 675 431 675 424.5 669 c 128,-1,74
 418 663 418 663 404 650 c 1,75,76
 387 675 387 675 379.5 689 c 128,-1,77
 372 703 372 703 366 720 c 1,78,79
 376 727 376 727 382 731 c 128,-1,80
 388 735 388 735 393.5 739.5 c 128,-1,81
 399 744 399 744 405 749 c 128,-1,82
 411 754 411 754 421 762 c 2,83,-1
 435 773 l 1,63,64
EndSplineSet
EndChar

StartChar: Oacute
Encoding: 211 211 16
Width: 600
Flags: W
LayerCount: 2
Back
Fore
SplineSet
487 591 m 0,0,1
 568 591 568 591 610 541 c 128,-1,2
 652 491 652 491 652 397 c 256,3,4
 652 303 652 303 622 226.5 c 128,-1,5
 592 150 592 150 533 96 c 0,6,7
 476 44 476 44 408.5 15.5 c 128,-1,8
 341 -13 341 -13 274 -13 c 0,9,10
 190 -13 190 -13 147 36.5 c 128,-1,11
 104 86 104 86 104 183 c 0,12,13
 104 281 104 281 138 361.5 c 128,-1,14
 172 442 172 442 236 496 c 0,15,16
 262 517 262 517 293 534.5 c 128,-1,17
 324 552 324 552 357 564.5 c 128,-1,18
 390 577 390 577 423.5 584 c 128,-1,19
 457 591 457 591 487 591 c 0,0,1
425 552 m 0,20,21
 375 552 375 552 331.5 526 c 128,-1,22
 288 500 288 500 256 455.5 c 128,-1,23
 224 411 224 411 205 350.5 c 128,-1,24
 186 290 186 290 186 221 c 0,25,26
 186 129 186 129 224.5 78 c 128,-1,27
 263 27 263 27 332 27 c 0,28,29
 389 27 389 27 438.5 60 c 128,-1,30
 488 93 488 93 520 153 c 0,31,32
 543 195 543 195 556.5 252.5 c 128,-1,33
 570 310 570 310 570 365 c 0,34,35
 570 456 570 456 532.5 504 c 128,-1,36
 495 552 495 552 425 552 c 0,20,21
409 632 m 1,37,38
 435 665 435 665 469 712 c 128,-1,39
 503 759 503 759 547 820 c 1,40,-1
 592 799 l 1,41,42
 563 769 563 769 543.5 748.5 c 128,-1,43
 524 728 524 728 507 709.5 c 128,-1,44
 490 691 490 691 473 671.5 c 128,-1,45
 456 652 456 652 433 625 c 1,46,-1
 409 632 l 1,37,38
EndSplineSet
EndChar

StartChar: Ograve
Encoding: 210 210 17
Width: 600
Flags: W
LayerCount: 2
Back
Fore
SplineSet
487 591 m 0,0,1
 568 591 568 591 610 541 c 128,-1,2
 652 491 652 491 652 397 c 256,3,4
 652 303 652 303 622 226.5 c 128,-1,5
 592 150 592 150 533 96 c 0,6,7
 476 44 476 44 408.5 15.5 c 128,-1,8
 341 -13 341 -13 274 -13 c 0,9,10
 190 -13 190 -13 147 36.5 c 128,-1,11
 104 86 104 86 104 183 c 0,12,13
 104 281 104 281 138 361.5 c 128,-1,14
 172 442 172 442 236 496 c 0,15,16
 262 517 262 517 293 534.5 c 128,-1,17
 324 552 324 552 357 564.5 c 128,-1,18
 390 577 390 577 423.5 584 c 128,-1,19
 457 591 457 591 487 591 c 0,0,1
425 552 m 0,20,21
 375 552 375 552 331.5 526 c 128,-1,22
 288 500 288 500 256 455.5 c 128,-1,23
 224 411 224 411 205 350.5 c 128,-1,24
 186 290 186 290 186 221 c 0,25,26
 186 129 186 129 224.5 78 c 128,-1,27
 263 27 263 27 332 27 c 0,28,29
 389 27 389 27 438.5 60 c 128,-1,30
 488 93 488 93 520 153 c 0,31,32
 543 195 543 195 556.5 252.5 c 128,-1,33
 570 310 570 310 570 365 c 0,34,35
 570 456 570 456 532.5 504 c 128,-1,36
 495 552 495 552 425 552 c 0,20,21
426 812 m 2,37,38
 434 815 434 815 442 820 c 1,39,40
 454 787 454 787 462 764.5 c 128,-1,41
 470 742 470 742 476.5 722.5 c 128,-1,42
 483 703 483 703 489 682 c 128,-1,43
 495 661 495 661 504 631 c 1,44,45
 495 629 495 629 491 628 c 128,-1,46
 487 627 487 627 479 625 c 1,47,48
 462 663 462 663 449.5 689 c 128,-1,49
 437 715 437 715 428 734.5 c 128,-1,50
 419 754 419 754 411.5 768 c 128,-1,51
 404 782 404 782 396 796 c 1,52,-1
 409 803 l 1,53,-1
 426 812 l 2,37,38
EndSplineSet
EndChar

StartChar: Ocircumflex
Encoding: 212 212 18
Width: 600
Flags: W
LayerCount: 2
Back
Fore
SplineSet
487 591 m 0,0,1
 568 591 568 591 610 541 c 128,-1,2
 652 491 652 491 652 397 c 256,3,4
 652 303 652 303 622 226.5 c 128,-1,5
 592 150 592 150 533 96 c 0,6,7
 476 44 476 44 408.5 15.5 c 128,-1,8
 341 -13 341 -13 274 -13 c 0,9,10
 190 -13 190 -13 147 36.5 c 128,-1,11
 104 86 104 86 104 183 c 0,12,13
 104 281 104 281 138 361.5 c 128,-1,14
 172 442 172 442 236 496 c 0,15,16
 262 517 262 517 293 534.5 c 128,-1,17
 324 552 324 552 357 564.5 c 128,-1,18
 390 577 390 577 423.5 584 c 128,-1,19
 457 591 457 591 487 591 c 0,0,1
425 552 m 0,20,21
 375 552 375 552 331.5 526 c 128,-1,22
 288 500 288 500 256 455.5 c 128,-1,23
 224 411 224 411 205 350.5 c 128,-1,24
 186 290 186 290 186 221 c 0,25,26
 186 129 186 129 224.5 78 c 128,-1,27
 263 27 263 27 332 27 c 0,28,29
 389 27 389 27 438.5 60 c 128,-1,30
 488 93 488 93 520 153 c 0,31,32
 543 195 543 195 556.5 252.5 c 128,-1,33
 570 310 570 310 570 365 c 0,34,35
 570 456 570 456 532.5 504 c 128,-1,36
 495 552 495 552 425 552 c 0,20,21
359 653 m 1,37,38
 399 694 399 694 425 719.5 c 128,-1,39
 451 745 451 745 469.5 762.5 c 128,-1,40
 488 780 488 780 501.5 792.5 c 128,-1,41
 515 805 515 805 532 819 c 0,42,43
 538 820 538 820 541 820.5 c 128,-1,44
 544 821 544 821 546 821 c 0,45,46
 549 821 549 821 559 819 c 1,47,48
 560 799 560 799 561 785.5 c 128,-1,49
 562 772 562 772 563 762.5 c 128,-1,50
 564 753 564 753 564.5 746.5 c 128,-1,51
 565 740 565 740 565 734 c 2,52,-1
 573 645 l 1,53,54
 563 640 563 640 557 636.5 c 128,-1,55
 551 633 551 633 537 625 c 1,56,-1
 534 648 l 1,57,-1
 528 695 l 2,58,59
 526 704 526 704 524 720 c 128,-1,60
 522 736 522 736 517 759 c 1,61,62
 505 749 505 749 495.5 741.5 c 128,-1,63
 486 734 486 734 478 727.5 c 128,-1,64
 470 721 470 721 462 714 c 128,-1,65
 454 707 454 707 444 699 c 0,66,67
 424 681 424 681 404 662.5 c 128,-1,68
 384 644 384 644 363 625 c 1,69,-1
 362 634 l 1,70,-1
 361 644 l 1,71,-1
 359 653 l 1,37,38
EndSplineSet
EndChar

StartChar: Otilde
Encoding: 213 213 19
Width: 600
Flags: W
LayerCount: 2
Back
Fore
SplineSet
487 591 m 0,0,1
 568 591 568 591 610 541 c 128,-1,2
 652 491 652 491 652 397 c 256,3,4
 652 303 652 303 622 226.5 c 128,-1,5
 592 150 592 150 533 96 c 0,6,7
 476 44 476 44 408.5 15.5 c 128,-1,8
 341 -13 341 -13 274 -13 c 0,9,10
 190 -13 190 -13 147 36.5 c 128,-1,11
 104 86 104 86 104 183 c 0,12,13
 104 281 104 281 138 361.5 c 128,-1,14
 172 442 172 442 236 496 c 0,15,16
 262 517 262 517 293 534.5 c 128,-1,17
 324 552 324 552 357 564.5 c 128,-1,18
 390 577 390 577 423.5 584 c 128,-1,19
 457 591 457 591 487 591 c 0,0,1
425 552 m 0,20,21
 375 552 375 552 331.5 526 c 128,-1,22
 288 500 288 500 256 455.5 c 128,-1,23
 224 411 224 411 205 350.5 c 128,-1,24
 186 290 186 290 186 221 c 0,25,26
 186 129 186 129 224.5 78 c 128,-1,27
 263 27 263 27 332 27 c 0,28,29
 389 27 389 27 438.5 60 c 128,-1,30
 488 93 488 93 520 153 c 0,31,32
 543 195 543 195 556.5 252.5 c 128,-1,33
 570 310 570 310 570 365 c 0,34,35
 570 456 570 456 532.5 504 c 128,-1,36
 495 552 495 552 425 552 c 0,20,21
348 673 m 1,37,38
 384 723 384 723 406.5 741.5 c 128,-1,39
 429 760 429 760 453 760 c 0,40,41
 460 760 460 760 466.5 759 c 128,-1,42
 473 758 473 758 480.5 755.5 c 128,-1,43
 488 753 488 753 497.5 748 c 128,-1,44
 507 743 507 743 521 735 c 0,45,46
 538 726 538 726 553 720.5 c 128,-1,47
 568 715 568 715 579 715 c 0,48,49
 613 715 613 715 654 752 c 0,50,51
 657 756 657 756 660.5 759 c 128,-1,52
 664 762 664 762 668 765 c 1,53,-1
 678 748 l 1,54,55
 658 723 658 723 643.5 707 c 128,-1,56
 629 691 629 691 617.5 681.5 c 128,-1,57
 606 672 606 672 595.5 668.5 c 128,-1,58
 585 665 585 665 574 665 c 0,59,60
 565 665 565 665 557.5 666 c 128,-1,61
 550 667 550 667 541 670.5 c 128,-1,62
 532 674 532 674 519.5 680.5 c 128,-1,63
 507 687 507 687 488 698 c 0,64,65
 458 715 458 715 438 715 c 0,66,67
 429 715 429 715 421 712.5 c 128,-1,68
 413 710 413 710 404 703.5 c 128,-1,69
 395 697 395 697 385 685 c 128,-1,70
 375 673 375 673 361 655 c 1,71,-1
 348 673 l 1,37,38
EndSplineSet
EndChar

StartChar: Scaron
Encoding: 352 352 20
Width: 460
Flags: W
LayerCount: 2
Back
Fore
SplineSet
60 113 m 1,0,1
 66 80 66 80 73.5 61 c 128,-1,2
 81 42 81 42 97 25 c 0,3,4
 117 2 117 2 148 -11 c 128,-1,5
 179 -24 179 -24 211 -24 c 0,6,7
 244 -24 244 -24 273 -12 c 128,-1,8
 302 0 302 0 324.5 20 c 128,-1,9
 347 40 347 40 360 66.5 c 128,-1,10
 373 93 373 93 373 123 c 0,11,12
 373 140 373 140 369 154.5 c 128,-1,13
 365 169 365 169 355.5 183.5 c 128,-1,14
 346 198 346 198 329 214 c 128,-1,15
 312 230 312 230 287 250 c 0,16,17
 265 267 265 267 250 282 c 128,-1,18
 235 297 235 297 225.5 311.5 c 128,-1,19
 216 326 216 326 212 341 c 128,-1,20
 208 356 208 356 208 373 c 0,21,22
 208 410 208 410 228 448 c 128,-1,23
 248 486 248 486 279.5 517 c 128,-1,24
 311 548 311 548 350 567 c 128,-1,25
 389 586 389 586 428 586 c 0,26,27
 508 586 508 586 517 504 c 1,28,-1
 451 457 l 1,29,30
 443 505 443 505 428.5 522 c 128,-1,31
 414 539 414 539 383 539 c 0,32,33
 361 539 361 539 341.5 529.5 c 128,-1,34
 322 520 322 520 307 503.5 c 128,-1,35
 292 487 292 487 283.5 465 c 128,-1,36
 275 443 275 443 275 418 c 0,37,38
 275 402 275 402 278 389.5 c 128,-1,39
 281 377 281 377 290 364.5 c 128,-1,40
 299 352 299 352 316 337 c 128,-1,41
 333 322 333 322 360 301 c 0,42,43
 388 279 388 279 405.5 263.5 c 128,-1,44
 423 248 423 248 433 234.5 c 128,-1,45
 443 221 443 221 446.5 208.5 c 128,-1,46
 450 196 450 196 450 181 c 0,47,48
 450 133 450 133 424.5 87.5 c 128,-1,49
 399 42 399 42 356.5 7 c 128,-1,50
 314 -28 314 -28 259.5 -49.5 c 128,-1,51
 205 -71 205 -71 147 -71 c 0,52,53
 97 -71 97 -71 61.5 -54 c 128,-1,54
 26 -37 26 -37 0 -2 c 1,55,-1
 44 102 l 1,56,-1
 60 113 l 1,0,1
607 793 m 1,57,58
 569 755 569 755 544 729.5 c 128,-1,59
 519 704 519 704 500 686 c 128,-1,60
 481 668 481 668 466 655 c 128,-1,61
 451 642 451 642 434 627 c 0,62,63
 427 625 427 625 424.5 624.5 c 128,-1,64
 422 624 422 624 420 624 c 0,65,66
 414 624 414 624 407 627 c 1,67,68
 404 675 404 675 400.5 718 c 128,-1,69
 397 761 397 761 394 800 c 1,70,71
 410 809 410 809 414.5 812 c 128,-1,72
 419 815 419 815 429 821 c 1,73,74
 433 788 433 788 436 768.5 c 128,-1,75
 439 749 439 749 440.5 736 c 128,-1,76
 442 723 442 723 444 712.5 c 128,-1,77
 446 702 446 702 449 687 c 1,78,79
 470 703 470 703 483.5 714 c 128,-1,80
 497 725 497 725 509 735.5 c 128,-1,81
 521 746 521 746 535.5 759 c 128,-1,82
 550 772 550 772 574 794 c 0,83,84
 581 801 581 801 588 807.5 c 128,-1,85
 595 814 595 814 603 821 c 1,86,-1
 604 811 l 1,87,-1
 605 802 l 1,88,-1
 607 793 l 1,57,58
EndSplineSet
EndChar

StartChar: Udieresis
Encoding: 220 220 21
Width: 740
Flags: W
LayerCount: 2
Back
Fore
SplineSet
649 558 m 1,0,1
 675 561 675 561 691 562.5 c 128,-1,2
 707 564 707 564 720 565.5 c 128,-1,3
 733 567 733 567 745.5 569 c 128,-1,4
 758 571 758 571 778 574 c 1,5,6
 751 479 751 479 729 393.5 c 128,-1,7
 707 308 707 308 691.5 240.5 c 128,-1,8
 676 173 676 173 667 127 c 128,-1,9
 658 81 658 81 658 64 c 0,10,11
 658 31 658 31 693 31 c 0,12,13
 713 31 713 31 728 32 c 128,-1,14
 743 33 743 33 767 35 c 1,15,-1
 746 10 l 1,16,17
 638 -14 638 -14 593 -14 c 0,18,19
 566 -14 566 -14 566 8 c 0,20,21
 566 15 566 15 567.5 24.5 c 128,-1,22
 569 34 569 34 574 58 c 1,23,24
 528 38 528 38 492.5 24.5 c 128,-1,25
 457 11 457 11 428.5 3 c 128,-1,26
 400 -5 400 -5 377 -9 c 128,-1,27
 354 -13 354 -13 333 -13 c 0,28,29
 284 -13 284 -13 254 20.5 c 128,-1,30
 224 54 224 54 224 108 c 0,31,32
 224 143 224 143 233.5 182.5 c 128,-1,33
 243 222 243 222 262.5 269 c 128,-1,34
 282 316 282 316 313 372 c 128,-1,35
 344 428 344 428 387 496 c 1,36,37
 354 507 354 507 334.5 511 c 128,-1,38
 315 515 315 515 293 515 c 0,39,40
 243 515 243 515 210.5 488 c 128,-1,41
 178 461 178 461 178 419 c 0,42,43
 178 399 178 399 185 377.5 c 128,-1,44
 192 356 192 356 212 320 c 1,45,-1
 145 266 l 1,46,47
 128 299 128 299 122 320.5 c 128,-1,48
 116 342 116 342 116 363 c 0,49,50
 116 406 116 406 145.5 453.5 c 128,-1,51
 175 501 175 501 224 537 c 0,52,53
 272 572 272 572 340 572 c 0,54,55
 356 572 356 572 369.5 570.5 c 128,-1,56
 383 569 383 569 411 564 c 2,57,-1
 432 561 l 1,58,-1
 442 565 l 2,59,60
 455 571 455 571 459 573 c 128,-1,61
 463 575 463 575 473 578 c 1,62,-1
 479 570 l 1,63,64
 441 518 441 518 409 461.5 c 128,-1,65
 377 405 377 405 354 349 c 128,-1,66
 331 293 331 293 318.5 241 c 128,-1,67
 306 189 306 189 306 147 c 0,68,69
 306 95 306 95 331.5 64 c 128,-1,70
 357 33 357 33 399 33 c 0,71,72
 418 33 418 33 436.5 36 c 128,-1,73
 455 39 455 39 475.5 45.5 c 128,-1,74
 496 52 496 52 520.5 63 c 128,-1,75
 545 74 545 74 576 91 c 1,76,77
 582 113 582 113 585.5 126 c 128,-1,78
 589 139 589 139 591.5 149.5 c 128,-1,79
 594 160 594 160 596.5 170 c 128,-1,80
 599 180 599 180 603 197 c 0,81,82
 622 276 622 276 657 410 c 0,83,84
 662 429 662 429 667 450 c 128,-1,85
 672 471 672 471 677 494 c 0,86,87
 679 504 679 504 681.5 513.5 c 128,-1,88
 684 523 684 523 686 532 c 1,89,-1
 667 533 l 1,90,-1
 640 533 l 1,91,-1
 622 533 l 1,92,-1
 649 558 l 1,0,1
684 762 m 2,93,94
 687 765 687 765 690.5 767.5 c 128,-1,95
 694 770 694 770 698 773 c 1,96,97
 702 763 702 763 704.5 757.5 c 128,-1,98
 707 752 707 752 708 749 c 128,-1,99
 709 746 709 746 710 744 c 128,-1,100
 711 742 711 742 712 739 c 0,101,102
 715 733 715 733 719 726 c 128,-1,103
 723 719 723 719 732 705 c 1,104,105
 727 701 727 701 723 697.5 c 128,-1,106
 719 694 719 694 714 691 c 0,107,108
 708 686 708 686 704 683 c 128,-1,109
 700 680 700 680 695.5 676 c 128,-1,110
 691 672 691 672 684.5 666 c 128,-1,111
 678 660 678 660 667 650 c 1,112,113
 650 673 650 673 642.5 688 c 128,-1,114
 635 703 635 703 629 720 c 1,115,116
 639 727 639 727 643.5 730 c 128,-1,117
 648 733 648 733 655 738 c 2,118,-1
 684 762 l 2,93,94
565 773 m 1,119,120
 573 754 573 754 575 749.5 c 128,-1,121
 577 745 577 745 580 739 c 256,122,123
 583 733 583 733 587 726 c 128,-1,124
 591 719 591 719 599 705 c 1,125,126
 582 691 582 691 577.5 688 c 128,-1,127
 573 685 573 685 567 680 c 256,128,129
 561 675 561 675 554.5 669 c 128,-1,130
 548 663 548 663 534 650 c 1,131,132
 517 675 517 675 509.5 689 c 128,-1,133
 502 703 502 703 496 720 c 1,134,135
 506 727 506 727 512 731 c 128,-1,136
 518 735 518 735 523.5 739.5 c 128,-1,137
 529 744 529 744 535 749 c 128,-1,138
 541 754 541 754 551 762 c 2,139,-1
 565 773 l 1,119,120
EndSplineSet
EndChar

StartChar: Uacute
Encoding: 218 218 22
Width: 740
Flags: W
LayerCount: 2
Back
Fore
SplineSet
649 558 m 1,0,1
 675 561 675 561 691 562.5 c 128,-1,2
 707 564 707 564 720 565.5 c 128,-1,3
 733 567 733 567 745.5 569 c 128,-1,4
 758 571 758 571 778 574 c 1,5,6
 751 479 751 479 729 393.5 c 128,-1,7
 707 308 707 308 691.5 240.5 c 128,-1,8
 676 173 676 173 667 127 c 128,-1,9
 658 81 658 81 658 64 c 0,10,11
 658 31 658 31 693 31 c 0,12,13
 713 31 713 31 728 32 c 128,-1,14
 743 33 743 33 767 35 c 1,15,-1
 746 10 l 1,16,17
 638 -14 638 -14 593 -14 c 0,18,19
 566 -14 566 -14 566 8 c 0,20,21
 566 15 566 15 567.5 24.5 c 128,-1,22
 569 34 569 34 574 58 c 1,23,24
 528 38 528 38 492.5 24.5 c 128,-1,25
 457 11 457 11 428.5 3 c 128,-1,26
 400 -5 400 -5 377 -9 c 128,-1,27
 354 -13 354 -13 333 -13 c 0,28,29
 284 -13 284 -13 254 20.5 c 128,-1,30
 224 54 224 54 224 108 c 0,31,32
 224 143 224 143 233.5 182.5 c 128,-1,33
 243 222 243 222 262.5 269 c 128,-1,34
 282 316 282 316 313 372 c 128,-1,35
 344 428 344 428 387 496 c 1,36,37
 354 507 354 507 334.5 511 c 128,-1,38
 315 515 315 515 293 515 c 0,39,40
 243 515 243 515 210.5 488 c 128,-1,41
 178 461 178 461 178 419 c 0,42,43
 178 399 178 399 185 377.5 c 128,-1,44
 192 356 192 356 212 320 c 1,45,-1
 145 266 l 1,46,47
 128 299 128 299 122 320.5 c 128,-1,48
 116 342 116 342 116 363 c 0,49,50
 116 406 116 406 145.5 453.5 c 128,-1,51
 175 501 175 501 224 537 c 0,52,53
 272 572 272 572 340 572 c 0,54,55
 356 572 356 572 369.5 570.5 c 128,-1,56
 383 569 383 569 411 564 c 2,57,-1
 432 561 l 1,58,-1
 442 565 l 2,59,60
 455 571 455 571 459 573 c 128,-1,61
 463 575 463 575 473 578 c 1,62,-1
 479 570 l 1,63,64
 441 518 441 518 409 461.5 c 128,-1,65
 377 405 377 405 354 349 c 128,-1,66
 331 293 331 293 318.5 241 c 128,-1,67
 306 189 306 189 306 147 c 0,68,69
 306 95 306 95 331.5 64 c 128,-1,70
 357 33 357 33 399 33 c 0,71,72
 418 33 418 33 436.5 36 c 128,-1,73
 455 39 455 39 475.5 45.5 c 128,-1,74
 496 52 496 52 520.5 63 c 128,-1,75
 545 74 545 74 576 91 c 1,76,77
 582 113 582 113 585.5 126 c 128,-1,78
 589 139 589 139 591.5 149.5 c 128,-1,79
 594 160 594 160 596.5 170 c 128,-1,80
 599 180 599 180 603 197 c 0,81,82
 622 276 622 276 657 410 c 0,83,84
 662 429 662 429 667 450 c 128,-1,85
 672 471 672 471 677 494 c 0,86,87
 679 504 679 504 681.5 513.5 c 128,-1,88
 684 523 684 523 686 532 c 1,89,-1
 667 533 l 1,90,-1
 640 533 l 1,91,-1
 622 533 l 1,92,-1
 649 558 l 1,0,1
541 632 m 1,93,94
 567 665 567 665 601 712 c 128,-1,95
 635 759 635 759 679 820 c 1,96,-1
 724 799 l 1,97,98
 695 769 695 769 675.5 748.5 c 128,-1,99
 656 728 656 728 639 709.5 c 128,-1,100
 622 691 622 691 605 671.5 c 128,-1,101
 588 652 588 652 565 625 c 1,102,-1
 541 632 l 1,93,94
EndSplineSet
EndChar

StartChar: Ugrave
Encoding: 217 217 23
Width: 740
Flags: W
LayerCount: 2
Back
Fore
SplineSet
649 558 m 1,0,1
 675 561 675 561 691 562.5 c 128,-1,2
 707 564 707 564 720 565.5 c 128,-1,3
 733 567 733 567 745.5 569 c 128,-1,4
 758 571 758 571 778 574 c 1,5,6
 751 479 751 479 729 393.5 c 128,-1,7
 707 308 707 308 691.5 240.5 c 128,-1,8
 676 173 676 173 667 127 c 128,-1,9
 658 81 658 81 658 64 c 0,10,11
 658 31 658 31 693 31 c 0,12,13
 713 31 713 31 728 32 c 128,-1,14
 743 33 743 33 767 35 c 1,15,-1
 746 10 l 1,16,17
 638 -14 638 -14 593 -14 c 0,18,19
 566 -14 566 -14 566 8 c 0,20,21
 566 15 566 15 567.5 24.5 c 128,-1,22
 569 34 569 34 574 58 c 1,23,24
 528 38 528 38 492.5 24.5 c 128,-1,25
 457 11 457 11 428.5 3 c 128,-1,26
 400 -5 400 -5 377 -9 c 128,-1,27
 354 -13 354 -13 333 -13 c 0,28,29
 284 -13 284 -13 254 20.5 c 128,-1,30
 224 54 224 54 224 108 c 0,31,32
 224 143 224 143 233.5 182.5 c 128,-1,33
 243 222 243 222 262.5 269 c 128,-1,34
 282 316 282 316 313 372 c 128,-1,35
 344 428 344 428 387 496 c 1,36,37
 354 507 354 507 334.5 511 c 128,-1,38
 315 515 315 515 293 515 c 0,39,40
 243 515 243 515 210.5 488 c 128,-1,41
 178 461 178 461 178 419 c 0,42,43
 178 399 178 399 185 377.5 c 128,-1,44
 192 356 192 356 212 320 c 1,45,-1
 145 266 l 1,46,47
 128 299 128 299 122 320.5 c 128,-1,48
 116 342 116 342 116 363 c 0,49,50
 116 406 116 406 145.5 453.5 c 128,-1,51
 175 501 175 501 224 537 c 0,52,53
 272 572 272 572 340 572 c 0,54,55
 356 572 356 572 369.5 570.5 c 128,-1,56
 383 569 383 569 411 564 c 2,57,-1
 432 561 l 1,58,-1
 442 565 l 2,59,60
 455 571 455 571 459 573 c 128,-1,61
 463 575 463 575 473 578 c 1,62,-1
 479 570 l 1,63,64
 441 518 441 518 409 461.5 c 128,-1,65
 377 405 377 405 354 349 c 128,-1,66
 331 293 331 293 318.5 241 c 128,-1,67
 306 189 306 189 306 147 c 0,68,69
 306 95 306 95 331.5 64 c 128,-1,70
 357 33 357 33 399 33 c 0,71,72
 418 33 418 33 436.5 36 c 128,-1,73
 455 39 455 39 475.5 45.5 c 128,-1,74
 496 52 496 52 520.5 63 c 128,-1,75
 545 74 545 74 576 91 c 1,76,77
 582 113 582 113 585.5 126 c 128,-1,78
 589 139 589 139 591.5 149.5 c 128,-1,79
 594 160 594 160 596.5 170 c 128,-1,80
 599 180 599 180 603 197 c 0,81,82
 622 276 622 276 657 410 c 0,83,84
 662 429 662 429 667 450 c 128,-1,85
 672 471 672 471 677 494 c 0,86,87
 679 504 679 504 681.5 513.5 c 128,-1,88
 684 523 684 523 686 532 c 1,89,-1
 667 533 l 1,90,-1
 640 533 l 1,91,-1
 622 533 l 1,92,-1
 649 558 l 1,0,1
556 812 m 2,93,94
 564 815 564 815 572 820 c 1,95,96
 584 787 584 787 592 764.5 c 128,-1,97
 600 742 600 742 606.5 722.5 c 128,-1,98
 613 703 613 703 619 682 c 128,-1,99
 625 661 625 661 634 631 c 1,100,101
 625 629 625 629 621 628 c 128,-1,102
 617 627 617 627 609 625 c 1,103,104
 592 663 592 663 579.5 689 c 128,-1,105
 567 715 567 715 558 734.5 c 128,-1,106
 549 754 549 754 541.5 768 c 128,-1,107
 534 782 534 782 526 796 c 1,108,-1
 539 803 l 1,109,-1
 556 812 l 2,93,94
EndSplineSet
EndChar

StartChar: Ucircumflex
Encoding: 219 219 24
Width: 740
Flags: W
LayerCount: 2
Back
Fore
SplineSet
649 558 m 1,0,1
 675 561 675 561 691 562.5 c 128,-1,2
 707 564 707 564 720 565.5 c 128,-1,3
 733 567 733 567 745.5 569 c 128,-1,4
 758 571 758 571 778 574 c 1,5,6
 751 479 751 479 729 393.5 c 128,-1,7
 707 308 707 308 691.5 240.5 c 128,-1,8
 676 173 676 173 667 127 c 128,-1,9
 658 81 658 81 658 64 c 0,10,11
 658 31 658 31 693 31 c 0,12,13
 713 31 713 31 728 32 c 128,-1,14
 743 33 743 33 767 35 c 1,15,-1
 746 10 l 1,16,17
 638 -14 638 -14 593 -14 c 0,18,19
 566 -14 566 -14 566 8 c 0,20,21
 566 15 566 15 567.5 24.5 c 128,-1,22
 569 34 569 34 574 58 c 1,23,24
 528 38 528 38 492.5 24.5 c 128,-1,25
 457 11 457 11 428.5 3 c 128,-1,26
 400 -5 400 -5 377 -9 c 128,-1,27
 354 -13 354 -13 333 -13 c 0,28,29
 284 -13 284 -13 254 20.5 c 128,-1,30
 224 54 224 54 224 108 c 0,31,32
 224 143 224 143 233.5 182.5 c 128,-1,33
 243 222 243 222 262.5 269 c 128,-1,34
 282 316 282 316 313 372 c 128,-1,35
 344 428 344 428 387 496 c 1,36,37
 354 507 354 507 334.5 511 c 128,-1,38
 315 515 315 515 293 515 c 0,39,40
 243 515 243 515 210.5 488 c 128,-1,41
 178 461 178 461 178 419 c 0,42,43
 178 399 178 399 185 377.5 c 128,-1,44
 192 356 192 356 212 320 c 1,45,-1
 145 266 l 1,46,47
 128 299 128 299 122 320.5 c 128,-1,48
 116 342 116 342 116 363 c 0,49,50
 116 406 116 406 145.5 453.5 c 128,-1,51
 175 501 175 501 224 537 c 0,52,53
 272 572 272 572 340 572 c 0,54,55
 356 572 356 572 369.5 570.5 c 128,-1,56
 383 569 383 569 411 564 c 2,57,-1
 432 561 l 1,58,-1
 442 565 l 2,59,60
 455 571 455 571 459 573 c 128,-1,61
 463 575 463 575 473 578 c 1,62,-1
 479 570 l 1,63,64
 441 518 441 518 409 461.5 c 128,-1,65
 377 405 377 405 354 349 c 128,-1,66
 331 293 331 293 318.5 241 c 128,-1,67
 306 189 306 189 306 147 c 0,68,69
 306 95 306 95 331.5 64 c 128,-1,70
 357 33 357 33 399 33 c 0,71,72
 418 33 418 33 436.5 36 c 128,-1,73
 455 39 455 39 475.5 45.5 c 128,-1,74
 496 52 496 52 520.5 63 c 128,-1,75
 545 74 545 74 576 91 c 1,76,77
 582 113 582 113 585.5 126 c 128,-1,78
 589 139 589 139 591.5 149.5 c 128,-1,79
 594 160 594 160 596.5 170 c 128,-1,80
 599 180 599 180 603 197 c 0,81,82
 622 276 622 276 657 410 c 0,83,84
 662 429 662 429 667 450 c 128,-1,85
 672 471 672 471 677 494 c 0,86,87
 679 504 679 504 681.5 513.5 c 128,-1,88
 684 523 684 523 686 532 c 1,89,-1
 667 533 l 1,90,-1
 640 533 l 1,91,-1
 622 533 l 1,92,-1
 649 558 l 1,0,1
476 653 m 1,93,94
 516 694 516 694 542 719.5 c 128,-1,95
 568 745 568 745 586.5 762.5 c 128,-1,96
 605 780 605 780 618.5 792.5 c 128,-1,97
 632 805 632 805 649 819 c 0,98,99
 655 820 655 820 658 820.5 c 128,-1,100
 661 821 661 821 663 821 c 0,101,102
 666 821 666 821 676 819 c 1,103,104
 677 799 677 799 678 785.5 c 128,-1,105
 679 772 679 772 680 762.5 c 128,-1,106
 681 753 681 753 681.5 746.5 c 128,-1,107
 682 740 682 740 682 734 c 2,108,-1
 690 645 l 1,109,110
 680 640 680 640 674 636.5 c 128,-1,111
 668 633 668 633 654 625 c 1,112,-1
 651 648 l 1,113,-1
 645 695 l 2,114,115
 643 704 643 704 641 720 c 128,-1,116
 639 736 639 736 634 759 c 1,117,118
 622 749 622 749 612.5 741.5 c 128,-1,119
 603 734 603 734 595 727.5 c 128,-1,120
 587 721 587 721 579 714 c 128,-1,121
 571 707 571 707 561 699 c 0,122,123
 541 681 541 681 521 662.5 c 128,-1,124
 501 644 501 644 480 625 c 1,125,-1
 479 634 l 1,126,-1
 478 644 l 1,127,-1
 476 653 l 1,93,94
EndSplineSet
EndChar

StartChar: Yacute
Encoding: 221 221 25
Width: 560
Flags: W
LayerCount: 2
Back
Fore
SplineSet
66 -76 m 1,0,1
 97 -78 97 -78 111.5 -79 c 128,-1,2
 126 -80 126 -80 139 -80 c 0,3,4
 204 -80 204 -80 243 -63.5 c 128,-1,5
 282 -47 282 -47 310 -7 c 0,6,7
 330 22 330 22 349 59.5 c 128,-1,8
 368 97 368 97 381 133 c 0,9,10
 390 160 390 160 394 189 c 128,-1,11
 398 218 398 218 398 255 c 0,12,13
 398 316 398 316 388 365 c 128,-1,14
 378 414 378 414 359.5 448 c 128,-1,15
 341 482 341 482 314 500.5 c 128,-1,16
 287 519 287 519 254 519 c 0,17,18
 231 519 231 519 211 509.5 c 128,-1,19
 191 500 191 500 176.5 483 c 128,-1,20
 162 466 162 466 153.5 443 c 128,-1,21
 145 420 145 420 145 393 c 0,22,23
 145 382 145 382 146 371.5 c 128,-1,24
 147 361 147 361 149 349.5 c 128,-1,25
 151 338 151 338 155 324.5 c 128,-1,26
 159 311 159 311 165 293 c 1,27,-1
 89 245 l 1,28,29
 68 291 68 291 68 336 c 0,30,31
 68 379 68 379 91 421.5 c 128,-1,32
 114 464 114 464 150.5 498.5 c 128,-1,33
 187 533 187 533 232.5 554.5 c 128,-1,34
 278 576 278 576 323 576 c 0,35,36
 387 576 387 576 424 519 c 128,-1,37
 461 462 461 462 461 363 c 0,38,39
 461 338 461 338 458.5 315.5 c 128,-1,40
 456 293 456 293 450 253 c 1,41,42
 499 356 499 356 537 424.5 c 128,-1,43
 575 493 575 493 606 534 c 128,-1,44
 637 575 637 575 665 591.5 c 128,-1,45
 693 608 693 608 723 608 c 0,46,47
 736 608 736 608 744 605 c 128,-1,48
 752 602 752 602 763 592 c 1,49,-1
 735 519 l 1,50,51
 718 526 718 526 707.5 528.5 c 128,-1,52
 697 531 697 531 685 531 c 0,53,54
 661 531 661 531 641.5 517 c 128,-1,55
 622 503 622 503 599 469 c 0,56,57
 589 454 589 454 580 439.5 c 128,-1,58
 571 425 571 425 556.5 398 c 128,-1,59
 542 371 542 371 519 325 c 128,-1,60
 496 279 496 279 458 202 c 0,61,62
 418 121 418 121 387 63 c 128,-1,63
 356 5 356 5 329 -34.5 c 128,-1,64
 302 -74 302 -74 277 -97 c 128,-1,65
 252 -120 252 -120 223.5 -132.5 c 128,-1,66
 195 -145 195 -145 159.5 -148.5 c 128,-1,67
 124 -152 124 -152 77 -152 c 0,68,69
 63 -152 63 -152 54.5 -152 c 128,-1,70
 46 -152 46 -152 31 -150 c 1,71,-1
 66 -76 l 1,0,1
498 632 m 1,72,73
 524 665 524 665 558 712 c 128,-1,74
 592 759 592 759 636 820 c 1,75,-1
 681 799 l 1,76,77
 652 769 652 769 632.5 748.5 c 128,-1,78
 613 728 613 728 596 709.5 c 128,-1,79
 579 691 579 691 562 671.5 c 128,-1,80
 545 652 545 652 522 625 c 1,81,-1
 498 632 l 1,72,73
EndSplineSet
EndChar

StartChar: Zcaron
Encoding: 381 381 26
Width: 620
Flags: W
LayerCount: 2
Back
Fore
SplineSet
656 272 m 1,0,1
 667 245 667 245 671 226.5 c 128,-1,2
 675 208 675 208 675 186 c 0,3,4
 675 173 675 173 673.5 163.5 c 128,-1,5
 672 154 672 154 668 144.5 c 128,-1,6
 664 135 664 135 657 124.5 c 128,-1,7
 650 114 650 114 639 101 c 2,8,-1
 616 72 l 2,9,10
 605 58 605 58 597.5 48.5 c 128,-1,11
 590 39 590 39 585 33 c 128,-1,12
 580 27 580 27 576 22.5 c 128,-1,13
 572 18 572 18 567 14 c 0,14,15
 538 -13 538 -13 498 -13 c 0,16,17
 478 -13 478 -13 413 -7.5 c 128,-1,18
 348 -2 348 -2 254 8 c 0,19,20
 225 11 225 11 200 12.5 c 128,-1,21
 175 14 175 14 155 14 c 0,22,23
 126 14 126 14 106 7 c 128,-1,24
 86 0 86 0 62 -18 c 1,25,-1
 62 19 l 1,26,27
 80 35 80 35 117.5 71 c 128,-1,28
 155 107 155 107 213 164 c 2,29,-1
 552 503 l 1,30,31
 534 500 534 500 520 498 c 128,-1,32
 506 496 506 496 493.5 495 c 128,-1,33
 481 494 481 494 467.5 493.5 c 128,-1,34
 454 493 454 493 437 493 c 0,35,36
 423 493 423 493 411 493 c 128,-1,37
 399 493 399 493 387.5 494 c 128,-1,38
 376 495 376 495 363 496.5 c 128,-1,39
 350 498 350 498 334 500 c 0,40,41
 326 501 326 501 319 501.5 c 128,-1,42
 312 502 312 502 307 502 c 0,43,44
 295 502 295 502 287 499 c 128,-1,45
 279 496 279 496 268.5 483 c 128,-1,46
 258 470 258 470 242.5 444 c 128,-1,47
 227 418 227 418 201 372 c 1,48,-1
 184 397 l 1,49,50
 214 465 214 465 231 502 c 128,-1,51
 248 539 248 539 258.5 556 c 128,-1,52
 269 573 269 573 275.5 576 c 128,-1,53
 282 579 282 579 293 579 c 0,54,55
 297 579 297 579 299.5 579 c 128,-1,56
 302 579 302 579 308 578.5 c 128,-1,57
 314 578 314 578 325 576.5 c 128,-1,58
 336 575 336 575 356 573 c 0,59,60
 367 572 367 572 397 569.5 c 128,-1,61
 427 567 427 567 475 562 c 0,62,63
 504 559 504 559 524.5 557.5 c 128,-1,64
 545 556 545 556 556 556 c 0,65,66
 583 556 583 556 606 565 c 128,-1,67
 629 574 629 574 655 597 c 1,68,-1
 655 568 l 1,69,-1
 172 76 l 1,70,-1
 204 81 l 1,71,-1
 223 81 l 1,72,-1
 240 81 l 2,73,74
 251 81 251 81 261.5 80.5 c 128,-1,75
 272 80 272 80 286.5 79.5 c 128,-1,76
 301 79 301 79 321.5 77 c 128,-1,77
 342 75 342 75 374 72 c 0,78,79
 422 67 422 67 454.5 65.5 c 128,-1,80
 487 64 487 64 517 64 c 0,81,82
 613 64 613 64 613 143 c 0,83,84
 613 160 613 160 609 172.5 c 128,-1,85
 605 185 605 185 593 206 c 2,86,-1
 581 227 l 1,87,-1
 656 272 l 1,0,1
640 793 m 1,88,89
 602 755 602 755 577 729.5 c 128,-1,90
 552 704 552 704 533 686 c 128,-1,91
 514 668 514 668 499 655 c 128,-1,92
 484 642 484 642 467 627 c 0,93,94
 460 625 460 625 457.5 624.5 c 128,-1,95
 455 624 455 624 453 624 c 0,96,97
 447 624 447 624 440 627 c 1,98,99
 437 675 437 675 433.5 718 c 128,-1,100
 430 761 430 761 427 800 c 1,101,102
 443 809 443 809 447.5 812 c 128,-1,103
 452 815 452 815 462 821 c 1,104,105
 466 788 466 788 469 768.5 c 128,-1,106
 472 749 472 749 473.5 736 c 128,-1,107
 475 723 475 723 477 712.5 c 128,-1,108
 479 702 479 702 482 687 c 1,109,110
 503 703 503 703 516.5 714 c 128,-1,111
 530 725 530 725 542 735.5 c 128,-1,112
 554 746 554 746 568.5 759 c 128,-1,113
 583 772 583 772 607 794 c 0,114,115
 614 801 614 801 621 807.5 c 128,-1,116
 628 814 628 814 636 821 c 1,117,-1
 637 811 l 1,118,-1
 638 802 l 1,119,-1
 640 793 l 1,88,89
EndSplineSet
EndChar

StartChar: Ydieresis
Encoding: 376 376 27
Width: 560
Flags: W
LayerCount: 2
Back
Fore
SplineSet
66 -76 m 1,0,1
 97 -78 97 -78 111.5 -79 c 128,-1,2
 126 -80 126 -80 139 -80 c 0,3,4
 204 -80 204 -80 243 -63.5 c 128,-1,5
 282 -47 282 -47 310 -7 c 0,6,7
 330 22 330 22 349 59.5 c 128,-1,8
 368 97 368 97 381 133 c 0,9,10
 390 160 390 160 394 189 c 128,-1,11
 398 218 398 218 398 255 c 0,12,13
 398 316 398 316 388 365 c 128,-1,14
 378 414 378 414 359.5 448 c 128,-1,15
 341 482 341 482 314 500.5 c 128,-1,16
 287 519 287 519 254 519 c 0,17,18
 231 519 231 519 211 509.5 c 128,-1,19
 191 500 191 500 176.5 483 c 128,-1,20
 162 466 162 466 153.5 443 c 128,-1,21
 145 420 145 420 145 393 c 0,22,23
 145 382 145 382 146 371.5 c 128,-1,24
 147 361 147 361 149 349.5 c 128,-1,25
 151 338 151 338 155 324.5 c 128,-1,26
 159 311 159 311 165 293 c 1,27,-1
 89 245 l 1,28,29
 68 291 68 291 68 336 c 0,30,31
 68 379 68 379 91 421.5 c 128,-1,32
 114 464 114 464 150.5 498.5 c 128,-1,33
 187 533 187 533 232.5 554.5 c 128,-1,34
 278 576 278 576 323 576 c 0,35,36
 387 576 387 576 424 519 c 128,-1,37
 461 462 461 462 461 363 c 0,38,39
 461 338 461 338 458.5 315.5 c 128,-1,40
 456 293 456 293 450 253 c 1,41,42
 499 356 499 356 537 424.5 c 128,-1,43
 575 493 575 493 606 534 c 128,-1,44
 637 575 637 575 665 591.5 c 128,-1,45
 693 608 693 608 723 608 c 0,46,47
 736 608 736 608 744 605 c 128,-1,48
 752 602 752 602 763 592 c 1,49,-1
 735 519 l 1,50,51
 718 526 718 526 707.5 528.5 c 128,-1,52
 697 531 697 531 685 531 c 0,53,54
 661 531 661 531 641.5 517 c 128,-1,55
 622 503 622 503 599 469 c 0,56,57
 589 454 589 454 580 439.5 c 128,-1,58
 571 425 571 425 556.5 398 c 128,-1,59
 542 371 542 371 519 325 c 128,-1,60
 496 279 496 279 458 202 c 0,61,62
 418 121 418 121 387 63 c 128,-1,63
 356 5 356 5 329 -34.5 c 128,-1,64
 302 -74 302 -74 277 -97 c 128,-1,65
 252 -120 252 -120 223.5 -132.5 c 128,-1,66
 195 -145 195 -145 159.5 -148.5 c 128,-1,67
 124 -152 124 -152 77 -152 c 0,68,69
 63 -152 63 -152 54.5 -152 c 128,-1,70
 46 -152 46 -152 31 -150 c 1,71,-1
 66 -76 l 1,0,1
604 762 m 2,72,73
 607 765 607 765 610.5 767.5 c 128,-1,74
 614 770 614 770 618 773 c 1,75,76
 622 763 622 763 624.5 757.5 c 128,-1,77
 627 752 627 752 628 749 c 128,-1,78
 629 746 629 746 630 744 c 128,-1,79
 631 742 631 742 632 739 c 0,80,81
 635 733 635 733 639 726 c 128,-1,82
 643 719 643 719 652 705 c 1,83,84
 647 701 647 701 643 697.5 c 128,-1,85
 639 694 639 694 634 691 c 0,86,87
 628 686 628 686 624 683 c 128,-1,88
 620 680 620 680 615.5 676 c 128,-1,89
 611 672 611 672 604.5 666 c 128,-1,90
 598 660 598 660 587 650 c 1,91,92
 570 673 570 673 562.5 688 c 128,-1,93
 555 703 555 703 549 720 c 1,94,95
 559 727 559 727 563.5 730 c 128,-1,96
 568 733 568 733 575 738 c 2,97,-1
 604 762 l 2,72,73
485 773 m 1,98,99
 493 754 493 754 495 749.5 c 128,-1,100
 497 745 497 745 500 739 c 256,101,102
 503 733 503 733 507 726 c 128,-1,103
 511 719 511 719 519 705 c 1,104,105
 502 691 502 691 497.5 688 c 128,-1,106
 493 685 493 685 487 680 c 256,107,108
 481 675 481 675 474.5 669 c 128,-1,109
 468 663 468 663 454 650 c 1,110,111
 437 675 437 675 429.5 689 c 128,-1,112
 422 703 422 703 416 720 c 1,113,114
 426 727 426 727 432 731 c 128,-1,115
 438 735 438 735 443.5 739.5 c 128,-1,116
 449 744 449 744 455 749 c 128,-1,117
 461 754 461 754 471 762 c 2,118,-1
 485 773 l 1,98,99
EndSplineSet
EndChar

StartChar: adieresis
Encoding: 228 228 28
Width: 420
Flags: W
LayerCount: 2
Back
Fore
SplineSet
491 101 m 1,0,1
 477 91 477 91 466 83 c 128,-1,2
 455 75 455 75 445 68 c 128,-1,3
 435 61 435 61 424.5 54 c 128,-1,4
 414 47 414 47 401 38 c 0,5,6
 374 20 374 20 358 10 c 128,-1,7
 342 0 342 0 333 -5 c 128,-1,8
 324 -10 324 -10 319 -11.5 c 128,-1,9
 314 -13 314 -13 309 -13 c 0,10,11
 293 -13 293 -13 293 7 c 0,12,13
 293 18 293 18 296.5 38.5 c 128,-1,14
 300 59 300 59 308 97 c 1,15,16
 261 63 261 63 230 41.5 c 128,-1,17
 199 20 199 20 179 8 c 128,-1,18
 159 -4 159 -4 147.5 -8.5 c 128,-1,19
 136 -13 136 -13 128 -13 c 0,20,21
 109 -13 109 -13 98 9 c 128,-1,22
 87 31 87 31 87 67 c 0,23,24
 87 97 87 97 94 135 c 128,-1,25
 101 173 101 173 112 210 c 128,-1,26
 123 247 123 247 137.5 278 c 128,-1,27
 152 309 152 309 166 325 c 0,28,29
 171 331 171 331 181.5 339 c 128,-1,30
 192 347 192 347 205 356.5 c 128,-1,31
 218 366 218 366 232 375.5 c 128,-1,32
 246 385 246 385 260 393 c 0,33,34
 277 403 277 403 295 407 c 128,-1,35
 313 411 313 411 342 411 c 0,36,37
 375 411 375 411 404 407.5 c 128,-1,38
 433 404 433 404 469 396 c 1,39,40
 463 389 463 389 459.5 385 c 128,-1,41
 456 381 456 381 453 377 c 128,-1,42
 450 373 450 373 447 369.5 c 128,-1,43
 444 366 444 366 440 360 c 0,44,45
 426 309 426 309 415 264.5 c 128,-1,46
 404 220 404 220 396.5 184.5 c 128,-1,47
 389 149 389 149 384.5 125 c 128,-1,48
 380 101 380 101 380 91 c 0,49,50
 380 71 380 71 392 71 c 0,51,52
 396 71 396 71 401.5 73 c 128,-1,53
 407 75 407 75 417.5 81.5 c 128,-1,54
 428 88 428 88 445.5 99.5 c 128,-1,55
 463 111 463 111 492 130 c 1,56,-1
 491 101 l 1,0,1
325 172 m 1,57,-1
 342 248 l 2,58,59
 343 254 343 254 345 261 c 128,-1,60
 347 268 347 268 350 279.5 c 128,-1,61
 353 291 353 291 358 308 c 128,-1,62
 363 325 363 325 370 352 c 1,63,64
 343 359 343 359 320.5 362 c 128,-1,65
 298 365 298 365 284 365 c 0,66,67
 258 365 258 365 239.5 347 c 128,-1,68
 221 329 221 329 203 285 c 0,69,70
 185 242 185 242 174.5 197 c 128,-1,71
 164 152 164 152 164 114 c 0,72,73
 164 64 164 64 190 64 c 0,74,75
 204 64 204 64 228 78 c 128,-1,76
 252 92 252 92 297 124 c 2,77,-1
 316 137 l 1,78,-1
 325 172 l 1,57,-1
441 601 m 2,79,80
 444 604 444 604 447.5 606.5 c 128,-1,81
 451 609 451 609 455 612 c 1,82,83
 459 602 459 602 461.5 596.5 c 128,-1,84
 464 591 464 591 465 588 c 128,-1,85
 466 585 466 585 467 583 c 128,-1,86
 468 581 468 581 469 578 c 0,87,88
 472 572 472 572 476 565 c 128,-1,89
 480 558 480 558 489 544 c 1,90,91
 484 540 484 540 480 536.5 c 128,-1,92
 476 533 476 533 471 530 c 0,93,94
 465 525 465 525 461 522 c 128,-1,95
 457 519 457 519 452.5 515 c 128,-1,96
 448 511 448 511 441.5 505 c 128,-1,97
 435 499 435 499 424 489 c 1,98,99
 407 512 407 512 399.5 527 c 128,-1,100
 392 542 392 542 386 559 c 1,101,102
 396 566 396 566 400.5 569 c 128,-1,103
 405 572 405 572 412 577 c 2,104,-1
 441 601 l 2,79,80
291 489 m 1,105,106
 274 514 274 514 266.5 528 c 128,-1,107
 259 542 259 542 253 559 c 1,108,109
 263 566 263 566 269 570 c 128,-1,110
 275 574 275 574 280.5 578.5 c 128,-1,111
 286 583 286 583 292 588 c 128,-1,112
 298 593 298 593 308 601 c 0,113,114
 312 604 312 604 315 607 c 128,-1,115
 318 610 318 610 322 612 c 1,116,117
 326 602 326 602 328.5 596.5 c 128,-1,118
 331 591 331 591 332.5 588 c 128,-1,119
 334 585 334 585 334.5 583 c 128,-1,120
 335 581 335 581 337 578 c 0,121,122
 340 572 340 572 344 565 c 128,-1,123
 348 558 348 558 356 544 c 1,124,125
 339 530 339 530 334.5 527 c 128,-1,126
 330 524 330 524 324 519 c 256,127,128
 318 514 318 514 311.5 508 c 128,-1,129
 305 502 305 502 291 489 c 1,105,106
EndSplineSet
EndChar

StartChar: aacute
Encoding: 225 225 29
Width: 420
Flags: W
LayerCount: 2
Back
Fore
SplineSet
491 101 m 1,0,1
 477 91 477 91 466 83 c 128,-1,2
 455 75 455 75 445 68 c 128,-1,3
 435 61 435 61 424.5 54 c 128,-1,4
 414 47 414 47 401 38 c 0,5,6
 374 20 374 20 358 10 c 128,-1,7
 342 0 342 0 333 -5 c 128,-1,8
 324 -10 324 -10 319 -11.5 c 128,-1,9
 314 -13 314 -13 309 -13 c 0,10,11
 293 -13 293 -13 293 7 c 0,12,13
 293 18 293 18 296.5 38.5 c 128,-1,14
 300 59 300 59 308 97 c 1,15,16
 261 63 261 63 230 41.5 c 128,-1,17
 199 20 199 20 179 8 c 128,-1,18
 159 -4 159 -4 147.5 -8.5 c 128,-1,19
 136 -13 136 -13 128 -13 c 0,20,21
 109 -13 109 -13 98 9 c 128,-1,22
 87 31 87 31 87 67 c 0,23,24
 87 97 87 97 94 135 c 128,-1,25
 101 173 101 173 112 210 c 128,-1,26
 123 247 123 247 137.5 278 c 128,-1,27
 152 309 152 309 166 325 c 0,28,29
 171 331 171 331 181.5 339 c 128,-1,30
 192 347 192 347 205 356.5 c 128,-1,31
 218 366 218 366 232 375.5 c 128,-1,32
 246 385 246 385 260 393 c 0,33,34
 277 403 277 403 295 407 c 128,-1,35
 313 411 313 411 342 411 c 0,36,37
 375 411 375 411 404 407.5 c 128,-1,38
 433 404 433 404 469 396 c 1,39,40
 463 389 463 389 459.5 385 c 128,-1,41
 456 381 456 381 453 377 c 128,-1,42
 450 373 450 373 447 369.5 c 128,-1,43
 444 366 444 366 440 360 c 0,44,45
 426 309 426 309 415 264.5 c 128,-1,46
 404 220 404 220 396.5 184.5 c 128,-1,47
 389 149 389 149 384.5 125 c 128,-1,48
 380 101 380 101 380 91 c 0,49,50
 380 71 380 71 392 71 c 0,51,52
 396 71 396 71 401.5 73 c 128,-1,53
 407 75 407 75 417.5 81.5 c 128,-1,54
 428 88 428 88 445.5 99.5 c 128,-1,55
 463 111 463 111 492 130 c 1,56,-1
 491 101 l 1,0,1
325 172 m 1,57,-1
 342 248 l 2,58,59
 343 254 343 254 345 261 c 128,-1,60
 347 268 347 268 350 279.5 c 128,-1,61
 353 291 353 291 358 308 c 128,-1,62
 363 325 363 325 370 352 c 1,63,64
 343 359 343 359 320.5 362 c 128,-1,65
 298 365 298 365 284 365 c 0,66,67
 258 365 258 365 239.5 347 c 128,-1,68
 221 329 221 329 203 285 c 0,69,70
 185 242 185 242 174.5 197 c 128,-1,71
 164 152 164 152 164 114 c 0,72,73
 164 64 164 64 190 64 c 0,74,75
 204 64 204 64 228 78 c 128,-1,76
 252 92 252 92 297 124 c 2,77,-1
 316 137 l 1,78,-1
 325 172 l 1,57,-1
298 466 m 1,79,80
 349 533 349 533 436 655 c 1,81,-1
 481 633 l 1,82,83
 452 604 452 604 432.5 583.5 c 128,-1,84
 413 563 413 563 396 544.5 c 128,-1,85
 379 526 379 526 362 506.5 c 128,-1,86
 345 487 345 487 322 460 c 1,87,-1
 298 466 l 1,79,80
EndSplineSet
EndChar

StartChar: agrave
Encoding: 224 224 30
Width: 420
Flags: W
LayerCount: 2
Back
Fore
SplineSet
491 101 m 1,0,1
 477 91 477 91 466 83 c 128,-1,2
 455 75 455 75 445 68 c 128,-1,3
 435 61 435 61 424.5 54 c 128,-1,4
 414 47 414 47 401 38 c 0,5,6
 374 20 374 20 358 10 c 128,-1,7
 342 0 342 0 333 -5 c 128,-1,8
 324 -10 324 -10 319 -11.5 c 128,-1,9
 314 -13 314 -13 309 -13 c 0,10,11
 293 -13 293 -13 293 7 c 0,12,13
 293 18 293 18 296.5 38.5 c 128,-1,14
 300 59 300 59 308 97 c 1,15,16
 261 63 261 63 230 41.5 c 128,-1,17
 199 20 199 20 179 8 c 128,-1,18
 159 -4 159 -4 147.5 -8.5 c 128,-1,19
 136 -13 136 -13 128 -13 c 0,20,21
 109 -13 109 -13 98 9 c 128,-1,22
 87 31 87 31 87 67 c 0,23,24
 87 97 87 97 94 135 c 128,-1,25
 101 173 101 173 112 210 c 128,-1,26
 123 247 123 247 137.5 278 c 128,-1,27
 152 309 152 309 166 325 c 0,28,29
 171 331 171 331 181.5 339 c 128,-1,30
 192 347 192 347 205 356.5 c 128,-1,31
 218 366 218 366 232 375.5 c 128,-1,32
 246 385 246 385 260 393 c 0,33,34
 277 403 277 403 295 407 c 128,-1,35
 313 411 313 411 342 411 c 0,36,37
 375 411 375 411 404 407.5 c 128,-1,38
 433 404 433 404 469 396 c 1,39,40
 463 389 463 389 459.5 385 c 128,-1,41
 456 381 456 381 453 377 c 128,-1,42
 450 373 450 373 447 369.5 c 128,-1,43
 444 366 444 366 440 360 c 0,44,45
 426 309 426 309 415 264.5 c 128,-1,46
 404 220 404 220 396.5 184.5 c 128,-1,47
 389 149 389 149 384.5 125 c 128,-1,48
 380 101 380 101 380 91 c 0,49,50
 380 71 380 71 392 71 c 0,51,52
 396 71 396 71 401.5 73 c 128,-1,53
 407 75 407 75 417.5 81.5 c 128,-1,54
 428 88 428 88 445.5 99.5 c 128,-1,55
 463 111 463 111 492 130 c 1,56,-1
 491 101 l 1,0,1
325 172 m 1,57,-1
 342 248 l 2,58,59
 343 254 343 254 345 261 c 128,-1,60
 347 268 347 268 350 279.5 c 128,-1,61
 353 291 353 291 358 308 c 128,-1,62
 363 325 363 325 370 352 c 1,63,64
 343 359 343 359 320.5 362 c 128,-1,65
 298 365 298 365 284 365 c 0,66,67
 258 365 258 365 239.5 347 c 128,-1,68
 221 329 221 329 203 285 c 0,69,70
 185 242 185 242 174.5 197 c 128,-1,71
 164 152 164 152 164 114 c 0,72,73
 164 64 164 64 190 64 c 0,74,75
 204 64 204 64 228 78 c 128,-1,76
 252 92 252 92 297 124 c 2,77,-1
 316 137 l 1,78,-1
 325 172 l 1,57,-1
339 655 m 1,79,80
 351 622 351 622 359 599.5 c 128,-1,81
 367 577 367 577 373.5 557 c 128,-1,82
 380 537 380 537 386 516 c 128,-1,83
 392 495 392 495 401 466 c 1,84,85
 392 463 392 463 388 462.5 c 128,-1,86
 384 462 384 462 376 460 c 1,87,88
 359 497 359 497 346.5 523.5 c 128,-1,89
 334 550 334 550 325 569 c 128,-1,90
 316 588 316 588 308.5 602 c 128,-1,91
 301 616 301 616 293 630 c 1,92,-1
 306 637 l 1,93,-1
 323 646 l 1,94,-1
 339 655 l 1,79,80
EndSplineSet
EndChar

StartChar: acircumflex
Encoding: 226 226 31
Width: 420
Flags: W
LayerCount: 2
Back
Fore
SplineSet
491 101 m 1,0,1
 477 91 477 91 466 83 c 128,-1,2
 455 75 455 75 445 68 c 128,-1,3
 435 61 435 61 424.5 54 c 128,-1,4
 414 47 414 47 401 38 c 0,5,6
 374 20 374 20 358 10 c 128,-1,7
 342 0 342 0 333 -5 c 128,-1,8
 324 -10 324 -10 319 -11.5 c 128,-1,9
 314 -13 314 -13 309 -13 c 0,10,11
 293 -13 293 -13 293 7 c 0,12,13
 293 18 293 18 296.5 38.5 c 128,-1,14
 300 59 300 59 308 97 c 1,15,16
 261 63 261 63 230 41.5 c 128,-1,17
 199 20 199 20 179 8 c 128,-1,18
 159 -4 159 -4 147.5 -8.5 c 128,-1,19
 136 -13 136 -13 128 -13 c 0,20,21
 109 -13 109 -13 98 9 c 128,-1,22
 87 31 87 31 87 67 c 0,23,24
 87 97 87 97 94 135 c 128,-1,25
 101 173 101 173 112 210 c 128,-1,26
 123 247 123 247 137.5 278 c 128,-1,27
 152 309 152 309 166 325 c 0,28,29
 171 331 171 331 181.5 339 c 128,-1,30
 192 347 192 347 205 356.5 c 128,-1,31
 218 366 218 366 232 375.5 c 128,-1,32
 246 385 246 385 260 393 c 0,33,34
 277 403 277 403 295 407 c 128,-1,35
 313 411 313 411 342 411 c 0,36,37
 375 411 375 411 404 407.5 c 128,-1,38
 433 404 433 404 469 396 c 1,39,40
 463 389 463 389 459.5 385 c 128,-1,41
 456 381 456 381 453 377 c 128,-1,42
 450 373 450 373 447 369.5 c 128,-1,43
 444 366 444 366 440 360 c 0,44,45
 426 309 426 309 415 264.5 c 128,-1,46
 404 220 404 220 396.5 184.5 c 128,-1,47
 389 149 389 149 384.5 125 c 128,-1,48
 380 101 380 101 380 91 c 0,49,50
 380 71 380 71 392 71 c 0,51,52
 396 71 396 71 401.5 73 c 128,-1,53
 407 75 407 75 417.5 81.5 c 128,-1,54
 428 88 428 88 445.5 99.5 c 128,-1,55
 463 111 463 111 492 130 c 1,56,-1
 491 101 l 1,0,1
325 172 m 1,57,-1
 342 248 l 2,58,59
 343 254 343 254 345 261 c 128,-1,60
 347 268 347 268 350 279.5 c 128,-1,61
 353 291 353 291 358 308 c 128,-1,62
 363 325 363 325 370 352 c 1,63,64
 343 359 343 359 320.5 362 c 128,-1,65
 298 365 298 365 284 365 c 0,66,67
 258 365 258 365 239.5 347 c 128,-1,68
 221 329 221 329 203 285 c 0,69,70
 185 242 185 242 174.5 197 c 128,-1,71
 164 152 164 152 164 114 c 0,72,73
 164 64 164 64 190 64 c 0,74,75
 204 64 204 64 228 78 c 128,-1,76
 252 92 252 92 297 124 c 2,77,-1
 316 137 l 1,78,-1
 325 172 l 1,57,-1
243 488 m 1,79,80
 283 529 283 529 309 554.5 c 128,-1,81
 335 580 335 580 353.5 597.5 c 128,-1,82
 372 615 372 615 385.5 627.5 c 128,-1,83
 399 640 399 640 416 654 c 0,84,85
 422 655 422 655 425 655.5 c 128,-1,86
 428 656 428 656 430 656 c 0,87,88
 433 656 433 656 443 654 c 1,89,90
 444 634 444 634 445 620.5 c 128,-1,91
 446 607 446 607 447 597.5 c 128,-1,92
 448 588 448 588 448.5 581.5 c 128,-1,93
 449 575 449 575 449 569 c 0,94,95
 451 548 451 548 453 525 c 128,-1,96
 455 502 455 502 457 480 c 1,97,98
 447 475 447 475 441 471.5 c 128,-1,99
 435 468 435 468 421 460 c 1,100,-1
 418 483 l 1,101,-1
 412 530 l 2,102,103
 410 539 410 539 408 555 c 128,-1,104
 406 571 406 571 401 594 c 1,105,106
 389 584 389 584 379.5 576.5 c 128,-1,107
 370 569 370 569 362 562.5 c 128,-1,108
 354 556 354 556 346 549 c 128,-1,109
 338 542 338 542 328 534 c 0,110,111
 307 514 307 514 287 496 c 128,-1,112
 267 478 267 478 247 460 c 1,113,-1
 246 469 l 1,114,-1
 245 479 l 1,115,-1
 243 488 l 1,79,80
EndSplineSet
EndChar

StartChar: atilde
Encoding: 227 227 32
Width: 420
Flags: W
LayerCount: 2
Back
Fore
SplineSet
491 101 m 1,0,1
 477 91 477 91 466 83 c 128,-1,2
 455 75 455 75 445 68 c 128,-1,3
 435 61 435 61 424.5 54 c 128,-1,4
 414 47 414 47 401 38 c 0,5,6
 374 20 374 20 358 10 c 128,-1,7
 342 0 342 0 333 -5 c 128,-1,8
 324 -10 324 -10 319 -11.5 c 128,-1,9
 314 -13 314 -13 309 -13 c 0,10,11
 293 -13 293 -13 293 7 c 0,12,13
 293 18 293 18 296.5 38.5 c 128,-1,14
 300 59 300 59 308 97 c 1,15,16
 261 63 261 63 230 41.5 c 128,-1,17
 199 20 199 20 179 8 c 128,-1,18
 159 -4 159 -4 147.5 -8.5 c 128,-1,19
 136 -13 136 -13 128 -13 c 0,20,21
 109 -13 109 -13 98 9 c 128,-1,22
 87 31 87 31 87 67 c 0,23,24
 87 97 87 97 94 135 c 128,-1,25
 101 173 101 173 112 210 c 128,-1,26
 123 247 123 247 137.5 278 c 128,-1,27
 152 309 152 309 166 325 c 0,28,29
 171 331 171 331 181.5 339 c 128,-1,30
 192 347 192 347 205 356.5 c 128,-1,31
 218 366 218 366 232 375.5 c 128,-1,32
 246 385 246 385 260 393 c 0,33,34
 277 403 277 403 295 407 c 128,-1,35
 313 411 313 411 342 411 c 0,36,37
 375 411 375 411 404 407.5 c 128,-1,38
 433 404 433 404 469 396 c 1,39,40
 463 389 463 389 459.5 385 c 128,-1,41
 456 381 456 381 453 377 c 128,-1,42
 450 373 450 373 447 369.5 c 128,-1,43
 444 366 444 366 440 360 c 0,44,45
 426 309 426 309 415 264.5 c 128,-1,46
 404 220 404 220 396.5 184.5 c 128,-1,47
 389 149 389 149 384.5 125 c 128,-1,48
 380 101 380 101 380 91 c 0,49,50
 380 71 380 71 392 71 c 0,51,52
 396 71 396 71 401.5 73 c 128,-1,53
 407 75 407 75 417.5 81.5 c 128,-1,54
 428 88 428 88 445.5 99.5 c 128,-1,55
 463 111 463 111 492 130 c 1,56,-1
 491 101 l 1,0,1
325 172 m 1,57,-1
 342 248 l 2,58,59
 343 254 343 254 345 261 c 128,-1,60
 347 268 347 268 350 279.5 c 128,-1,61
 353 291 353 291 358 308 c 128,-1,62
 363 325 363 325 370 352 c 1,63,64
 343 359 343 359 320.5 362 c 128,-1,65
 298 365 298 365 284 365 c 0,66,67
 258 365 258 365 239.5 347 c 128,-1,68
 221 329 221 329 203 285 c 0,69,70
 185 242 185 242 174.5 197 c 128,-1,71
 164 152 164 152 164 114 c 0,72,73
 164 64 164 64 190 64 c 0,74,75
 204 64 204 64 228 78 c 128,-1,76
 252 92 252 92 297 124 c 2,77,-1
 316 137 l 1,78,-1
 325 172 l 1,57,-1
183 512 m 1,79,80
 220 561 220 561 242 579.5 c 128,-1,81
 264 598 264 598 288 598 c 0,82,83
 295 598 295 598 301.5 597 c 128,-1,84
 308 596 308 596 315.5 593.5 c 128,-1,85
 323 591 323 591 332.5 586 c 128,-1,86
 342 581 342 581 356 573 c 0,87,88
 373 564 373 564 388 558.5 c 128,-1,89
 403 553 403 553 413 553 c 0,90,91
 448 553 448 553 489 591 c 2,92,-1
 503 604 l 1,93,-1
 513 586 l 1,94,95
 493 561 493 561 478.5 545 c 128,-1,96
 464 529 464 529 452.5 519.5 c 128,-1,97
 441 510 441 510 430.5 506.5 c 128,-1,98
 420 503 420 503 409 503 c 0,99,100
 400 503 400 503 392.5 504 c 128,-1,101
 385 505 385 505 376 508.5 c 128,-1,102
 367 512 367 512 354.5 518.5 c 128,-1,103
 342 525 342 525 323 536 c 0,104,105
 293 553 293 553 273 553 c 0,106,107
 254 553 254 553 239 541 c 128,-1,108
 224 529 224 529 196 494 c 1,109,-1
 183 512 l 1,79,80
EndSplineSet
EndChar

StartChar: aring
Encoding: 229 229 33
Width: 420
Flags: W
LayerCount: 2
Back
Fore
SplineSet
491 101 m 1,0,1
 477 91 477 91 466 83 c 128,-1,2
 455 75 455 75 445 68 c 128,-1,3
 435 61 435 61 424.5 54 c 128,-1,4
 414 47 414 47 401 38 c 0,5,6
 374 20 374 20 358 10 c 128,-1,7
 342 0 342 0 333 -5 c 128,-1,8
 324 -10 324 -10 319 -11.5 c 128,-1,9
 314 -13 314 -13 309 -13 c 0,10,11
 293 -13 293 -13 293 7 c 0,12,13
 293 18 293 18 296.5 38.5 c 128,-1,14
 300 59 300 59 308 97 c 1,15,16
 261 63 261 63 230 41.5 c 128,-1,17
 199 20 199 20 179 8 c 128,-1,18
 159 -4 159 -4 147.5 -8.5 c 128,-1,19
 136 -13 136 -13 128 -13 c 0,20,21
 109 -13 109 -13 98 9 c 128,-1,22
 87 31 87 31 87 67 c 0,23,24
 87 97 87 97 94 135 c 128,-1,25
 101 173 101 173 112 210 c 128,-1,26
 123 247 123 247 137.5 278 c 128,-1,27
 152 309 152 309 166 325 c 0,28,29
 171 331 171 331 181.5 339 c 128,-1,30
 192 347 192 347 205 356.5 c 128,-1,31
 218 366 218 366 232 375.5 c 128,-1,32
 246 385 246 385 260 393 c 0,33,34
 277 403 277 403 295 407 c 128,-1,35
 313 411 313 411 342 411 c 0,36,37
 375 411 375 411 404 407.5 c 128,-1,38
 433 404 433 404 469 396 c 1,39,40
 463 389 463 389 459.5 385 c 128,-1,41
 456 381 456 381 453 377 c 128,-1,42
 450 373 450 373 447 369.5 c 128,-1,43
 444 366 444 366 440 360 c 0,44,45
 426 309 426 309 415 264.5 c 128,-1,46
 404 220 404 220 396.5 184.5 c 128,-1,47
 389 149 389 149 384.5 125 c 128,-1,48
 380 101 380 101 380 91 c 0,49,50
 380 71 380 71 392 71 c 0,51,52
 396 71 396 71 401.5 73 c 128,-1,53
 407 75 407 75 417.5 81.5 c 128,-1,54
 428 88 428 88 445.5 99.5 c 128,-1,55
 463 111 463 111 492 130 c 1,56,-1
 491 101 l 1,0,1
325 172 m 1,57,-1
 342 248 l 2,58,59
 343 254 343 254 345 261 c 128,-1,60
 347 268 347 268 350 279.5 c 128,-1,61
 353 291 353 291 358 308 c 128,-1,62
 363 325 363 325 370 352 c 1,63,64
 343 359 343 359 320.5 362 c 128,-1,65
 298 365 298 365 284 365 c 0,66,67
 258 365 258 365 239.5 347 c 128,-1,68
 221 329 221 329 203 285 c 0,69,70
 185 242 185 242 174.5 197 c 128,-1,71
 164 152 164 152 164 114 c 0,72,73
 164 64 164 64 190 64 c 0,74,75
 204 64 204 64 228 78 c 128,-1,76
 252 92 252 92 297 124 c 2,77,-1
 316 137 l 1,78,-1
 325 172 l 1,57,-1
394 640 m 0,79,80
 426 640 426 640 444 623.5 c 128,-1,81
 462 607 462 607 462 578 c 0,82,83
 462 554 462 554 452.5 533 c 128,-1,84
 443 512 443 512 427.5 496 c 128,-1,85
 412 480 412 480 391 470.5 c 128,-1,86
 370 461 370 461 347 461 c 0,87,88
 315 461 315 461 298 477.5 c 128,-1,89
 281 494 281 494 281 524 c 0,90,91
 281 575 281 575 313 607.5 c 128,-1,92
 345 640 345 640 394 640 c 0,79,80
379 618 m 0,93,94
 355 618 355 618 339.5 594 c 128,-1,95
 324 570 324 570 324 535 c 0,96,97
 324 512 324 512 333.5 497.5 c 128,-1,98
 343 483 343 483 358 483 c 0,99,100
 381 483 381 483 398 507.5 c 128,-1,101
 415 532 415 532 415 567 c 0,102,103
 415 618 415 618 379 618 c 0,93,94
EndSplineSet
EndChar

StartChar: edieresis
Encoding: 235 235 34
Width: 340
Flags: W
LayerCount: 2
Back
Fore
SplineSet
380 108 m 1,0,1
 259 -13 259 -13 169 -13 c 0,2,3
 131 -13 131 -13 109 12.5 c 128,-1,4
 87 38 87 38 87 82 c 0,5,6
 87 113 87 113 93 147.5 c 128,-1,7
 99 182 99 182 108.5 214.5 c 128,-1,8
 118 247 118 247 131 275 c 128,-1,9
 144 303 144 303 159 320 c 0,10,11
 175 339 175 339 201.5 359.5 c 128,-1,12
 228 380 228 380 256 395 c 0,13,14
 272 404 272 404 284.5 407.5 c 128,-1,15
 297 411 297 411 313 411 c 0,16,17
 339 411 339 411 354.5 396.5 c 128,-1,18
 370 382 370 382 370 356 c 0,19,20
 370 321 370 321 353 294 c 128,-1,21
 336 267 336 267 295 236 c 0,22,23
 273 219 273 219 255.5 206.5 c 128,-1,24
 238 194 238 194 223 183.5 c 128,-1,25
 208 173 208 173 193 163.5 c 128,-1,26
 178 154 178 154 161 143 c 1,27,28
 161 121 161 121 162 110 c 128,-1,29
 163 99 163 99 166 87 c 0,30,31
 171 67 171 67 185.5 55.5 c 128,-1,32
 200 44 200 44 219 44 c 0,33,34
 248 44 248 44 285.5 65.5 c 128,-1,35
 323 87 323 87 380 137 c 1,36,-1
 380 108 l 1,0,1
164 179 m 1,37,38
 204 204 204 204 230 223.5 c 128,-1,39
 256 243 256 243 271 260 c 128,-1,40
 286 277 286 277 292 293 c 128,-1,41
 298 309 298 309 298 328 c 256,42,43
 298 347 298 347 290.5 358 c 128,-1,44
 283 369 283 369 271 369 c 0,45,46
 254 369 254 369 238 354.5 c 128,-1,47
 222 340 222 340 207.5 314.5 c 128,-1,48
 193 289 193 289 181.5 254 c 128,-1,49
 170 219 170 219 164 179 c 1,37,38
361 601 m 2,50,51
 364 604 364 604 367.5 606.5 c 128,-1,52
 371 609 371 609 375 612 c 1,53,54
 379 602 379 602 381.5 596.5 c 128,-1,55
 384 591 384 591 385 588 c 128,-1,56
 386 585 386 585 387 583 c 128,-1,57
 388 581 388 581 389 578 c 0,58,59
 392 572 392 572 396 565 c 128,-1,60
 400 558 400 558 409 544 c 1,61,62
 404 540 404 540 400 536.5 c 128,-1,63
 396 533 396 533 391 530 c 0,64,65
 385 525 385 525 381 522 c 128,-1,66
 377 519 377 519 372.5 515 c 128,-1,67
 368 511 368 511 361.5 505 c 128,-1,68
 355 499 355 499 344 489 c 1,69,70
 327 512 327 512 319.5 527 c 128,-1,71
 312 542 312 542 306 559 c 1,72,73
 316 566 316 566 320.5 569 c 128,-1,74
 325 572 325 572 332 577 c 2,75,-1
 361 601 l 2,50,51
211 489 m 1,76,77
 194 514 194 514 186.5 528 c 128,-1,78
 179 542 179 542 173 559 c 1,79,80
 183 566 183 566 189 570 c 128,-1,81
 195 574 195 574 200.5 578.5 c 128,-1,82
 206 583 206 583 212 588 c 128,-1,83
 218 593 218 593 228 601 c 0,84,85
 232 604 232 604 235 607 c 128,-1,86
 238 610 238 610 242 612 c 1,87,88
 246 602 246 602 248.5 596.5 c 128,-1,89
 251 591 251 591 252.5 588 c 128,-1,90
 254 585 254 585 254.5 583 c 128,-1,91
 255 581 255 581 257 578 c 0,92,93
 260 572 260 572 264 565 c 128,-1,94
 268 558 268 558 276 544 c 1,95,96
 259 530 259 530 254.5 527 c 128,-1,97
 250 524 250 524 244 519 c 256,98,99
 238 514 238 514 231.5 508 c 128,-1,100
 225 502 225 502 211 489 c 1,76,77
EndSplineSet
EndChar

StartChar: eacute
Encoding: 233 233 35
Width: 340
Flags: W
LayerCount: 2
Back
Fore
SplineSet
380 108 m 1,0,1
 259 -13 259 -13 169 -13 c 0,2,3
 131 -13 131 -13 109 12.5 c 128,-1,4
 87 38 87 38 87 82 c 0,5,6
 87 113 87 113 93 147.5 c 128,-1,7
 99 182 99 182 108.5 214.5 c 128,-1,8
 118 247 118 247 131 275 c 128,-1,9
 144 303 144 303 159 320 c 0,10,11
 175 339 175 339 201.5 359.5 c 128,-1,12
 228 380 228 380 256 395 c 0,13,14
 272 404 272 404 284.5 407.5 c 128,-1,15
 297 411 297 411 313 411 c 0,16,17
 339 411 339 411 354.5 396.5 c 128,-1,18
 370 382 370 382 370 356 c 0,19,20
 370 321 370 321 353 294 c 128,-1,21
 336 267 336 267 295 236 c 0,22,23
 273 219 273 219 255.5 206.5 c 128,-1,24
 238 194 238 194 223 183.5 c 128,-1,25
 208 173 208 173 193 163.5 c 128,-1,26
 178 154 178 154 161 143 c 1,27,28
 161 121 161 121 162 110 c 128,-1,29
 163 99 163 99 166 87 c 0,30,31
 171 67 171 67 185.5 55.5 c 128,-1,32
 200 44 200 44 219 44 c 0,33,34
 248 44 248 44 285.5 65.5 c 128,-1,35
 323 87 323 87 380 137 c 1,36,-1
 380 108 l 1,0,1
164 179 m 1,37,38
 204 204 204 204 230 223.5 c 128,-1,39
 256 243 256 243 271 260 c 128,-1,40
 286 277 286 277 292 293 c 128,-1,41
 298 309 298 309 298 328 c 256,42,43
 298 347 298 347 290.5 358 c 128,-1,44
 283 369 283 369 271 369 c 0,45,46
 254 369 254 369 238 354.5 c 128,-1,47
 222 340 222 340 207.5 314.5 c 128,-1,48
 193 289 193 289 181.5 254 c 128,-1,49
 170 219 170 219 164 179 c 1,37,38
225 466 m 1,50,51
 276 533 276 533 363 655 c 1,52,-1
 408 633 l 1,53,54
 379 604 379 604 359.5 583.5 c 128,-1,55
 340 563 340 563 323 544.5 c 128,-1,56
 306 526 306 526 289 506.5 c 128,-1,57
 272 487 272 487 249 460 c 1,58,-1
 225 466 l 1,50,51
EndSplineSet
EndChar

StartChar: egrave
Encoding: 232 232 36
Width: 340
Flags: W
LayerCount: 2
Back
Fore
SplineSet
380 108 m 1,0,1
 259 -13 259 -13 169 -13 c 0,2,3
 131 -13 131 -13 109 12.5 c 128,-1,4
 87 38 87 38 87 82 c 0,5,6
 87 113 87 113 93 147.5 c 128,-1,7
 99 182 99 182 108.5 214.5 c 128,-1,8
 118 247 118 247 131 275 c 128,-1,9
 144 303 144 303 159 320 c 0,10,11
 175 339 175 339 201.5 359.5 c 128,-1,12
 228 380 228 380 256 395 c 0,13,14
 272 404 272 404 284.5 407.5 c 128,-1,15
 297 411 297 411 313 411 c 0,16,17
 339 411 339 411 354.5 396.5 c 128,-1,18
 370 382 370 382 370 356 c 0,19,20
 370 321 370 321 353 294 c 128,-1,21
 336 267 336 267 295 236 c 0,22,23
 273 219 273 219 255.5 206.5 c 128,-1,24
 238 194 238 194 223 183.5 c 128,-1,25
 208 173 208 173 193 163.5 c 128,-1,26
 178 154 178 154 161 143 c 1,27,28
 161 121 161 121 162 110 c 128,-1,29
 163 99 163 99 166 87 c 0,30,31
 171 67 171 67 185.5 55.5 c 128,-1,32
 200 44 200 44 219 44 c 0,33,34
 248 44 248 44 285.5 65.5 c 128,-1,35
 323 87 323 87 380 137 c 1,36,-1
 380 108 l 1,0,1
164 179 m 1,37,38
 204 204 204 204 230 223.5 c 128,-1,39
 256 243 256 243 271 260 c 128,-1,40
 286 277 286 277 292 293 c 128,-1,41
 298 309 298 309 298 328 c 256,42,43
 298 347 298 347 290.5 358 c 128,-1,44
 283 369 283 369 271 369 c 0,45,46
 254 369 254 369 238 354.5 c 128,-1,47
 222 340 222 340 207.5 314.5 c 128,-1,48
 193 289 193 289 181.5 254 c 128,-1,49
 170 219 170 219 164 179 c 1,37,38
279 655 m 1,50,51
 291 622 291 622 299 599.5 c 128,-1,52
 307 577 307 577 313.5 557 c 128,-1,53
 320 537 320 537 326 516 c 128,-1,54
 332 495 332 495 341 466 c 1,55,56
 332 463 332 463 328 462.5 c 128,-1,57
 324 462 324 462 316 460 c 1,58,59
 299 497 299 497 286.5 523.5 c 128,-1,60
 274 550 274 550 265 569 c 128,-1,61
 256 588 256 588 248.5 602 c 128,-1,62
 241 616 241 616 233 630 c 1,63,-1
 246 637 l 1,64,-1
 263 646 l 1,65,-1
 279 655 l 1,50,51
EndSplineSet
EndChar

StartChar: ecircumflex
Encoding: 234 234 37
Width: 340
Flags: W
LayerCount: 2
Back
Fore
SplineSet
380 108 m 1,0,1
 259 -13 259 -13 169 -13 c 0,2,3
 131 -13 131 -13 109 12.5 c 128,-1,4
 87 38 87 38 87 82 c 0,5,6
 87 113 87 113 93 147.5 c 128,-1,7
 99 182 99 182 108.5 214.5 c 128,-1,8
 118 247 118 247 131 275 c 128,-1,9
 144 303 144 303 159 320 c 0,10,11
 175 339 175 339 201.5 359.5 c 128,-1,12
 228 380 228 380 256 395 c 0,13,14
 272 404 272 404 284.5 407.5 c 128,-1,15
 297 411 297 411 313 411 c 0,16,17
 339 411 339 411 354.5 396.5 c 128,-1,18
 370 382 370 382 370 356 c 0,19,20
 370 321 370 321 353 294 c 128,-1,21
 336 267 336 267 295 236 c 0,22,23
 273 219 273 219 255.5 206.5 c 128,-1,24
 238 194 238 194 223 183.5 c 128,-1,25
 208 173 208 173 193 163.5 c 128,-1,26
 178 154 178 154 161 143 c 1,27,28
 161 121 161 121 162 110 c 128,-1,29
 163 99 163 99 166 87 c 0,30,31
 171 67 171 67 185.5 55.5 c 128,-1,32
 200 44 200 44 219 44 c 0,33,34
 248 44 248 44 285.5 65.5 c 128,-1,35
 323 87 323 87 380 137 c 1,36,-1
 380 108 l 1,0,1
164 179 m 1,37,38
 204 204 204 204 230 223.5 c 128,-1,39
 256 243 256 243 271 260 c 128,-1,40
 286 277 286 277 292 293 c 128,-1,41
 298 309 298 309 298 328 c 256,42,43
 298 347 298 347 290.5 358 c 128,-1,44
 283 369 283 369 271 369 c 0,45,46
 254 369 254 369 238 354.5 c 128,-1,47
 222 340 222 340 207.5 314.5 c 128,-1,48
 193 289 193 289 181.5 254 c 128,-1,49
 170 219 170 219 164 179 c 1,37,38
183 488 m 1,50,51
 223 529 223 529 249 554.5 c 128,-1,52
 275 580 275 580 293.5 597.5 c 128,-1,53
 312 615 312 615 325.5 627.5 c 128,-1,54
 339 640 339 640 356 654 c 0,55,56
 362 655 362 655 365 655.5 c 128,-1,57
 368 656 368 656 370 656 c 0,58,59
 373 656 373 656 383 654 c 1,60,61
 384 634 384 634 385 620.5 c 128,-1,62
 386 607 386 607 387 597.5 c 128,-1,63
 388 588 388 588 388.5 581.5 c 128,-1,64
 389 575 389 575 389 569 c 0,65,66
 391 548 391 548 393 525 c 128,-1,67
 395 502 395 502 397 480 c 1,68,69
 387 475 387 475 381 471.5 c 128,-1,70
 375 468 375 468 361 460 c 1,71,-1
 358 483 l 1,72,-1
 352 530 l 2,73,74
 350 539 350 539 348 555 c 128,-1,75
 346 571 346 571 341 594 c 1,76,77
 329 584 329 584 319.5 576.5 c 128,-1,78
 310 569 310 569 302 562.5 c 128,-1,79
 294 556 294 556 286 549 c 128,-1,80
 278 542 278 542 268 534 c 0,81,82
 247 514 247 514 227 496 c 128,-1,83
 207 478 207 478 187 460 c 1,84,-1
 186 469 l 1,85,-1
 185 479 l 1,86,-1
 183 488 l 1,50,51
EndSplineSet
EndChar

StartChar: idieresis
Encoding: 239 239 38
Width: 240
Flags: W
LayerCount: 2
Back
Fore
SplineSet
304 88 m 1,0,1
 297 83 297 83 290.5 79 c 128,-1,2
 284 75 284 75 277 71 c 2,3,-1
 220 34 l 2,4,5
 181 8 181 8 159.5 -2.5 c 128,-1,6
 138 -13 138 -13 125 -13 c 0,7,8
 114 -13 114 -13 107.5 -2 c 128,-1,9
 101 9 101 9 101 27 c 0,10,11
 101 37 101 37 101.5 45 c 128,-1,12
 102 53 102 53 106.5 71.5 c 128,-1,13
 111 90 111 90 120.5 126 c 128,-1,14
 130 162 130 162 148 227 c 0,15,16
 154 249 154 249 157.5 263 c 128,-1,17
 161 277 161 277 163 286 c 128,-1,18
 165 295 165 295 165.5 301 c 128,-1,19
 166 307 166 307 166 312 c 0,20,21
 166 329 166 329 154 329 c 0,22,23
 151 329 151 329 147 328 c 128,-1,24
 143 327 143 327 135.5 323.5 c 128,-1,25
 128 320 128 320 115 313.5 c 128,-1,26
 102 307 102 307 81 295 c 1,27,-1
 83 323 l 1,28,29
 144 365 144 365 186 388 c 128,-1,30
 228 411 228 411 241 411 c 0,31,32
 253 411 253 411 253 401 c 0,33,34
 253 398 253 398 251 387.5 c 128,-1,35
 249 377 249 377 242.5 349.5 c 128,-1,36
 236 322 236 322 224 273 c 128,-1,37
 212 224 212 224 192 143 c 0,38,39
 183 108 183 108 183 92 c 0,40,41
 183 64 183 64 201 64 c 0,42,43
 205 64 205 64 210.5 65.5 c 128,-1,44
 216 67 216 67 226 71.5 c 128,-1,45
 236 76 236 76 252 84.5 c 128,-1,46
 268 93 268 93 294 107 c 2,47,-1
 311 116 l 1,48,-1
 304 88 l 1,0,1
311 601 m 2,49,50
 314 604 314 604 317.5 606.5 c 128,-1,51
 321 609 321 609 325 612 c 1,52,53
 329 602 329 602 331.5 596.5 c 128,-1,54
 334 591 334 591 335 588 c 128,-1,55
 336 585 336 585 337 583 c 128,-1,56
 338 581 338 581 339 578 c 0,57,58
 342 572 342 572 346 565 c 128,-1,59
 350 558 350 558 359 544 c 1,60,61
 354 540 354 540 350 536.5 c 128,-1,62
 346 533 346 533 341 530 c 0,63,64
 335 525 335 525 331 522 c 128,-1,65
 327 519 327 519 322.5 515 c 128,-1,66
 318 511 318 511 311.5 505 c 128,-1,67
 305 499 305 499 294 489 c 1,68,69
 277 512 277 512 269.5 527 c 128,-1,70
 262 542 262 542 256 559 c 1,71,72
 266 566 266 566 270.5 569 c 128,-1,73
 275 572 275 572 282 577 c 2,74,-1
 311 601 l 2,49,50
161 489 m 1,75,76
 144 514 144 514 136.5 528 c 128,-1,77
 129 542 129 542 123 559 c 1,78,79
 133 566 133 566 139 570 c 128,-1,80
 145 574 145 574 150.5 578.5 c 128,-1,81
 156 583 156 583 162 588 c 128,-1,82
 168 593 168 593 178 601 c 0,83,84
 182 604 182 604 185 607 c 128,-1,85
 188 610 188 610 192 612 c 1,86,87
 196 602 196 602 198.5 596.5 c 128,-1,88
 201 591 201 591 202.5 588 c 128,-1,89
 204 585 204 585 204.5 583 c 128,-1,90
 205 581 205 581 207 578 c 0,91,92
 210 572 210 572 214 565 c 128,-1,93
 218 558 218 558 226 544 c 1,94,95
 209 530 209 530 204.5 527 c 128,-1,96
 200 524 200 524 194 519 c 256,97,98
 188 514 188 514 181.5 508 c 128,-1,99
 175 502 175 502 161 489 c 1,75,76
EndSplineSet
EndChar

StartChar: iacute
Encoding: 237 237 39
Width: 240
Flags: W
LayerCount: 2
Back
Fore
SplineSet
304 88 m 1,0,1
 297 83 297 83 290.5 79 c 128,-1,2
 284 75 284 75 277 71 c 2,3,-1
 220 34 l 2,4,5
 181 8 181 8 159.5 -2.5 c 128,-1,6
 138 -13 138 -13 125 -13 c 0,7,8
 114 -13 114 -13 107.5 -2 c 128,-1,9
 101 9 101 9 101 27 c 0,10,11
 101 37 101 37 101.5 45 c 128,-1,12
 102 53 102 53 106.5 71.5 c 128,-1,13
 111 90 111 90 120.5 126 c 128,-1,14
 130 162 130 162 148 227 c 0,15,16
 154 249 154 249 157.5 263 c 128,-1,17
 161 277 161 277 163 286 c 128,-1,18
 165 295 165 295 165.5 301 c 128,-1,19
 166 307 166 307 166 312 c 0,20,21
 166 329 166 329 154 329 c 0,22,23
 151 329 151 329 147 328 c 128,-1,24
 143 327 143 327 135.5 323.5 c 128,-1,25
 128 320 128 320 115 313.5 c 128,-1,26
 102 307 102 307 81 295 c 1,27,-1
 83 323 l 1,28,29
 144 365 144 365 186 388 c 128,-1,30
 228 411 228 411 241 411 c 0,31,32
 253 411 253 411 253 401 c 0,33,34
 253 398 253 398 251 387.5 c 128,-1,35
 249 377 249 377 242.5 349.5 c 128,-1,36
 236 322 236 322 224 273 c 128,-1,37
 212 224 212 224 192 143 c 0,38,39
 183 108 183 108 183 92 c 0,40,41
 183 64 183 64 201 64 c 0,42,43
 205 64 205 64 210.5 65.5 c 128,-1,44
 216 67 216 67 226 71.5 c 128,-1,45
 236 76 236 76 252 84.5 c 128,-1,46
 268 93 268 93 294 107 c 2,47,-1
 311 116 l 1,48,-1
 304 88 l 1,0,1
175 466 m 1,49,50
 226 533 226 533 313 655 c 1,51,-1
 358 633 l 1,52,53
 329 604 329 604 309.5 583.5 c 128,-1,54
 290 563 290 563 273 544.5 c 128,-1,55
 256 526 256 526 239 506.5 c 128,-1,56
 222 487 222 487 199 460 c 1,57,-1
 175 466 l 1,49,50
EndSplineSet
EndChar

StartChar: igrave
Encoding: 236 236 40
Width: 240
Flags: W
LayerCount: 2
Back
Fore
SplineSet
304 88 m 1,0,1
 297 83 297 83 290.5 79 c 128,-1,2
 284 75 284 75 277 71 c 2,3,-1
 220 34 l 2,4,5
 181 8 181 8 159.5 -2.5 c 128,-1,6
 138 -13 138 -13 125 -13 c 0,7,8
 114 -13 114 -13 107.5 -2 c 128,-1,9
 101 9 101 9 101 27 c 0,10,11
 101 37 101 37 101.5 45 c 128,-1,12
 102 53 102 53 106.5 71.5 c 128,-1,13
 111 90 111 90 120.5 126 c 128,-1,14
 130 162 130 162 148 227 c 0,15,16
 154 249 154 249 157.5 263 c 128,-1,17
 161 277 161 277 163 286 c 128,-1,18
 165 295 165 295 165.5 301 c 128,-1,19
 166 307 166 307 166 312 c 0,20,21
 166 329 166 329 154 329 c 0,22,23
 151 329 151 329 147 328 c 128,-1,24
 143 327 143 327 135.5 323.5 c 128,-1,25
 128 320 128 320 115 313.5 c 128,-1,26
 102 307 102 307 81 295 c 1,27,-1
 83 323 l 1,28,29
 144 365 144 365 186 388 c 128,-1,30
 228 411 228 411 241 411 c 0,31,32
 253 411 253 411 253 401 c 0,33,34
 253 398 253 398 251 387.5 c 128,-1,35
 249 377 249 377 242.5 349.5 c 128,-1,36
 236 322 236 322 224 273 c 128,-1,37
 212 224 212 224 192 143 c 0,38,39
 183 108 183 108 183 92 c 0,40,41
 183 64 183 64 201 64 c 0,42,43
 205 64 205 64 210.5 65.5 c 128,-1,44
 216 67 216 67 226 71.5 c 128,-1,45
 236 76 236 76 252 84.5 c 128,-1,46
 268 93 268 93 294 107 c 2,47,-1
 311 116 l 1,48,-1
 304 88 l 1,0,1
213 655 m 1,49,50
 225 622 225 622 233 599.5 c 128,-1,51
 241 577 241 577 247.5 557 c 128,-1,52
 254 537 254 537 260 516 c 128,-1,53
 266 495 266 495 275 466 c 1,54,55
 266 463 266 463 262 462.5 c 128,-1,56
 258 462 258 462 250 460 c 1,57,58
 233 497 233 497 220.5 523.5 c 128,-1,59
 208 550 208 550 199 569 c 128,-1,60
 190 588 190 588 182.5 602 c 128,-1,61
 175 616 175 616 167 630 c 1,62,-1
 180 637 l 1,63,-1
 197 646 l 1,64,-1
 213 655 l 1,49,50
EndSplineSet
EndChar

StartChar: icircumflex
Encoding: 238 238 41
Width: 240
Flags: W
LayerCount: 2
Back
Fore
SplineSet
304 88 m 1,0,1
 297 83 297 83 290.5 79 c 128,-1,2
 284 75 284 75 277 71 c 2,3,-1
 220 34 l 2,4,5
 181 8 181 8 159.5 -2.5 c 128,-1,6
 138 -13 138 -13 125 -13 c 0,7,8
 114 -13 114 -13 107.5 -2 c 128,-1,9
 101 9 101 9 101 27 c 0,10,11
 101 37 101 37 101.5 45 c 128,-1,12
 102 53 102 53 106.5 71.5 c 128,-1,13
 111 90 111 90 120.5 126 c 128,-1,14
 130 162 130 162 148 227 c 0,15,16
 154 249 154 249 157.5 263 c 128,-1,17
 161 277 161 277 163 286 c 128,-1,18
 165 295 165 295 165.5 301 c 128,-1,19
 166 307 166 307 166 312 c 0,20,21
 166 329 166 329 154 329 c 0,22,23
 151 329 151 329 147 328 c 128,-1,24
 143 327 143 327 135.5 323.5 c 128,-1,25
 128 320 128 320 115 313.5 c 128,-1,26
 102 307 102 307 81 295 c 1,27,-1
 83 323 l 1,28,29
 144 365 144 365 186 388 c 128,-1,30
 228 411 228 411 241 411 c 0,31,32
 253 411 253 411 253 401 c 0,33,34
 253 398 253 398 251 387.5 c 128,-1,35
 249 377 249 377 242.5 349.5 c 128,-1,36
 236 322 236 322 224 273 c 128,-1,37
 212 224 212 224 192 143 c 0,38,39
 183 108 183 108 183 92 c 0,40,41
 183 64 183 64 201 64 c 0,42,43
 205 64 205 64 210.5 65.5 c 128,-1,44
 216 67 216 67 226 71.5 c 128,-1,45
 236 76 236 76 252 84.5 c 128,-1,46
 268 93 268 93 294 107 c 2,47,-1
 311 116 l 1,48,-1
 304 88 l 1,0,1
133 488 m 1,49,50
 173 529 173 529 199 554.5 c 128,-1,51
 225 580 225 580 243.5 597.5 c 128,-1,52
 262 615 262 615 275.5 627.5 c 128,-1,53
 289 640 289 640 306 654 c 0,54,55
 312 655 312 655 315 655.5 c 128,-1,56
 318 656 318 656 320 656 c 0,57,58
 323 656 323 656 333 654 c 1,59,60
 334 634 334 634 335 620.5 c 128,-1,61
 336 607 336 607 337 597.5 c 128,-1,62
 338 588 338 588 338.5 581.5 c 128,-1,63
 339 575 339 575 339 569 c 0,64,65
 341 548 341 548 343 525 c 128,-1,66
 345 502 345 502 347 480 c 1,67,68
 337 475 337 475 331 471.5 c 128,-1,69
 325 468 325 468 311 460 c 1,70,-1
 308 483 l 1,71,-1
 302 530 l 2,72,73
 300 539 300 539 298 555 c 128,-1,74
 296 571 296 571 291 594 c 1,75,76
 279 584 279 584 269.5 576.5 c 128,-1,77
 260 569 260 569 252 562.5 c 128,-1,78
 244 556 244 556 236 549 c 128,-1,79
 228 542 228 542 218 534 c 0,80,81
 197 514 197 514 177 496 c 128,-1,82
 157 478 157 478 137 460 c 1,83,-1
 136 469 l 1,84,-1
 135 479 l 1,85,-1
 133 488 l 1,49,50
EndSplineSet
EndChar

StartChar: ntilde
Encoding: 241 241 42
Width: 460
Flags: W
LayerCount: 2
Back
Fore
SplineSet
89 -10 m 1,0,1
 93 4 93 4 96 17.5 c 128,-1,2
 99 31 99 31 103 44 c 2,3,-1
 126 125 l 2,4,5
 146 195 146 195 158 249 c 128,-1,6
 170 303 170 303 170 320 c 0,7,8
 170 334 170 334 158 334 c 0,9,10
 155 334 155 334 150.5 333 c 128,-1,11
 146 332 146 332 138 329 c 128,-1,12
 130 326 130 326 116.5 320 c 128,-1,13
 103 314 103 314 81 304 c 1,14,-1
 87 330 l 1,15,16
 116 347 116 347 142.5 361.5 c 128,-1,17
 169 376 169 376 190 387 c 128,-1,18
 211 398 211 398 225.5 404.5 c 128,-1,19
 240 411 240 411 244 411 c 0,20,21
 257 411 257 411 257 398 c 0,22,23
 257 395 257 395 254.5 383 c 128,-1,24
 252 371 252 371 248.5 355.5 c 128,-1,25
 245 340 245 340 241 323.5 c 128,-1,26
 237 307 237 307 233 294 c 1,27,28
 238 298 238 298 267 316 c 128,-1,29
 296 334 296 334 350 367 c 0,30,31
 373 381 373 381 388 389.5 c 128,-1,32
 403 398 403 398 413 403 c 128,-1,33
 423 408 423 408 430 409.5 c 128,-1,34
 437 411 437 411 444 411 c 0,35,36
 463 411 463 411 463 394 c 0,37,38
 463 391 463 391 462.5 387 c 128,-1,39
 462 383 462 383 457.5 366.5 c 128,-1,40
 453 350 453 350 443.5 316 c 128,-1,41
 434 282 434 282 416 219 c 0,42,43
 402 168 402 168 396 140 c 128,-1,44
 390 112 390 112 390 95 c 0,45,46
 390 69 390 69 406 69 c 0,47,48
 410 69 410 69 414 70.5 c 128,-1,49
 418 72 418 72 429.5 77.5 c 128,-1,50
 441 83 441 83 462 95 c 128,-1,51
 483 107 483 107 520 128 c 1,52,-1
 513 100 l 1,53,54
 460 61 460 61 411.5 30.5 c 128,-1,55
 363 0 363 0 328 -16 c 1,56,57
 313 9 313 9 313 28 c 0,58,59
 313 35 313 35 314 43.5 c 128,-1,60
 315 52 315 52 318 65.5 c 128,-1,61
 321 79 321 79 326 100 c 128,-1,62
 331 121 331 121 339 154 c 0,63,64
 351 200 351 200 358 229.5 c 128,-1,65
 365 259 365 259 369 277.5 c 128,-1,66
 373 296 373 296 374.5 305.5 c 128,-1,67
 376 315 376 315 376 321 c 0,68,69
 376 334 376 334 365 334 c 0,70,71
 360 334 360 334 355 332.5 c 128,-1,72
 350 331 350 331 336.5 323.5 c 128,-1,73
 323 316 323 316 297 300 c 128,-1,74
 271 284 271 284 223 254 c 1,75,-1
 164 19 l 1,76,-1
 89 -10 l 1,0,1
193 512 m 1,77,78
 230 561 230 561 252 579.5 c 128,-1,79
 274 598 274 598 298 598 c 0,80,81
 305 598 305 598 311.5 597 c 128,-1,82
 318 596 318 596 325.5 593.5 c 128,-1,83
 333 591 333 591 342.5 586 c 128,-1,84
 352 581 352 581 366 573 c 0,85,86
 383 564 383 564 398 558.5 c 128,-1,87
 413 553 413 553 423 553 c 0,88,89
 458 553 458 553 499 591 c 2,90,-1
 513 604 l 1,91,-1
 523 586 l 1,92,93
 503 561 503 561 488.5 545 c 128,-1,94
 474 529 474 529 462.5 519.5 c 128,-1,95
 451 510 451 510 440.5 506.5 c 128,-1,96
 430 503 430 503 419 503 c 0,97,98
 410 503 410 503 402.5 504 c 128,-1,99
 395 505 395 505 386 508.5 c 128,-1,100
 377 512 377 512 364.5 518.5 c 128,-1,101
 352 525 352 525 333 536 c 0,102,103
 303 553 303 553 283 553 c 0,104,105
 264 553 264 553 249 541 c 128,-1,106
 234 529 234 529 206 494 c 1,107,-1
 193 512 l 1,77,78
EndSplineSet
EndChar

StartChar: odieresis
Encoding: 246 246 43
Width: 400
Flags: W
LayerCount: 2
Back
Fore
SplineSet
359 411 m 0,0,1
 399 411 399 411 424 385.5 c 128,-1,2
 449 360 449 360 449 320 c 0,3,4
 449 294 449 294 443.5 263.5 c 128,-1,5
 438 233 438 233 428 203 c 128,-1,6
 418 173 418 173 405 145.5 c 128,-1,7
 392 118 392 118 377 97 c 0,8,9
 350 62 350 62 276 21 c 0,10,11
 241 2 241 2 218 -5.5 c 128,-1,12
 195 -13 195 -13 173 -13 c 0,13,14
 134 -13 134 -13 110.5 14 c 128,-1,15
 87 41 87 41 87 86 c 0,16,17
 87 123 87 123 95 160.5 c 128,-1,18
 103 198 103 198 117.5 231.5 c 128,-1,19
 132 265 132 265 152 292.5 c 128,-1,20
 172 320 172 320 196 338 c 0,21,22
 241 371 241 371 285 391 c 128,-1,23
 329 411 329 411 359 411 c 0,0,1
305 364 m 0,24,25
 279 364 279 364 254 343 c 128,-1,26
 229 322 229 322 209 288.5 c 128,-1,27
 189 255 189 255 176.5 213 c 128,-1,28
 164 171 164 171 164 128 c 256,29,30
 164 85 164 85 182 59.5 c 128,-1,31
 200 34 200 34 231 34 c 0,32,33
 260 34 260 34 286 56.5 c 128,-1,34
 312 79 312 79 334 122 c 0,35,36
 352 159 352 159 362 196 c 128,-1,37
 372 233 372 233 372 265 c 0,38,39
 372 312 372 312 354.5 338 c 128,-1,40
 337 364 337 364 305 364 c 0,24,25
401 601 m 2,41,42
 404 604 404 604 407.5 606.5 c 128,-1,43
 411 609 411 609 415 612 c 1,44,45
 419 602 419 602 421.5 596.5 c 128,-1,46
 424 591 424 591 425 588 c 128,-1,47
 426 585 426 585 427 583 c 128,-1,48
 428 581 428 581 429 578 c 0,49,50
 432 572 432 572 436 565 c 128,-1,51
 440 558 440 558 449 544 c 1,52,53
 444 540 444 540 440 536.5 c 128,-1,54
 436 533 436 533 431 530 c 0,55,56
 425 525 425 525 421 522 c 128,-1,57
 417 519 417 519 412.5 515 c 128,-1,58
 408 511 408 511 401.5 505 c 128,-1,59
 395 499 395 499 384 489 c 1,60,61
 367 512 367 512 359.5 527 c 128,-1,62
 352 542 352 542 346 559 c 1,63,64
 356 566 356 566 360.5 569 c 128,-1,65
 365 572 365 572 372 577 c 2,66,-1
 401 601 l 2,41,42
251 489 m 1,67,68
 234 514 234 514 226.5 528 c 128,-1,69
 219 542 219 542 213 559 c 1,70,71
 223 566 223 566 229 570 c 128,-1,72
 235 574 235 574 240.5 578.5 c 128,-1,73
 246 583 246 583 252 588 c 128,-1,74
 258 593 258 593 268 601 c 0,75,76
 272 604 272 604 275 607 c 128,-1,77
 278 610 278 610 282 612 c 1,78,79
 286 602 286 602 288.5 596.5 c 128,-1,80
 291 591 291 591 292.5 588 c 128,-1,81
 294 585 294 585 294.5 583 c 128,-1,82
 295 581 295 581 297 578 c 0,83,84
 300 572 300 572 304 565 c 128,-1,85
 308 558 308 558 316 544 c 1,86,87
 299 530 299 530 294.5 527 c 128,-1,88
 290 524 290 524 284 519 c 256,89,90
 278 514 278 514 271.5 508 c 128,-1,91
 265 502 265 502 251 489 c 1,67,68
EndSplineSet
EndChar

StartChar: oacute
Encoding: 243 243 44
Width: 400
Flags: W
LayerCount: 2
Back
Fore
SplineSet
359 411 m 0,0,1
 399 411 399 411 424 385.5 c 128,-1,2
 449 360 449 360 449 320 c 0,3,4
 449 294 449 294 443.5 263.5 c 128,-1,5
 438 233 438 233 428 203 c 128,-1,6
 418 173 418 173 405 145.5 c 128,-1,7
 392 118 392 118 377 97 c 0,8,9
 350 62 350 62 276 21 c 0,10,11
 241 2 241 2 218 -5.5 c 128,-1,12
 195 -13 195 -13 173 -13 c 0,13,14
 134 -13 134 -13 110.5 14 c 128,-1,15
 87 41 87 41 87 86 c 0,16,17
 87 123 87 123 95 160.5 c 128,-1,18
 103 198 103 198 117.5 231.5 c 128,-1,19
 132 265 132 265 152 292.5 c 128,-1,20
 172 320 172 320 196 338 c 0,21,22
 241 371 241 371 285 391 c 128,-1,23
 329 411 329 411 359 411 c 0,0,1
305 364 m 0,24,25
 279 364 279 364 254 343 c 128,-1,26
 229 322 229 322 209 288.5 c 128,-1,27
 189 255 189 255 176.5 213 c 128,-1,28
 164 171 164 171 164 128 c 256,29,30
 164 85 164 85 182 59.5 c 128,-1,31
 200 34 200 34 231 34 c 0,32,33
 260 34 260 34 286 56.5 c 128,-1,34
 312 79 312 79 334 122 c 0,35,36
 352 159 352 159 362 196 c 128,-1,37
 372 233 372 233 372 265 c 0,38,39
 372 312 372 312 354.5 338 c 128,-1,40
 337 364 337 364 305 364 c 0,24,25
266 466 m 1,41,42
 317 533 317 533 404 655 c 1,43,-1
 449 633 l 1,44,45
 420 604 420 604 400.5 583.5 c 128,-1,46
 381 563 381 563 364 544.5 c 128,-1,47
 347 526 347 526 330 506.5 c 128,-1,48
 313 487 313 487 290 460 c 1,49,-1
 266 466 l 1,41,42
EndSplineSet
EndChar

StartChar: ograve
Encoding: 242 242 45
Width: 400
Flags: W
LayerCount: 2
Back
Fore
SplineSet
359 411 m 0,0,1
 399 411 399 411 424 385.5 c 128,-1,2
 449 360 449 360 449 320 c 0,3,4
 449 294 449 294 443.5 263.5 c 128,-1,5
 438 233 438 233 428 203 c 128,-1,6
 418 173 418 173 405 145.5 c 128,-1,7
 392 118 392 118 377 97 c 0,8,9
 350 62 350 62 276 21 c 0,10,11
 241 2 241 2 218 -5.5 c 128,-1,12
 195 -13 195 -13 173 -13 c 0,13,14
 134 -13 134 -13 110.5 14 c 128,-1,15
 87 41 87 41 87 86 c 0,16,17
 87 123 87 123 95 160.5 c 128,-1,18
 103 198 103 198 117.5 231.5 c 128,-1,19
 132 265 132 265 152 292.5 c 128,-1,20
 172 320 172 320 196 338 c 0,21,22
 241 371 241 371 285 391 c 128,-1,23
 329 411 329 411 359 411 c 0,0,1
305 364 m 0,24,25
 279 364 279 364 254 343 c 128,-1,26
 229 322 229 322 209 288.5 c 128,-1,27
 189 255 189 255 176.5 213 c 128,-1,28
 164 171 164 171 164 128 c 256,29,30
 164 85 164 85 182 59.5 c 128,-1,31
 200 34 200 34 231 34 c 0,32,33
 260 34 260 34 286 56.5 c 128,-1,34
 312 79 312 79 334 122 c 0,35,36
 352 159 352 159 362 196 c 128,-1,37
 372 233 372 233 372 265 c 0,38,39
 372 312 372 312 354.5 338 c 128,-1,40
 337 364 337 364 305 364 c 0,24,25
319 655 m 1,41,42
 331 622 331 622 339 599.5 c 128,-1,43
 347 577 347 577 353.5 557 c 128,-1,44
 360 537 360 537 366 516 c 128,-1,45
 372 495 372 495 381 466 c 1,46,47
 372 463 372 463 368 462.5 c 128,-1,48
 364 462 364 462 356 460 c 1,49,50
 339 497 339 497 326.5 523.5 c 128,-1,51
 314 550 314 550 305 569 c 128,-1,52
 296 588 296 588 288.5 602 c 128,-1,53
 281 616 281 616 273 630 c 1,54,-1
 286 637 l 1,55,-1
 303 646 l 1,56,-1
 319 655 l 1,41,42
EndSplineSet
EndChar

StartChar: ocircumflex
Encoding: 244 244 46
Width: 400
Flags: W
LayerCount: 2
Back
Fore
SplineSet
359 411 m 0,0,1
 399 411 399 411 424 385.5 c 128,-1,2
 449 360 449 360 449 320 c 0,3,4
 449 294 449 294 443.5 263.5 c 128,-1,5
 438 233 438 233 428 203 c 128,-1,6
 418 173 418 173 405 145.5 c 128,-1,7
 392 118 392 118 377 97 c 0,8,9
 350 62 350 62 276 21 c 0,10,11
 241 2 241 2 218 -5.5 c 128,-1,12
 195 -13 195 -13 173 -13 c 0,13,14
 134 -13 134 -13 110.5 14 c 128,-1,15
 87 41 87 41 87 86 c 0,16,17
 87 123 87 123 95 160.5 c 128,-1,18
 103 198 103 198 117.5 231.5 c 128,-1,19
 132 265 132 265 152 292.5 c 128,-1,20
 172 320 172 320 196 338 c 0,21,22
 241 371 241 371 285 391 c 128,-1,23
 329 411 329 411 359 411 c 0,0,1
305 364 m 0,24,25
 279 364 279 364 254 343 c 128,-1,26
 229 322 229 322 209 288.5 c 128,-1,27
 189 255 189 255 176.5 213 c 128,-1,28
 164 171 164 171 164 128 c 256,29,30
 164 85 164 85 182 59.5 c 128,-1,31
 200 34 200 34 231 34 c 0,32,33
 260 34 260 34 286 56.5 c 128,-1,34
 312 79 312 79 334 122 c 0,35,36
 352 159 352 159 362 196 c 128,-1,37
 372 233 372 233 372 265 c 0,38,39
 372 312 372 312 354.5 338 c 128,-1,40
 337 364 337 364 305 364 c 0,24,25
231 488 m 1,41,42
 271 529 271 529 297 554.5 c 128,-1,43
 323 580 323 580 341.5 597.5 c 128,-1,44
 360 615 360 615 373.5 627.5 c 128,-1,45
 387 640 387 640 404 654 c 0,46,47
 410 655 410 655 413 655.5 c 128,-1,48
 416 656 416 656 418 656 c 0,49,50
 421 656 421 656 431 654 c 1,51,52
 432 634 432 634 433 620.5 c 128,-1,53
 434 607 434 607 435 597.5 c 128,-1,54
 436 588 436 588 436.5 581.5 c 128,-1,55
 437 575 437 575 437 569 c 0,56,57
 439 548 439 548 441 525 c 128,-1,58
 443 502 443 502 445 480 c 1,59,60
 435 475 435 475 429 471.5 c 128,-1,61
 423 468 423 468 409 460 c 1,62,-1
 406 483 l 1,63,-1
 400 530 l 2,64,65
 398 539 398 539 396 555 c 128,-1,66
 394 571 394 571 389 594 c 1,67,68
 377 584 377 584 367.5 576.5 c 128,-1,69
 358 569 358 569 350 562.5 c 128,-1,70
 342 556 342 556 334 549 c 128,-1,71
 326 542 326 542 316 534 c 0,72,73
 295 514 295 514 275 496 c 128,-1,74
 255 478 255 478 235 460 c 1,75,-1
 234 469 l 1,76,-1
 233 479 l 1,77,-1
 231 488 l 1,41,42
EndSplineSet
EndChar

StartChar: otilde
Encoding: 245 245 47
Width: 400
Flags: W
LayerCount: 2
Back
Fore
SplineSet
359 411 m 0,0,1
 399 411 399 411 424 385.5 c 128,-1,2
 449 360 449 360 449 320 c 0,3,4
 449 294 449 294 443.5 263.5 c 128,-1,5
 438 233 438 233 428 203 c 128,-1,6
 418 173 418 173 405 145.5 c 128,-1,7
 392 118 392 118 377 97 c 0,8,9
 350 62 350 62 276 21 c 0,10,11
 241 2 241 2 218 -5.5 c 128,-1,12
 195 -13 195 -13 173 -13 c 0,13,14
 134 -13 134 -13 110.5 14 c 128,-1,15
 87 41 87 41 87 86 c 0,16,17
 87 123 87 123 95 160.5 c 128,-1,18
 103 198 103 198 117.5 231.5 c 128,-1,19
 132 265 132 265 152 292.5 c 128,-1,20
 172 320 172 320 196 338 c 0,21,22
 241 371 241 371 285 391 c 128,-1,23
 329 411 329 411 359 411 c 0,0,1
305 364 m 0,24,25
 279 364 279 364 254 343 c 128,-1,26
 229 322 229 322 209 288.5 c 128,-1,27
 189 255 189 255 176.5 213 c 128,-1,28
 164 171 164 171 164 128 c 256,29,30
 164 85 164 85 182 59.5 c 128,-1,31
 200 34 200 34 231 34 c 0,32,33
 260 34 260 34 286 56.5 c 128,-1,34
 312 79 312 79 334 122 c 0,35,36
 352 159 352 159 362 196 c 128,-1,37
 372 233 372 233 372 265 c 0,38,39
 372 312 372 312 354.5 338 c 128,-1,40
 337 364 337 364 305 364 c 0,24,25
163 512 m 1,41,42
 200 561 200 561 222 579.5 c 128,-1,43
 244 598 244 598 268 598 c 0,44,45
 275 598 275 598 281.5 597 c 128,-1,46
 288 596 288 596 295.5 593.5 c 128,-1,47
 303 591 303 591 312.5 586 c 128,-1,48
 322 581 322 581 336 573 c 0,49,50
 353 564 353 564 368 558.5 c 128,-1,51
 383 553 383 553 393 553 c 0,52,53
 428 553 428 553 469 591 c 2,54,-1
 483 604 l 1,55,-1
 493 586 l 1,56,57
 473 561 473 561 458.5 545 c 128,-1,58
 444 529 444 529 432.5 519.5 c 128,-1,59
 421 510 421 510 410.5 506.5 c 128,-1,60
 400 503 400 503 389 503 c 0,61,62
 380 503 380 503 372.5 504 c 128,-1,63
 365 505 365 505 356 508.5 c 128,-1,64
 347 512 347 512 334.5 518.5 c 128,-1,65
 322 525 322 525 303 536 c 0,66,67
 273 553 273 553 253 553 c 0,68,69
 234 553 234 553 219 541 c 128,-1,70
 204 529 204 529 176 494 c 1,71,-1
 163 512 l 1,41,42
EndSplineSet
EndChar

StartChar: scaron
Encoding: 353 353 48
Width: 320
Flags: W
LayerCount: 2
Back
Fore
SplineSet
61 95 m 2,0,1
 68 100 68 100 74.5 103.5 c 128,-1,2
 81 107 81 107 87 111 c 256,3,4
 93 115 93 115 99 119 c 128,-1,5
 105 123 105 123 110 127 c 1,6,7
 111 101 111 101 113 87 c 128,-1,8
 115 73 115 73 120 61 c 0,9,10
 137 29 137 29 169 29 c 0,11,12
 184 29 184 29 199 36 c 128,-1,13
 214 43 214 43 226 54.5 c 128,-1,14
 238 66 238 66 246 79.5 c 128,-1,15
 254 93 254 93 254 107 c 0,16,17
 254 116 254 116 252 123 c 128,-1,18
 250 130 250 130 244 137.5 c 128,-1,19
 238 145 238 145 227 154 c 128,-1,20
 216 163 216 163 197 176 c 0,21,22
 168 196 168 196 155.5 215.5 c 128,-1,23
 143 235 143 235 143 258 c 0,24,25
 143 283 143 283 159 310 c 128,-1,26
 175 337 175 337 199.5 359.5 c 128,-1,27
 224 382 224 382 253.5 396.5 c 128,-1,28
 283 411 283 411 310 411 c 0,29,30
 331 411 331 411 346.5 403 c 128,-1,31
 362 395 362 395 377 377 c 1,32,33
 372 370 372 370 369 365.5 c 128,-1,34
 366 361 366 361 361.5 356 c 128,-1,35
 357 351 357 351 350 344 c 128,-1,36
 343 337 343 337 330 325 c 1,37,38
 313 346 313 346 299.5 355 c 128,-1,39
 286 364 286 364 268 364 c 0,40,41
 242 364 242 364 223.5 345 c 128,-1,42
 205 326 205 326 205 300 c 0,43,44
 205 280 205 280 216 265 c 128,-1,45
 227 250 227 250 253 233 c 0,46,47
 274 220 274 220 286.5 211 c 128,-1,48
 299 202 299 202 305.5 193.5 c 128,-1,49
 312 185 312 185 314 176 c 128,-1,50
 316 167 316 167 316 153 c 0,51,52
 316 114 316 114 289.5 77.5 c 128,-1,53
 263 41 263 41 217 15 c 0,54,55
 194 2 194 2 166 -5.5 c 128,-1,56
 138 -13 138 -13 115 -13 c 0,57,58
 82 -13 82 -13 61.5 7 c 128,-1,59
 41 27 41 27 41 60 c 0,60,61
 41 65 41 65 41.5 70.5 c 128,-1,62
 42 76 42 76 43 83 c 1,63,-1
 61 95 l 2,0,1
477 626 m 1,64,65
 439 588 439 588 414 563 c 128,-1,66
 389 538 389 538 370 520 c 128,-1,67
 351 502 351 502 336 489 c 128,-1,68
 321 476 321 476 304 461 c 0,69,70
 297 459 297 459 294.5 458.5 c 128,-1,71
 292 458 292 458 290 458 c 0,72,73
 284 458 284 458 277 461 c 1,74,75
 274 509 274 509 270.5 552 c 128,-1,76
 267 595 267 595 264 634 c 1,77,78
 280 643 280 643 284.5 645.5 c 128,-1,79
 289 648 289 648 299 655 c 1,80,81
 303 621 303 621 306 601.5 c 128,-1,82
 309 582 309 582 310.5 569 c 128,-1,83
 312 556 312 556 314 545.5 c 128,-1,84
 316 535 316 535 319 520 c 1,85,86
 340 537 340 537 353.5 548 c 128,-1,87
 367 559 367 559 379 569.5 c 128,-1,88
 391 580 391 580 405.5 593 c 128,-1,89
 420 606 420 606 444 628 c 0,90,91
 451 635 451 635 458 641.5 c 128,-1,92
 465 648 465 648 473 655 c 1,93,-1
 474 645 l 1,94,-1
 475 636 l 1,95,-1
 477 626 l 1,64,65
EndSplineSet
EndChar

StartChar: udieresis
Encoding: 252 252 49
Width: 460
Flags: W
LayerCount: 2
Back
Fore
SplineSet
446 401 m 2,0,1
 453 405 453 405 459.5 408.5 c 128,-1,2
 466 412 466 412 472 415 c 1,3,4
 455 367 455 367 440.5 317 c 128,-1,5
 426 267 426 267 415.5 222.5 c 128,-1,6
 405 178 405 178 398.5 142.5 c 128,-1,7
 392 107 392 107 392 88 c 0,8,9
 392 64 392 64 404 64 c 0,10,11
 408 64 408 64 415 67 c 128,-1,12
 422 70 422 70 435.5 77 c 128,-1,13
 449 84 449 84 469 95.5 c 128,-1,14
 489 107 489 107 518 124 c 1,15,-1
 511 94 l 1,16,17
 499 85 499 85 489.5 78 c 128,-1,18
 480 71 480 71 469.5 64 c 128,-1,19
 459 57 459 57 446.5 49 c 128,-1,20
 434 41 434 41 417 31 c 0,21,22
 395 18 395 18 380.5 9.5 c 128,-1,23
 366 1 366 1 356 -4 c 128,-1,24
 346 -9 346 -9 339.5 -11 c 128,-1,25
 333 -13 333 -13 328 -13 c 0,26,27
 320 -13 320 -13 315 -6.5 c 128,-1,28
 310 0 310 0 310 10 c 0,29,30
 310 24 310 24 313.5 47 c 128,-1,31
 317 70 317 70 324 96 c 1,32,33
 315 90 315 90 308.5 85.5 c 128,-1,34
 302 81 302 81 292.5 75 c 128,-1,35
 283 69 283 69 266.5 58.5 c 128,-1,36
 250 48 250 48 221 29 c 0,37,38
 183 3 183 3 166 -5 c 128,-1,39
 149 -13 149 -13 138 -13 c 0,40,41
 126 -13 126 -13 118 1 c 128,-1,42
 110 15 110 15 110 36 c 0,43,44
 110 47 110 47 111.5 58.5 c 128,-1,45
 113 70 113 70 116.5 86.5 c 128,-1,46
 120 103 120 103 126 127 c 128,-1,47
 132 151 132 151 141 186 c 0,48,49
 169 291 169 291 169 310 c 256,50,51
 169 329 169 329 155 329 c 0,52,53
 139 329 139 329 82 300 c 1,54,-1
 89 327 l 1,55,56
 117 344 117 344 143 359.5 c 128,-1,57
 169 375 169 375 190 386.5 c 128,-1,58
 211 398 211 398 225.5 404.5 c 128,-1,59
 240 411 240 411 244 411 c 0,60,61
 256 411 256 411 256 398 c 0,62,63
 256 389 256 389 251 371 c 0,64,65
 246 354 246 354 242 337 c 128,-1,66
 238 320 238 320 233 301 c 0,67,68
 230 287 230 287 226.5 273.5 c 128,-1,69
 223 260 223 260 219 246 c 0,70,71
 217 239 217 239 216.5 236.5 c 128,-1,72
 216 234 216 234 215.5 232.5 c 128,-1,73
 215 231 215 231 214.5 228.5 c 128,-1,74
 214 226 214 226 212 219 c 0,75,76
 199 170 199 170 193 139.5 c 128,-1,77
 187 109 187 109 187 92 c 0,78,79
 187 77 187 77 192.5 68 c 128,-1,80
 198 59 198 59 207 59 c 256,81,82
 216 59 216 59 244 76 c 128,-1,83
 272 93 272 93 330 132 c 1,84,85
 355 235 355 235 369.5 295.5 c 128,-1,86
 384 356 384 356 389 373 c 1,87,88
 399 379 399 379 409 383 c 2,89,-1
 446 401 l 2,0,1
431 601 m 2,90,91
 434 604 434 604 437.5 606.5 c 128,-1,92
 441 609 441 609 445 612 c 1,93,94
 449 602 449 602 451.5 596.5 c 128,-1,95
 454 591 454 591 455 588 c 128,-1,96
 456 585 456 585 457 583 c 128,-1,97
 458 581 458 581 459 578 c 0,98,99
 462 572 462 572 466 565 c 128,-1,100
 470 558 470 558 479 544 c 1,101,102
 474 540 474 540 470 536.5 c 128,-1,103
 466 533 466 533 461 530 c 0,104,105
 455 525 455 525 451 522 c 128,-1,106
 447 519 447 519 442.5 515 c 128,-1,107
 438 511 438 511 431.5 505 c 128,-1,108
 425 499 425 499 414 489 c 1,109,110
 397 512 397 512 389.5 527 c 128,-1,111
 382 542 382 542 376 559 c 1,112,113
 386 566 386 566 390.5 569 c 128,-1,114
 395 572 395 572 402 577 c 2,115,-1
 431 601 l 2,90,91
281 489 m 1,116,117
 264 514 264 514 256.5 528 c 128,-1,118
 249 542 249 542 243 559 c 1,119,120
 253 566 253 566 259 570 c 128,-1,121
 265 574 265 574 270.5 578.5 c 128,-1,122
 276 583 276 583 282 588 c 128,-1,123
 288 593 288 593 298 601 c 0,124,125
 302 604 302 604 305 607 c 128,-1,126
 308 610 308 610 312 612 c 1,127,128
 316 602 316 602 318.5 596.5 c 128,-1,129
 321 591 321 591 322.5 588 c 128,-1,130
 324 585 324 585 324.5 583 c 128,-1,131
 325 581 325 581 327 578 c 0,132,133
 330 572 330 572 334 565 c 128,-1,134
 338 558 338 558 346 544 c 1,135,136
 329 530 329 530 324.5 527 c 128,-1,137
 320 524 320 524 314 519 c 256,138,139
 308 514 308 514 301.5 508 c 128,-1,140
 295 502 295 502 281 489 c 1,116,117
EndSplineSet
EndChar

StartChar: uacute
Encoding: 250 250 50
Width: 460
Flags: W
LayerCount: 2
Back
Fore
SplineSet
446 401 m 2,0,1
 453 405 453 405 459.5 408.5 c 128,-1,2
 466 412 466 412 472 415 c 1,3,4
 455 367 455 367 440.5 317 c 128,-1,5
 426 267 426 267 415.5 222.5 c 128,-1,6
 405 178 405 178 398.5 142.5 c 128,-1,7
 392 107 392 107 392 88 c 0,8,9
 392 64 392 64 404 64 c 0,10,11
 408 64 408 64 415 67 c 128,-1,12
 422 70 422 70 435.5 77 c 128,-1,13
 449 84 449 84 469 95.5 c 128,-1,14
 489 107 489 107 518 124 c 1,15,-1
 511 94 l 1,16,17
 499 85 499 85 489.5 78 c 128,-1,18
 480 71 480 71 469.5 64 c 128,-1,19
 459 57 459 57 446.5 49 c 128,-1,20
 434 41 434 41 417 31 c 0,21,22
 395 18 395 18 380.5 9.5 c 128,-1,23
 366 1 366 1 356 -4 c 128,-1,24
 346 -9 346 -9 339.5 -11 c 128,-1,25
 333 -13 333 -13 328 -13 c 0,26,27
 320 -13 320 -13 315 -6.5 c 128,-1,28
 310 0 310 0 310 10 c 0,29,30
 310 24 310 24 313.5 47 c 128,-1,31
 317 70 317 70 324 96 c 1,32,33
 315 90 315 90 308.5 85.5 c 128,-1,34
 302 81 302 81 292.5 75 c 128,-1,35
 283 69 283 69 266.5 58.5 c 128,-1,36
 250 48 250 48 221 29 c 0,37,38
 183 3 183 3 166 -5 c 128,-1,39
 149 -13 149 -13 138 -13 c 0,40,41
 126 -13 126 -13 118 1 c 128,-1,42
 110 15 110 15 110 36 c 0,43,44
 110 47 110 47 111.5 58.5 c 128,-1,45
 113 70 113 70 116.5 86.5 c 128,-1,46
 120 103 120 103 126 127 c 128,-1,47
 132 151 132 151 141 186 c 0,48,49
 169 291 169 291 169 310 c 256,50,51
 169 329 169 329 155 329 c 0,52,53
 139 329 139 329 82 300 c 1,54,-1
 89 327 l 1,55,56
 117 344 117 344 143 359.5 c 128,-1,57
 169 375 169 375 190 386.5 c 128,-1,58
 211 398 211 398 225.5 404.5 c 128,-1,59
 240 411 240 411 244 411 c 0,60,61
 256 411 256 411 256 398 c 0,62,63
 256 389 256 389 251 371 c 0,64,65
 246 354 246 354 242 337 c 128,-1,66
 238 320 238 320 233 301 c 0,67,68
 230 287 230 287 226.5 273.5 c 128,-1,69
 223 260 223 260 219 246 c 0,70,71
 217 239 217 239 216.5 236.5 c 128,-1,72
 216 234 216 234 215.5 232.5 c 128,-1,73
 215 231 215 231 214.5 228.5 c 128,-1,74
 214 226 214 226 212 219 c 0,75,76
 199 170 199 170 193 139.5 c 128,-1,77
 187 109 187 109 187 92 c 0,78,79
 187 77 187 77 192.5 68 c 128,-1,80
 198 59 198 59 207 59 c 256,81,82
 216 59 216 59 244 76 c 128,-1,83
 272 93 272 93 330 132 c 1,84,85
 355 235 355 235 369.5 295.5 c 128,-1,86
 384 356 384 356 389 373 c 1,87,88
 399 379 399 379 409 383 c 2,89,-1
 446 401 l 2,0,1
295 466 m 1,90,91
 346 533 346 533 433 655 c 1,92,-1
 478 633 l 1,93,94
 449 604 449 604 429.5 583.5 c 128,-1,95
 410 563 410 563 393 544.5 c 128,-1,96
 376 526 376 526 359 506.5 c 128,-1,97
 342 487 342 487 319 460 c 1,98,-1
 295 466 l 1,90,91
EndSplineSet
EndChar

StartChar: ugrave
Encoding: 249 249 51
Width: 460
Flags: W
LayerCount: 2
Back
Fore
SplineSet
446 401 m 2,0,1
 453 405 453 405 459.5 408.5 c 128,-1,2
 466 412 466 412 472 415 c 1,3,4
 455 367 455 367 440.5 317 c 128,-1,5
 426 267 426 267 415.5 222.5 c 128,-1,6
 405 178 405 178 398.5 142.5 c 128,-1,7
 392 107 392 107 392 88 c 0,8,9
 392 64 392 64 404 64 c 0,10,11
 408 64 408 64 415 67 c 128,-1,12
 422 70 422 70 435.5 77 c 128,-1,13
 449 84 449 84 469 95.5 c 128,-1,14
 489 107 489 107 518 124 c 1,15,-1
 511 94 l 1,16,17
 499 85 499 85 489.5 78 c 128,-1,18
 480 71 480 71 469.5 64 c 128,-1,19
 459 57 459 57 446.5 49 c 128,-1,20
 434 41 434 41 417 31 c 0,21,22
 395 18 395 18 380.5 9.5 c 128,-1,23
 366 1 366 1 356 -4 c 128,-1,24
 346 -9 346 -9 339.5 -11 c 128,-1,25
 333 -13 333 -13 328 -13 c 0,26,27
 320 -13 320 -13 315 -6.5 c 128,-1,28
 310 0 310 0 310 10 c 0,29,30
 310 24 310 24 313.5 47 c 128,-1,31
 317 70 317 70 324 96 c 1,32,33
 315 90 315 90 308.5 85.5 c 128,-1,34
 302 81 302 81 292.5 75 c 128,-1,35
 283 69 283 69 266.5 58.5 c 128,-1,36
 250 48 250 48 221 29 c 0,37,38
 183 3 183 3 166 -5 c 128,-1,39
 149 -13 149 -13 138 -13 c 0,40,41
 126 -13 126 -13 118 1 c 128,-1,42
 110 15 110 15 110 36 c 0,43,44
 110 47 110 47 111.5 58.5 c 128,-1,45
 113 70 113 70 116.5 86.5 c 128,-1,46
 120 103 120 103 126 127 c 128,-1,47
 132 151 132 151 141 186 c 0,48,49
 169 291 169 291 169 310 c 256,50,51
 169 329 169 329 155 329 c 0,52,53
 139 329 139 329 82 300 c 1,54,-1
 89 327 l 1,55,56
 117 344 117 344 143 359.5 c 128,-1,57
 169 375 169 375 190 386.5 c 128,-1,58
 211 398 211 398 225.5 404.5 c 128,-1,59
 240 411 240 411 244 411 c 0,60,61
 256 411 256 411 256 398 c 0,62,63
 256 389 256 389 251 371 c 0,64,65
 246 354 246 354 242 337 c 128,-1,66
 238 320 238 320 233 301 c 0,67,68
 230 287 230 287 226.5 273.5 c 128,-1,69
 223 260 223 260 219 246 c 0,70,71
 217 239 217 239 216.5 236.5 c 128,-1,72
 216 234 216 234 215.5 232.5 c 128,-1,73
 215 231 215 231 214.5 228.5 c 128,-1,74
 214 226 214 226 212 219 c 0,75,76
 199 170 199 170 193 139.5 c 128,-1,77
 187 109 187 109 187 92 c 0,78,79
 187 77 187 77 192.5 68 c 128,-1,80
 198 59 198 59 207 59 c 256,81,82
 216 59 216 59 244 76 c 128,-1,83
 272 93 272 93 330 132 c 1,84,85
 355 235 355 235 369.5 295.5 c 128,-1,86
 384 356 384 356 389 373 c 1,87,88
 399 379 399 379 409 383 c 2,89,-1
 446 401 l 2,0,1
319 655 m 1,90,91
 331 622 331 622 339 599.5 c 128,-1,92
 347 577 347 577 353.5 557 c 128,-1,93
 360 537 360 537 366 516 c 128,-1,94
 372 495 372 495 381 466 c 1,95,96
 372 463 372 463 368 462.5 c 128,-1,97
 364 462 364 462 356 460 c 1,98,99
 339 497 339 497 326.5 523.5 c 128,-1,100
 314 550 314 550 305 569 c 128,-1,101
 296 588 296 588 288.5 602 c 128,-1,102
 281 616 281 616 273 630 c 1,103,-1
 286 637 l 1,104,-1
 303 646 l 1,105,-1
 319 655 l 1,90,91
EndSplineSet
EndChar

StartChar: ucircumflex
Encoding: 251 251 52
Width: 460
Flags: W
LayerCount: 2
Back
Fore
SplineSet
446 401 m 2,0,1
 453 405 453 405 459.5 408.5 c 128,-1,2
 466 412 466 412 472 415 c 1,3,4
 455 367 455 367 440.5 317 c 128,-1,5
 426 267 426 267 415.5 222.5 c 128,-1,6
 405 178 405 178 398.5 142.5 c 128,-1,7
 392 107 392 107 392 88 c 0,8,9
 392 64 392 64 404 64 c 0,10,11
 408 64 408 64 415 67 c 128,-1,12
 422 70 422 70 435.5 77 c 128,-1,13
 449 84 449 84 469 95.5 c 128,-1,14
 489 107 489 107 518 124 c 1,15,-1
 511 94 l 1,16,17
 499 85 499 85 489.5 78 c 128,-1,18
 480 71 480 71 469.5 64 c 128,-1,19
 459 57 459 57 446.5 49 c 128,-1,20
 434 41 434 41 417 31 c 0,21,22
 395 18 395 18 380.5 9.5 c 128,-1,23
 366 1 366 1 356 -4 c 128,-1,24
 346 -9 346 -9 339.5 -11 c 128,-1,25
 333 -13 333 -13 328 -13 c 0,26,27
 320 -13 320 -13 315 -6.5 c 128,-1,28
 310 0 310 0 310 10 c 0,29,30
 310 24 310 24 313.5 47 c 128,-1,31
 317 70 317 70 324 96 c 1,32,33
 315 90 315 90 308.5 85.5 c 128,-1,34
 302 81 302 81 292.5 75 c 128,-1,35
 283 69 283 69 266.5 58.5 c 128,-1,36
 250 48 250 48 221 29 c 0,37,38
 183 3 183 3 166 -5 c 128,-1,39
 149 -13 149 -13 138 -13 c 0,40,41
 126 -13 126 -13 118 1 c 128,-1,42
 110 15 110 15 110 36 c 0,43,44
 110 47 110 47 111.5 58.5 c 128,-1,45
 113 70 113 70 116.5 86.5 c 128,-1,46
 120 103 120 103 126 127 c 128,-1,47
 132 151 132 151 141 186 c 0,48,49
 169 291 169 291 169 310 c 256,50,51
 169 329 169 329 155 329 c 0,52,53
 139 329 139 329 82 300 c 1,54,-1
 89 327 l 1,55,56
 117 344 117 344 143 359.5 c 128,-1,57
 169 375 169 375 190 386.5 c 128,-1,58
 211 398 211 398 225.5 404.5 c 128,-1,59
 240 411 240 411 244 411 c 0,60,61
 256 411 256 411 256 398 c 0,62,63
 256 389 256 389 251 371 c 0,64,65
 246 354 246 354 242 337 c 128,-1,66
 238 320 238 320 233 301 c 0,67,68
 230 287 230 287 226.5 273.5 c 128,-1,69
 223 260 223 260 219 246 c 0,70,71
 217 239 217 239 216.5 236.5 c 128,-1,72
 216 234 216 234 215.5 232.5 c 128,-1,73
 215 231 215 231 214.5 228.5 c 128,-1,74
 214 226 214 226 212 219 c 0,75,76
 199 170 199 170 193 139.5 c 128,-1,77
 187 109 187 109 187 92 c 0,78,79
 187 77 187 77 192.5 68 c 128,-1,80
 198 59 198 59 207 59 c 256,81,82
 216 59 216 59 244 76 c 128,-1,83
 272 93 272 93 330 132 c 1,84,85
 355 235 355 235 369.5 295.5 c 128,-1,86
 384 356 384 356 389 373 c 1,87,88
 399 379 399 379 409 383 c 2,89,-1
 446 401 l 2,0,1
243 488 m 1,90,91
 283 529 283 529 309 554.5 c 128,-1,92
 335 580 335 580 353.5 597.5 c 128,-1,93
 372 615 372 615 385.5 627.5 c 128,-1,94
 399 640 399 640 416 654 c 0,95,96
 422 655 422 655 425 655.5 c 128,-1,97
 428 656 428 656 430 656 c 0,98,99
 433 656 433 656 443 654 c 1,100,101
 444 634 444 634 445 620.5 c 128,-1,102
 446 607 446 607 447 597.5 c 128,-1,103
 448 588 448 588 448.5 581.5 c 128,-1,104
 449 575 449 575 449 569 c 0,105,106
 451 548 451 548 453 525 c 128,-1,107
 455 502 455 502 457 480 c 1,108,109
 447 475 447 475 441 471.5 c 128,-1,110
 435 468 435 468 421 460 c 1,111,-1
 418 483 l 1,112,-1
 412 530 l 2,113,114
 410 539 410 539 408 555 c 128,-1,115
 406 571 406 571 401 594 c 1,116,117
 389 584 389 584 379.5 576.5 c 128,-1,118
 370 569 370 569 362 562.5 c 128,-1,119
 354 556 354 556 346 549 c 128,-1,120
 338 542 338 542 328 534 c 0,121,122
 307 514 307 514 287 496 c 128,-1,123
 267 478 267 478 247 460 c 1,124,-1
 246 469 l 1,125,-1
 245 479 l 1,126,-1
 243 488 l 1,90,91
EndSplineSet
EndChar

StartChar: yacute
Encoding: 253 253 53
Width: 400
Flags: W
LayerCount: 2
Back
Fore
SplineSet
51 -173 m 1,0,1
 73 -179 73 -179 89 -182.5 c 128,-1,2
 105 -186 105 -186 117.5 -188 c 128,-1,3
 130 -190 130 -190 140 -190.5 c 128,-1,4
 150 -191 150 -191 161 -191 c 0,5,6
 211 -191 211 -191 236.5 -175 c 128,-1,7
 262 -159 262 -159 274 -121 c 0,8,9
 278 -107 278 -107 281 -96.5 c 128,-1,10
 284 -86 284 -86 288.5 -65.5 c 128,-1,11
 293 -45 293 -45 301 -7.5 c 128,-1,12
 309 30 309 30 324 99 c 1,13,14
 308 88 308 88 298 81 c 128,-1,15
 288 74 288 74 276 66 c 128,-1,16
 264 58 264 58 246 46.5 c 128,-1,17
 228 35 228 35 196 15 c 0,18,19
 170 -2 170 -2 157.5 -7.5 c 128,-1,20
 145 -13 145 -13 136 -13 c 0,21,22
 121 -13 121 -13 111 2.5 c 128,-1,23
 101 18 101 18 101 43 c 0,24,25
 101 53 101 53 102 62.5 c 128,-1,26
 103 72 103 72 106 86.5 c 128,-1,27
 109 101 109 101 115 122.5 c 128,-1,28
 121 144 121 144 130 178 c 256,29,30
 139 212 139 212 145 235 c 128,-1,31
 151 258 151 258 154.5 273 c 128,-1,32
 158 288 158 288 159.5 297.5 c 128,-1,33
 161 307 161 307 161 314 c 0,34,35
 161 329 161 329 146 329 c 0,36,37
 141 329 141 329 137 328.5 c 128,-1,38
 133 328 133 328 126 325 c 128,-1,39
 119 322 119 322 107.5 316 c 128,-1,40
 96 310 96 310 77 300 c 1,41,-1
 80 327 l 1,42,43
 146 366 146 366 188.5 388.5 c 128,-1,44
 231 411 231 411 239 411 c 0,45,46
 250 411 250 411 250 399 c 0,47,48
 250 385 250 385 210 235 c 0,49,50
 183 130 183 130 183 96 c 0,51,52
 183 82 183 82 189 73 c 128,-1,53
 195 64 195 64 205 64 c 0,54,55
 211 64 211 64 217 65.5 c 128,-1,56
 223 67 223 67 235 73 c 128,-1,57
 247 79 247 79 268 92 c 128,-1,58
 289 105 289 105 327 129 c 1,59,60
 331 147 331 147 334.5 160 c 128,-1,61
 338 173 338 173 341 186 c 128,-1,62
 344 199 344 199 348 214.5 c 128,-1,63
 352 230 352 230 358 254 c 2,64,-1
 379 336 l 1,65,-1
 388 372 l 1,66,67
 393 375 393 375 398.5 377.5 c 128,-1,68
 404 380 404 380 410 383 c 0,69,70
 418 387 418 387 427 391 c 128,-1,71
 436 395 436 395 445 400 c 0,72,73
 461 407 461 407 473 415 c 1,74,75
 460 374 460 374 449.5 337 c 128,-1,76
 439 300 439 300 429 260.5 c 128,-1,77
 419 221 419 221 408.5 174.5 c 128,-1,78
 398 128 398 128 385 68 c 0,79,80
 372 7 372 7 363.5 -29 c 128,-1,81
 355 -65 355 -65 345.5 -88 c 128,-1,82
 336 -111 336 -111 323 -128 c 128,-1,83
 310 -145 310 -145 288 -168 c 0,84,85
 267 -191 267 -191 248 -206 c 128,-1,86
 229 -221 229 -221 209.5 -230.5 c 128,-1,87
 190 -240 190 -240 169 -244 c 128,-1,88
 148 -248 148 -248 123 -248 c 0,89,90
 94 -248 94 -248 65 -246 c 128,-1,91
 36 -244 36 -244 11 -241 c 1,92,-1
 51 -173 l 1,0,1
295 466 m 1,93,94
 346 533 346 533 433 655 c 1,95,-1
 478 633 l 1,96,97
 449 604 449 604 429.5 583.5 c 128,-1,98
 410 563 410 563 393 544.5 c 128,-1,99
 376 526 376 526 359 506.5 c 128,-1,100
 342 487 342 487 319 460 c 1,101,-1
 295 466 l 1,93,94
EndSplineSet
EndChar

StartChar: zcaron
Encoding: 382 382 54
Width: 440
Flags: W
LayerCount: 2
Back
Fore
SplineSet
46 43 m 1,0,1
 98 88 98 88 143.5 128.5 c 128,-1,2
 189 169 189 169 229 205.5 c 128,-1,3
 269 242 269 242 305 276 c 128,-1,4
 341 310 341 310 375 343 c 1,5,6
 367 341 367 341 362 340 c 128,-1,7
 357 339 357 339 352.5 338.5 c 128,-1,8
 348 338 348 338 342 337.5 c 128,-1,9
 336 337 336 337 327 337 c 2,10,-1
 258 336 l 2,11,12
 242 335 242 335 231.5 332.5 c 128,-1,13
 221 330 221 330 213 324 c 128,-1,14
 205 318 205 318 198.5 307.5 c 128,-1,15
 192 297 192 297 184 279 c 0,16,17
 182 274 182 274 178.5 267 c 128,-1,18
 175 260 175 260 170 250 c 1,19,-1
 152 269 l 1,20,21
 170 317 170 317 180.5 343.5 c 128,-1,22
 191 370 191 370 198.5 382 c 128,-1,23
 206 394 206 394 212.5 396.5 c 128,-1,24
 219 399 219 399 230 399 c 2,25,-1
 238 399 l 2,26,27
 247 399 247 399 266 398.5 c 128,-1,28
 285 398 285 398 306 397.5 c 128,-1,29
 327 397 327 397 346 396.5 c 128,-1,30
 365 396 365 396 375 396 c 0,31,32
 394 396 394 396 406.5 396.5 c 128,-1,33
 419 397 419 397 429 400 c 128,-1,34
 439 403 439 403 449.5 409 c 128,-1,35
 460 415 460 415 475 426 c 1,36,-1
 475 422 l 2,37,38
 475 420 475 420 475 417 c 128,-1,39
 475 414 475 414 474 409 c 2,40,-1
 474 402 l 1,41,42
 461 389 461 389 453.5 381.5 c 128,-1,43
 446 374 446 374 440.5 368 c 128,-1,44
 435 362 435 362 429 356 c 128,-1,45
 423 350 423 350 414 341 c 0,46,47
 284 215 284 215 211 147 c 2,48,-1
 168 105 l 1,49,50
 212 85 212 85 241 73.5 c 128,-1,51
 270 62 270 62 289.5 55 c 128,-1,52
 309 48 309 48 322 46 c 128,-1,53
 335 44 335 44 348 44 c 0,54,55
 373 44 373 44 389.5 60.5 c 128,-1,56
 406 77 406 77 406 101 c 0,57,58
 406 110 406 110 404 118.5 c 128,-1,59
 402 127 402 127 395 142 c 1,60,61
 408 151 408 151 412.5 154 c 128,-1,62
 417 157 417 157 428 164 c 0,63,64
 435 169 435 169 441 173 c 128,-1,65
 447 177 447 177 454 181 c 1,66,67
 462 164 462 164 465 155 c 128,-1,68
 468 146 468 146 468 136 c 0,69,70
 468 117 468 117 455.5 97 c 128,-1,71
 443 77 443 77 412 48 c 0,72,73
 376 13 376 13 353 0 c 128,-1,74
 330 -13 330 -13 304 -13 c 0,75,76
 285 -13 285 -13 261 -7 c 128,-1,77
 237 -1 237 -1 196 13 c 2,78,-1
 129 37 l 2,79,80
 111 42 111 42 97 47 c 1,81,82
 81 38 81 38 72 32.5 c 128,-1,83
 63 27 63 27 49 18 c 1,84,85
 46 30 46 30 46 37 c 2,86,-1
 46 43 l 1,0,1
527 626 m 1,87,88
 489 588 489 588 464 563 c 128,-1,89
 439 538 439 538 420 520 c 128,-1,90
 401 502 401 502 386 489 c 128,-1,91
 371 476 371 476 354 461 c 0,92,93
 347 459 347 459 344.5 458.5 c 128,-1,94
 342 458 342 458 340 458 c 0,95,96
 334 458 334 458 327 461 c 1,97,98
 324 509 324 509 320.5 552 c 128,-1,99
 317 595 317 595 314 634 c 1,100,101
 330 643 330 643 334.5 645.5 c 128,-1,102
 339 648 339 648 349 655 c 1,103,104
 353 621 353 621 356 601.5 c 128,-1,105
 359 582 359 582 360.5 569 c 128,-1,106
 362 556 362 556 364 545.5 c 128,-1,107
 366 535 366 535 369 520 c 1,108,109
 390 537 390 537 403.5 548 c 128,-1,110
 417 559 417 559 429 569.5 c 128,-1,111
 441 580 441 580 455.5 593 c 128,-1,112
 470 606 470 606 494 628 c 0,113,114
 501 635 501 635 508 641.5 c 128,-1,115
 515 648 515 648 523 655 c 1,116,-1
 524 645 l 1,117,-1
 525 636 l 1,118,-1
 527 626 l 1,87,88
EndSplineSet
EndChar

StartChar: ydieresis
Encoding: 255 255 55
Width: 400
Flags: W
LayerCount: 2
Back
Fore
SplineSet
51 -173 m 1,0,1
 73 -179 73 -179 89 -182.5 c 128,-1,2
 105 -186 105 -186 117.5 -188 c 128,-1,3
 130 -190 130 -190 140 -190.5 c 128,-1,4
 150 -191 150 -191 161 -191 c 0,5,6
 211 -191 211 -191 236.5 -175 c 128,-1,7
 262 -159 262 -159 274 -121 c 0,8,9
 278 -107 278 -107 281 -96.5 c 128,-1,10
 284 -86 284 -86 288.5 -65.5 c 128,-1,11
 293 -45 293 -45 301 -7.5 c 128,-1,12
 309 30 309 30 324 99 c 1,13,14
 308 88 308 88 298 81 c 128,-1,15
 288 74 288 74 276 66 c 128,-1,16
 264 58 264 58 246 46.5 c 128,-1,17
 228 35 228 35 196 15 c 0,18,19
 170 -2 170 -2 157.5 -7.5 c 128,-1,20
 145 -13 145 -13 136 -13 c 0,21,22
 121 -13 121 -13 111 2.5 c 128,-1,23
 101 18 101 18 101 43 c 0,24,25
 101 53 101 53 102 62.5 c 128,-1,26
 103 72 103 72 106 86.5 c 128,-1,27
 109 101 109 101 115 122.5 c 128,-1,28
 121 144 121 144 130 178 c 256,29,30
 139 212 139 212 145 235 c 128,-1,31
 151 258 151 258 154.5 273 c 128,-1,32
 158 288 158 288 159.5 297.5 c 128,-1,33
 161 307 161 307 161 314 c 0,34,35
 161 329 161 329 146 329 c 0,36,37
 141 329 141 329 137 328.5 c 128,-1,38
 133 328 133 328 126 325 c 128,-1,39
 119 322 119 322 107.5 316 c 128,-1,40
 96 310 96 310 77 300 c 1,41,-1
 80 327 l 1,42,43
 146 366 146 366 188.5 388.5 c 128,-1,44
 231 411 231 411 239 411 c 0,45,46
 250 411 250 411 250 399 c 0,47,48
 250 385 250 385 210 235 c 0,49,50
 183 130 183 130 183 96 c 0,51,52
 183 82 183 82 189 73 c 128,-1,53
 195 64 195 64 205 64 c 0,54,55
 211 64 211 64 217 65.5 c 128,-1,56
 223 67 223 67 235 73 c 128,-1,57
 247 79 247 79 268 92 c 128,-1,58
 289 105 289 105 327 129 c 1,59,60
 331 147 331 147 334.5 160 c 128,-1,61
 338 173 338 173 341 186 c 128,-1,62
 344 199 344 199 348 214.5 c 128,-1,63
 352 230 352 230 358 254 c 2,64,-1
 379 336 l 1,65,-1
 388 372 l 1,66,67
 393 375 393 375 398.5 377.5 c 128,-1,68
 404 380 404 380 410 383 c 0,69,70
 418 387 418 387 427 391 c 128,-1,71
 436 395 436 395 445 400 c 0,72,73
 461 407 461 407 473 415 c 1,74,75
 460 374 460 374 449.5 337 c 128,-1,76
 439 300 439 300 429 260.5 c 128,-1,77
 419 221 419 221 408.5 174.5 c 128,-1,78
 398 128 398 128 385 68 c 0,79,80
 372 7 372 7 363.5 -29 c 128,-1,81
 355 -65 355 -65 345.5 -88 c 128,-1,82
 336 -111 336 -111 323 -128 c 128,-1,83
 310 -145 310 -145 288 -168 c 0,84,85
 267 -191 267 -191 248 -206 c 128,-1,86
 229 -221 229 -221 209.5 -230.5 c 128,-1,87
 190 -240 190 -240 169 -244 c 128,-1,88
 148 -248 148 -248 123 -248 c 0,89,90
 94 -248 94 -248 65 -246 c 128,-1,91
 36 -244 36 -244 11 -241 c 1,92,-1
 51 -173 l 1,0,1
424 601 m 2,93,94
 427 604 427 604 430.5 606.5 c 128,-1,95
 434 609 434 609 438 612 c 1,96,97
 442 602 442 602 444.5 596.5 c 128,-1,98
 447 591 447 591 448 588 c 128,-1,99
 449 585 449 585 450 583 c 128,-1,100
 451 581 451 581 452 578 c 0,101,102
 455 572 455 572 459 565 c 128,-1,103
 463 558 463 558 472 544 c 1,104,105
 467 540 467 540 463 536.5 c 128,-1,106
 459 533 459 533 454 530 c 0,107,108
 448 525 448 525 444 522 c 128,-1,109
 440 519 440 519 435.5 515 c 128,-1,110
 431 511 431 511 424.5 505 c 128,-1,111
 418 499 418 499 407 489 c 1,112,113
 390 512 390 512 382.5 527 c 128,-1,114
 375 542 375 542 369 559 c 1,115,116
 379 566 379 566 383.5 569 c 128,-1,117
 388 572 388 572 395 577 c 2,118,-1
 424 601 l 2,93,94
274 489 m 1,119,120
 257 514 257 514 249.5 528 c 128,-1,121
 242 542 242 542 236 559 c 1,122,123
 246 566 246 566 252 570 c 128,-1,124
 258 574 258 574 263.5 578.5 c 128,-1,125
 269 583 269 583 275 588 c 128,-1,126
 281 593 281 593 291 601 c 0,127,128
 295 604 295 604 298 607 c 128,-1,129
 301 610 301 610 305 612 c 1,130,131
 309 602 309 602 311.5 596.5 c 128,-1,132
 314 591 314 591 315.5 588 c 128,-1,133
 317 585 317 585 317.5 583 c 128,-1,134
 318 581 318 581 320 578 c 0,135,136
 323 572 323 572 327 565 c 128,-1,137
 331 558 331 558 339 544 c 1,138,139
 322 530 322 530 317.5 527 c 128,-1,140
 313 524 313 524 307 519 c 256,141,142
 301 514 301 514 294.5 508 c 128,-1,143
 288 502 288 502 274 489 c 1,119,120
EndSplineSet
EndChar

StartChar: A
Encoding: 65 65 56
Width: 620
Flags: W
LayerCount: 2
Back
Fore
SplineSet
61 79 m 1,0,1
 75 74 75 74 83.5 73 c 128,-1,2
 92 72 92 72 105 72 c 0,3,4
 140 72 140 72 166.5 84.5 c 128,-1,5
 193 97 193 97 225 129 c 0,6,7
 235 138 235 138 251 156 c 128,-1,8
 267 174 267 174 285 195.5 c 128,-1,9
 303 217 303 217 321.5 239.5 c 128,-1,10
 340 262 340 262 355 281 c 2,11,-1
 528 505 l 1,12,13
 507 507 507 507 497 507 c 128,-1,14
 487 507 487 507 473 509 c 2,15,-1
 421 515 l 2,16,17
 411 516 411 516 401.5 516.5 c 128,-1,18
 392 517 392 517 384 517 c 0,19,20
 329 517 329 517 298.5 493 c 128,-1,21
 268 469 268 469 268 426 c 0,22,23
 268 409 268 409 272.5 389.5 c 128,-1,24
 277 370 277 370 289 333 c 1,25,-1
 215 293 l 1,26,27
 207 315 207 315 204 329.5 c 128,-1,28
 201 344 201 344 201 361 c 0,29,30
 201 402 201 402 219 437 c 128,-1,31
 237 472 237 472 277 510 c 0,32,33
 347 579 347 579 417 579 c 0,34,35
 433 579 433 579 454 576.5 c 128,-1,36
 475 574 475 574 509 569 c 0,37,38
 524 567 524 567 532.5 565.5 c 128,-1,39
 541 564 541 564 547 563 c 128,-1,40
 553 562 553 562 557 562 c 128,-1,41
 561 562 561 562 566 562 c 0,42,43
 574 562 574 562 579 563 c 128,-1,44
 584 564 584 564 589.5 567 c 128,-1,45
 595 570 595 570 601.5 576.5 c 128,-1,46
 608 583 608 583 619 594 c 1,47,-1
 633 584 l 1,48,49
 625 544 625 544 617 496 c 128,-1,50
 609 448 609 448 601 397.5 c 128,-1,51
 593 347 593 347 586 297 c 128,-1,52
 579 247 579 247 573.5 204.5 c 128,-1,53
 568 162 568 162 565 129.5 c 128,-1,54
 562 97 562 97 562 81 c 0,55,56
 562 55 562 55 572.5 45.5 c 128,-1,57
 583 36 583 36 611 36 c 0,58,59
 624 36 624 36 633 36.5 c 128,-1,60
 642 37 642 37 664 39 c 2,61,-1
 687 41 l 1,62,-1
 671 17 l 1,63,64
 660 15 660 15 651.5 13.5 c 128,-1,65
 643 12 643 12 629 9.5 c 128,-1,66
 615 7 615 7 591.5 2.5 c 128,-1,67
 568 -2 568 -2 527 -9 c 0,68,69
 511 -13 511 -13 498 -13 c 0,70,71
 488 -13 488 -13 481.5 -7 c 128,-1,72
 475 -1 475 -1 475 9 c 0,73,74
 475 17 475 17 476.5 27.5 c 128,-1,75
 478 38 478 38 480 52 c 0,76,77
 483 75 483 75 486 93 c 0,78,79
 488 107 488 107 490 120 c 128,-1,80
 492 133 492 133 494 146 c 2,81,-1
 499 182 l 1,82,83
 470 184 470 184 426 185 c 128,-1,84
 382 186 382 186 322 186 c 1,85,86
 272 129 272 129 237 93 c 128,-1,87
 202 57 202 57 175 36.5 c 128,-1,88
 148 16 148 16 124.5 8 c 128,-1,89
 101 0 101 0 76 0 c 0,90,91
 62 0 62 0 51 2 c 128,-1,92
 40 4 40 4 23 9 c 1,93,-1
 61 79 l 1,0,1
505 227 m 1,94,-1
 546 480 l 1,95,-1
 353 227 l 1,96,-1
 505 227 l 1,94,-1
EndSplineSet
EndChar

StartChar: B
Encoding: 66 66 57
Width: 600
Flags: W
LayerCount: 2
Back
Fore
SplineSet
137 49 m 1,0,1
 173 53 173 53 196 61 c 128,-1,2
 219 69 219 69 235.5 90.5 c 128,-1,3
 252 112 252 112 264.5 150.5 c 128,-1,4
 277 189 277 189 293 254 c 2,5,-1
 367 550 l 1,6,7
 318 547 318 547 284 536.5 c 128,-1,8
 250 526 250 526 220 505 c 0,9,10
 184 480 184 480 168 447.5 c 128,-1,11
 152 415 152 415 152 365 c 0,12,13
 152 357 152 357 152.5 351.5 c 128,-1,14
 153 346 153 346 154 338.5 c 128,-1,15
 155 331 155 331 157 320 c 128,-1,16
 159 309 159 309 162 291 c 1,17,-1
 82 254 l 1,18,19
 78 277 78 277 76.5 290 c 128,-1,20
 75 303 75 303 75 319 c 0,21,22
 75 457 75 457 203 530 c 0,23,24
 236 549 236 549 275 560.5 c 128,-1,25
 314 572 314 572 376 581 c 1,26,-1
 457 616 l 1,27,-1
 449 585 l 1,28,-1
 471 585 l 2,29,30
 560 585 560 585 601 562 c 128,-1,31
 642 539 642 539 642 489 c 0,32,33
 642 394 642 394 493 326 c 1,34,35
 531 322 531 322 550.5 316 c 128,-1,36
 570 310 570 310 586 297 c 0,37,38
 624 267 624 267 624 220 c 0,39,40
 624 112 624 112 490 44 c 0,41,42
 439 19 439 19 396.5 8.5 c 128,-1,43
 354 -2 354 -2 303 -2 c 0,44,45
 296 -2 296 -2 291 -2 c 128,-1,46
 286 -2 286 -2 278 -2 c 128,-1,47
 270 -2 270 -2 256 -1.5 c 128,-1,48
 242 -1 242 -1 217 -1 c 2,49,-1
 182 0 l 1,50,-1
 148 0 l 2,51,52
 137 0 137 0 130 0.5 c 128,-1,53
 123 1 123 1 117.5 1 c 128,-1,54
 112 1 112 1 106 1 c 128,-1,55
 100 1 100 1 90 1 c 1,56,-1
 137 49 l 1,0,1
366 254 m 2,57,58
 358 220 358 220 350 196.5 c 128,-1,59
 342 173 342 173 327.5 152 c 128,-1,60
 313 131 313 131 290.5 108.5 c 128,-1,61
 268 86 268 86 231 53 c 1,62,63
 268 49 268 49 292.5 46.5 c 128,-1,64
 317 44 317 44 332.5 42.5 c 128,-1,65
 348 41 348 41 358.5 40.5 c 128,-1,66
 369 40 369 40 379 40 c 0,67,68
 455 40 455 40 496 87 c 0,69,70
 515 108 515 108 526 138 c 128,-1,71
 537 168 537 168 537 197 c 0,72,73
 537 244 537 244 505 269 c 128,-1,74
 473 294 473 294 414 294 c 0,75,76
 406 294 406 294 398 294 c 128,-1,77
 390 294 390 294 376 292 c 1,78,-1
 366 254 l 2,57,58
383 320 m 1,79,80
 425 321 425 321 451.5 328.5 c 128,-1,81
 478 336 478 336 501 355 c 0,82,83
 526 375 526 375 540.5 407 c 128,-1,84
 555 439 555 439 555 474 c 0,85,86
 555 500 555 500 544 520 c 128,-1,87
 533 540 533 540 514 548 c 0,88,89
 509 551 509 551 503.5 552.5 c 128,-1,90
 498 554 498 554 490.5 555 c 128,-1,91
 483 556 483 556 471.5 556.5 c 128,-1,92
 460 557 460 557 442 557 c 1,93,-1
 383 320 l 1,79,80
EndSplineSet
EndChar

StartChar: C
Encoding: 67 67 58
Width: 520
Flags: W
LayerCount: 2
Back
Fore
SplineSet
522 33 m 1,0,1
 456 -17 456 -17 381 -45 c 128,-1,2
 306 -73 306 -73 240 -73 c 0,3,4
 168 -73 168 -73 128 -29.5 c 128,-1,5
 88 14 88 14 88 92 c 0,6,7
 88 193 88 193 130.5 289.5 c 128,-1,8
 173 386 173 386 250 460 c 0,9,10
 316 523 316 523 385.5 557 c 128,-1,11
 455 591 455 591 518 591 c 0,12,13
 572 591 572 591 600 567 c 128,-1,14
 628 543 628 543 635 491 c 1,15,-1
 561 428 l 1,16,17
 556 488 556 488 533 516 c 128,-1,18
 510 544 510 544 465 544 c 0,19,20
 409 544 409 544 356 508.5 c 128,-1,21
 303 473 303 473 262 414.5 c 128,-1,22
 221 356 221 356 195.5 281.5 c 128,-1,23
 170 207 170 207 170 129 c 0,24,25
 170 57 170 57 204.5 15.5 c 128,-1,26
 239 -26 239 -26 299 -26 c 0,27,28
 352 -26 352 -26 406 -5.5 c 128,-1,29
 460 15 460 15 529 63 c 1,30,-1
 522 33 l 1,0,1
EndSplineSet
EndChar

StartChar: D
Encoding: 68 68 59
Width: 700
Flags: W
LayerCount: 2
Back
Fore
SplineSet
134 46 m 1,0,1
 174 49 174 49 201 58 c 128,-1,2
 228 67 228 67 246.5 89.5 c 128,-1,3
 265 112 265 112 278.5 150.5 c 128,-1,4
 292 189 292 189 307 252 c 2,5,-1
 382 550 l 1,6,7
 276 539 276 539 222 488 c 128,-1,8
 168 437 168 437 168 347 c 0,9,10
 168 333 168 333 169 322 c 128,-1,11
 170 311 170 311 175 291 c 1,12,-1
 93 254 l 1,13,14
 88 273 88 273 87 284.5 c 128,-1,15
 86 296 86 296 86 310 c 0,16,17
 86 441 86 441 219 522 c 0,18,19
 257 546 257 546 298.5 560 c 128,-1,20
 340 574 340 574 399 584 c 1,21,-1
 471 614 l 1,22,-1
 464 586 l 1,23,24
 502 584 502 584 531 581 c 128,-1,25
 560 578 560 578 583.5 573.5 c 128,-1,26
 607 569 607 569 625.5 563.5 c 128,-1,27
 644 558 644 558 661 550 c 0,28,29
 759 504 759 504 759 403 c 0,30,31
 759 372 759 372 753 338 c 128,-1,32
 747 304 747 304 736 271.5 c 128,-1,33
 725 239 725 239 709.5 209 c 128,-1,34
 694 179 694 179 676 155 c 0,35,36
 647 118 647 118 597 84.5 c 128,-1,37
 547 51 547 51 483 26 c 0,38,39
 462 18 462 18 441.5 13 c 128,-1,40
 421 8 421 8 391.5 5 c 128,-1,41
 362 2 362 2 320 1 c 128,-1,42
 278 0 278 0 213 0 c 2,43,-1
 86 0 l 1,44,-1
 134 46 l 1,0,1
401 338 m 2,45,46
 390 293 390 293 381.5 261.5 c 128,-1,47
 373 230 373 230 365 207 c 128,-1,48
 357 184 357 184 347 166.5 c 128,-1,49
 337 149 337 149 323 132 c 128,-1,50
 309 115 309 115 289 95.5 c 128,-1,51
 269 76 269 76 240 49 c 1,52,-1
 368 45 l 1,53,-1
 389 45 l 2,54,55
 464 45 464 45 513.5 67 c 128,-1,56
 563 89 563 89 599 139 c 0,57,58
 615 160 615 160 628 189 c 128,-1,59
 641 218 641 218 651 250.5 c 128,-1,60
 661 283 661 283 666.5 317 c 128,-1,61
 672 351 672 351 672 382 c 0,62,63
 672 434 672 434 650 473.5 c 128,-1,64
 628 513 628 513 590 532 c 0,65,66
 567 542 567 542 538 547.5 c 128,-1,67
 509 553 509 553 456 555 c 1,68,-1
 401 338 l 2,45,46
EndSplineSet
EndChar

StartChar: E
Encoding: 69 69 60
Width: 620
Flags: W
LayerCount: 2
Back
Fore
SplineSet
541 307 m 1,0,1
 534 302 534 302 529.5 298.5 c 128,-1,2
 525 295 525 295 521.5 292 c 128,-1,3
 518 289 518 289 513.5 286 c 128,-1,4
 509 283 509 283 503 278 c 1,5,-1
 476 276 l 1,6,-1
 433 274 l 2,7,8
 424 273 424 273 417.5 272.5 c 128,-1,9
 411 272 411 272 403 271.5 c 128,-1,10
 395 271 395 271 383 270.5 c 128,-1,11
 371 270 371 270 352 269 c 1,12,13
 343 235 343 235 336.5 211 c 128,-1,14
 330 187 330 187 323 169 c 128,-1,15
 316 151 316 151 308 137 c 128,-1,16
 300 123 300 123 288 109 c 128,-1,17
 276 95 276 95 259 79 c 128,-1,18
 242 63 242 63 218 41 c 1,19,-1
 478 41 l 2,20,21
 514 41 514 41 536 42.5 c 128,-1,22
 558 44 558 44 569 48.5 c 128,-1,23
 580 53 580 53 583.5 61.5 c 128,-1,24
 587 70 587 70 587 84 c 0,25,26
 587 92 587 92 586 99 c 128,-1,27
 585 106 585 106 583 122 c 1,28,-1
 659 150 l 1,29,30
 663 137 663 137 663 127 c 0,31,32
 663 110 663 110 649 90 c 128,-1,33
 635 70 635 70 600 38 c 0,34,35
 583 23 583 23 571 14 c 128,-1,36
 559 5 559 5 547.5 0 c 128,-1,37
 536 -5 536 -5 522.5 -6.5 c 128,-1,38
 509 -8 509 -8 490 -8 c 0,39,40
 472 -8 472 -8 461 -8 c 128,-1,41
 450 -8 450 -8 434 -7.5 c 128,-1,42
 418 -7 418 -7 393.5 -6.5 c 128,-1,43
 369 -6 369 -6 324 -4 c 2,44,-1
 244 -2 l 1,45,-1
 154 -1 l 1,46,-1
 98 0 l 1,47,-1
 136 33 l 1,48,49
 167 40 167 40 186 49.5 c 128,-1,50
 205 59 205 59 218 78.5 c 128,-1,51
 231 98 231 98 242 132 c 128,-1,52
 253 166 253 166 267 224 c 0,53,54
 270 234 270 234 273 243.5 c 128,-1,55
 276 253 276 253 278 264 c 1,56,-1
 250 264 l 1,57,58
 263 279 263 279 269.5 286.5 c 128,-1,59
 276 294 276 294 289 307 c 1,60,-1
 345 532 l 1,61,62
 243 529 243 529 198 502.5 c 128,-1,63
 153 476 153 476 153 418 c 0,64,65
 153 398 153 398 156 379 c 128,-1,66
 159 360 159 360 166 335 c 1,67,-1
 94 287 l 1,68,69
 83 313 83 313 79.5 330.5 c 128,-1,70
 76 348 76 348 76 368 c 0,71,72
 76 419 76 419 110 463 c 128,-1,73
 144 507 144 507 204 535 c 0,74,75
 237 550 237 550 274 557 c 128,-1,76
 311 564 311 564 362 565 c 1,77,-1
 432 586 l 1,78,-1
 426 565 l 1,79,-1
 640 569 l 1,80,81
 664 561 664 561 668 530 c 1,82,-1
 602 464 l 1,83,84
 596 479 596 479 592 488.5 c 128,-1,85
 588 498 588 498 585.5 503.5 c 128,-1,86
 583 509 583 509 581 512 c 128,-1,87
 579 515 579 515 576 519 c 0,88,89
 561 537 561 537 530 537 c 0,90,91
 525 537 525 537 502.5 536.5 c 128,-1,92
 480 536 480 536 450 534 c 2,93,-1
 419 534 l 1,94,-1
 362 307 l 1,95,-1
 541 307 l 1,0,1
EndSplineSet
EndChar

StartChar: F
Encoding: 70 70 61
Width: 580
Flags: W
LayerCount: 2
Back
Fore
SplineSet
594 293 m 1,0,1
 585 284 585 284 578 278 c 128,-1,2
 571 272 571 272 564 268 c 128,-1,3
 557 264 557 264 549 262 c 128,-1,4
 541 260 541 260 530 259 c 0,5,6
 529 259 529 259 519.5 258 c 128,-1,7
 510 257 510 257 496 256 c 128,-1,8
 482 255 482 255 463.5 254 c 128,-1,9
 445 253 445 253 426 252 c 1,10,-1
 402 156 l 2,11,12
 393 120 393 120 383 93 c 128,-1,13
 373 66 373 66 359 43.5 c 128,-1,14
 345 21 345 21 325.5 1 c 128,-1,15
 306 -19 306 -19 279 -41 c 0,16,17
 255 -61 255 -61 234 -75 c 128,-1,18
 213 -89 213 -89 193 -97.5 c 128,-1,19
 173 -106 173 -106 153.5 -110 c 128,-1,20
 134 -114 134 -114 112 -114 c 0,21,22
 103 -114 103 -114 89 -113.5 c 128,-1,23
 75 -113 75 -113 60 -111 c 1,24,-1
 99 -46 l 1,25,26
 125 -47 125 -47 139.5 -47.5 c 128,-1,27
 154 -48 154 -48 165 -48 c 0,28,29
 201 -48 201 -48 225 -41 c 128,-1,30
 249 -34 249 -34 266.5 -14 c 128,-1,31
 284 6 284 6 297 43 c 128,-1,32
 310 80 310 80 325 140 c 2,33,-1
 352 247 l 1,34,-1
 327 247 l 1,35,-1
 363 293 l 1,36,-1
 427 550 l 1,37,38
 398 553 398 553 378 553 c 0,39,40
 352 553 352 553 327 546 c 128,-1,41
 302 539 302 539 282 525 c 0,42,43
 227 488 227 488 227 407 c 0,44,45
 227 396 227 396 228 385.5 c 128,-1,46
 229 375 229 375 231 364 c 128,-1,47
 233 353 233 353 237 339.5 c 128,-1,48
 241 326 241 326 247 308 c 1,49,-1
 163 270 l 1,50,51
 155 296 155 296 152.5 312 c 128,-1,52
 150 328 150 328 150 347 c 0,53,54
 150 402 150 402 174 451.5 c 128,-1,55
 198 501 198 501 240 531 c 0,56,57
 282 560 282 560 333 573 c 128,-1,58
 384 586 384 586 461 586 c 2,59,-1
 602 585 l 2,60,61
 643 585 643 585 672.5 593 c 128,-1,62
 702 601 702 601 733 620 c 1,63,64
 730 609 730 609 728.5 605 c 128,-1,65
 727 601 727 601 723 592 c 1,66,67
 707 582 707 582 688.5 568 c 128,-1,68
 670 554 670 554 660 546 c 1,69,-1
 500 550 l 1,70,-1
 436 293 l 1,71,-1
 594 293 l 1,0,1
EndSplineSet
EndChar

StartChar: G
Encoding: 71 71 62
Width: 620
Flags: W
LayerCount: 2
Back
Fore
SplineSet
543 84 m 2,0,1
 532 39 532 39 522 7.5 c 128,-1,2
 512 -24 512 -24 501.5 -48 c 128,-1,3
 491 -72 491 -72 478 -91 c 128,-1,4
 465 -110 465 -110 448 -129 c 0,5,6
 399 -185 399 -185 349 -210.5 c 128,-1,7
 299 -236 299 -236 239 -236 c 0,8,9
 223 -236 223 -236 208.5 -235 c 128,-1,10
 194 -234 194 -234 167 -231 c 1,11,-1
 209 -165 l 1,12,13
 232 -169 232 -169 263.5 -171.5 c 128,-1,14
 295 -174 295 -174 318 -174 c 0,15,16
 358 -174 358 -174 382 -155.5 c 128,-1,17
 406 -137 406 -137 421 -93 c 0,18,19
 424 -85 424 -85 428.5 -69.5 c 128,-1,20
 433 -54 433 -54 438.5 -34.5 c 128,-1,21
 444 -15 444 -15 450 6.5 c 128,-1,22
 456 28 456 28 461 49 c 1,23,24
 427 32 427 32 400 20 c 128,-1,25
 373 8 373 8 349 1 c 128,-1,26
 325 -6 325 -6 302.5 -9 c 128,-1,27
 280 -12 280 -12 256 -12 c 0,28,29
 193 -12 193 -12 155.5 30 c 128,-1,30
 118 72 118 72 118 143 c 0,31,32
 118 185 118 185 127.5 228.5 c 128,-1,33
 137 272 137 272 155 314 c 128,-1,34
 173 356 173 356 198.5 395 c 128,-1,35
 224 434 224 434 256 467 c 0,36,37
 377 591 377 591 538 591 c 0,38,39
 596 591 596 591 626 573 c 128,-1,40
 656 555 656 555 670 512 c 1,41,-1
 596 429 l 1,42,43
 591 461 591 461 586.5 477 c 128,-1,44
 582 493 582 493 572 508 c 0,45,46
 558 531 558 531 533 543 c 128,-1,47
 508 555 508 555 477 555 c 0,48,49
 424 555 424 555 375 523.5 c 128,-1,50
 326 492 326 492 288 439.5 c 128,-1,51
 250 387 250 387 227.5 319 c 128,-1,52
 205 251 205 251 205 178 c 0,53,54
 205 109 205 109 237 69 c 128,-1,55
 269 29 269 29 325 29 c 0,56,57
 360 29 360 29 400.5 47.5 c 128,-1,58
 441 66 441 66 473 96 c 1,59,-1
 509 240 l 1,60,61
 442 239 442 239 363 234 c 1,62,-1
 363 242 l 1,63,-1
 424 273 l 1,64,65
 499 273 499 273 558.5 271.5 c 128,-1,66
 618 270 618 270 649 268 c 1,67,-1
 603 240 l 1,68,-1
 582 240 l 1,69,-1
 543 84 l 2,0,1
EndSplineSet
EndChar

StartChar: H
Encoding: 72 72 63
Width: 680
Flags: W
LayerCount: 2
Back
Fore
SplineSet
605 322 m 1,0,1
 607 330 607 330 609.5 337.5 c 128,-1,2
 612 345 612 345 614 353 c 2,3,-1
 641 450 l 2,4,5
 647 474 647 474 653.5 492 c 128,-1,6
 660 510 660 510 668.5 525 c 128,-1,7
 677 540 677 540 688.5 554.5 c 128,-1,8
 700 569 700 569 717 586 c 0,9,10
 765 636 765 636 798.5 657 c 128,-1,11
 832 678 832 678 863 678 c 0,12,13
 877 678 877 678 885.5 677 c 128,-1,14
 894 676 894 676 908 671 c 1,15,-1
 874 616 l 1,16,17
 857 622 857 622 846.5 624 c 128,-1,18
 836 626 836 626 821 626 c 0,19,20
 805 626 805 626 793.5 622 c 128,-1,21
 782 618 782 618 772.5 607.5 c 128,-1,22
 763 597 763 597 755 579 c 128,-1,23
 747 561 747 561 738 533 c 0,24,25
 732 515 732 515 723.5 484.5 c 128,-1,26
 715 454 715 454 705 420.5 c 128,-1,27
 695 387 695 387 686.5 354.5 c 128,-1,28
 678 322 678 322 672 300 c 0,29,30
 653 225 653 225 642.5 184.5 c 128,-1,31
 632 144 632 144 627.5 122 c 128,-1,32
 623 100 623 100 622 90.5 c 128,-1,33
 621 81 621 81 621 69 c 0,34,35
 621 43 621 43 653 43 c 0,36,37
 663 43 663 43 671.5 43 c 128,-1,38
 680 43 680 43 690.5 44 c 128,-1,39
 701 45 701 45 714.5 46 c 128,-1,40
 728 47 728 47 748 49 c 1,41,-1
 730 24 l 1,42,43
 689 16 689 16 664 11.5 c 128,-1,44
 639 7 639 7 623.5 4 c 128,-1,45
 608 1 608 1 598.5 -1 c 128,-1,46
 589 -3 589 -3 579 -6 c 0,47,48
 561 -11 561 -11 551 -11 c 0,49,50
 542 -11 542 -11 535.5 -4.5 c 128,-1,51
 529 2 529 2 529 10 c 0,52,53
 529 16 529 16 532 32 c 128,-1,54
 535 48 535 48 542 76.5 c 128,-1,55
 549 105 549 105 560 147 c 128,-1,56
 571 189 571 189 587 248 c 0,57,58
 589 259 589 259 592 269 c 128,-1,59
 595 279 595 279 597 289 c 1,60,61
 576 289 576 289 557 288 c 128,-1,62
 538 287 538 287 514.5 286 c 128,-1,63
 491 285 491 285 459 283 c 128,-1,64
 427 281 427 281 381 278 c 1,65,66
 368 239 368 239 360 215.5 c 128,-1,67
 352 192 352 192 343 175.5 c 128,-1,68
 334 159 334 159 321 144.5 c 128,-1,69
 308 130 308 130 287 108 c 0,70,71
 255 75 255 75 230.5 54 c 128,-1,72
 206 33 206 33 183.5 21 c 128,-1,73
 161 9 161 9 137 4.5 c 128,-1,74
 113 0 113 0 83 0 c 0,75,76
 69 0 69 0 59.5 1 c 128,-1,77
 50 2 50 2 33 4 c 1,78,-1
 80 69 l 1,79,80
 99 67 99 67 110 67 c 128,-1,81
 121 67 121 67 133 67 c 0,82,83
 173 67 173 67 199 74 c 128,-1,84
 225 81 225 81 243.5 103.5 c 128,-1,85
 262 126 262 126 277 168 c 128,-1,86
 292 210 292 210 310 280 c 1,87,-1
 284 282 l 1,88,-1
 320 320 l 1,89,90
 335 381 335 381 344 415.5 c 128,-1,91
 353 450 353 450 358.5 470.5 c 128,-1,92
 364 491 364 491 367.5 504 c 128,-1,93
 371 517 371 517 377 536 c 1,94,95
 329 536 329 536 305.5 533 c 128,-1,96
 282 530 282 530 264 521 c 0,97,98
 235 507 235 507 219.5 478.5 c 128,-1,99
 204 450 204 450 204 410 c 0,100,101
 204 393 204 393 206 379 c 128,-1,102
 208 365 208 365 215 341 c 1,103,-1
 140 316 l 1,104,105
 135 334 135 334 133.5 344 c 128,-1,106
 132 354 132 354 132 366 c 0,107,108
 132 414 132 414 150.5 449.5 c 128,-1,109
 169 485 169 485 210 515 c 0,110,111
 252 545 252 545 303.5 559 c 128,-1,112
 355 573 355 573 430 573 c 0,113,114
 440 573 440 573 454 572.5 c 128,-1,115
 468 572 468 572 487 571 c 1,116,-1
 448 538 l 1,117,118
 440 507 440 507 433.5 481.5 c 128,-1,119
 427 456 427 456 420.5 431.5 c 128,-1,120
 414 407 414 407 407.5 381 c 128,-1,121
 401 355 401 355 392 322 c 1,122,-1
 605 322 l 1,0,1
EndSplineSet
EndChar

StartChar: I
Encoding: 73 73 64
Width: 380
Flags: W
LayerCount: 2
Back
Fore
SplineSet
117 25 m 1,0,-1
 176 32 l 1,1,2
 182 54 182 54 186 68 c 128,-1,3
 190 82 190 82 193 93.5 c 128,-1,4
 196 105 196 105 199 117 c 128,-1,5
 202 129 202 129 207 147 c 0,6,7
 224 213 224 213 240 277 c 128,-1,8
 256 341 256 341 273 406 c 0,9,10
 280 433 280 433 285.5 455.5 c 128,-1,11
 291 478 291 478 296 497 c 0,12,13
 299 508 299 508 301.5 519 c 128,-1,14
 304 530 304 530 306 542 c 1,15,-1
 216 548 l 1,16,-1
 251 573 l 1,17,18
 277 572 277 572 293.5 572 c 128,-1,19
 310 572 310 572 328 572 c 0,20,21
 337 572 337 572 343.5 572 c 128,-1,22
 350 572 350 572 361.5 572 c 128,-1,23
 373 572 373 572 393 572.5 c 128,-1,24
 413 573 413 573 450 573 c 2,25,-1
 481 573 l 1,26,-1
 446 548 l 1,27,-1
 388 542 l 1,28,29
 377 502 377 502 364 453.5 c 128,-1,30
 351 405 351 405 338 355 c 128,-1,31
 325 305 325 305 312.5 255.5 c 128,-1,32
 300 206 300 206 289.5 163 c 128,-1,33
 279 120 279 120 271 85.5 c 128,-1,34
 263 51 263 51 259 32 c 1,35,-1
 352 25 l 1,36,-1
 316 0 l 1,37,-1
 162 1 l 2,38,39
 152 1 152 1 145.5 1 c 128,-1,40
 139 1 139 1 131.5 1 c 128,-1,41
 124 1 124 1 112.5 0.5 c 128,-1,42
 101 0 101 0 81 0 c 1,43,-1
 117 25 l 1,0,-1
EndSplineSet
EndChar

StartChar: J
Encoding: 74 74 65
Width: 400
Flags: W
LayerCount: 2
Back
Fore
SplineSet
182 307 m 1,0,1
 177 327 177 327 175 338 c 128,-1,2
 173 349 173 349 173 364 c 0,3,4
 173 431 173 431 209.5 479.5 c 128,-1,5
 246 528 246 528 315 552 c 0,6,7
 331 558 331 558 347.5 561.5 c 128,-1,8
 364 565 364 565 385 567.5 c 128,-1,9
 406 570 406 570 431.5 571 c 128,-1,10
 457 572 457 572 491 572 c 1,11,-1
 458 543 l 1,12,-1
 366 174 l 2,13,14
 355 129 355 129 346 101 c 128,-1,15
 337 73 337 73 325 53 c 128,-1,16
 313 33 313 33 294 15.5 c 128,-1,17
 275 -2 275 -2 244 -27 c 0,18,19
 209 -55 209 -55 182 -73.5 c 128,-1,20
 155 -92 155 -92 132.5 -102.5 c 128,-1,21
 110 -113 110 -113 89 -117.5 c 128,-1,22
 68 -122 68 -122 45 -122 c 0,23,24
 34 -122 34 -122 24.5 -121 c 128,-1,25
 15 -120 15 -120 1 -117 c 1,26,-1
 41 -50 l 1,27,28
 65 -56 65 -56 79 -58 c 128,-1,29
 93 -60 93 -60 108 -60 c 0,30,31
 183 -60 183 -60 227 0 c 0,32,33
 236 13 236 13 242 23.5 c 128,-1,34
 248 34 248 34 255 54.5 c 128,-1,35
 262 75 262 75 272.5 110.5 c 128,-1,36
 283 146 283 146 300 208 c 2,37,-1
 312 248 l 1,38,39
 308 259 308 259 303.5 264 c 128,-1,40
 299 269 299 269 288 277 c 1,41,42
 301 290 301 290 307.5 296 c 128,-1,43
 314 302 314 302 328 314 c 1,44,-1
 383 534 l 1,45,-1
 368 534 l 2,46,47
 310 534 310 534 280 503.5 c 128,-1,48
 250 473 250 473 250 414 c 0,49,50
 250 397 250 397 251.5 382.5 c 128,-1,51
 253 368 253 368 258 342 c 1,52,-1
 182 307 l 1,0,1
EndSplineSet
EndChar

StartChar: K
Encoding: 75 75 66
Width: 660
Flags: W
LayerCount: 2
Back
Fore
SplineSet
851 -130 m 1,0,1
 823 -141 823 -141 805.5 -144 c 128,-1,2
 788 -147 788 -147 763 -147 c 0,3,4
 648 -147 648 -147 579 -66 c 0,5,6
 567 -51 567 -51 555 -29.5 c 128,-1,7
 543 -8 543 -8 530 21 c 128,-1,8
 517 50 517 50 503.5 89 c 128,-1,9
 490 128 490 128 475 178 c 0,10,11
 460 231 460 231 444 280 c 0,12,13
 438 296 438 296 432 316 c 1,14,15
 420 269 420 269 409 237.5 c 128,-1,16
 398 206 398 206 380.5 178 c 128,-1,17
 363 150 363 150 335.5 119.5 c 128,-1,18
 308 89 308 89 262 43 c 1,19,-1
 383 43 l 1,20,21
 357 27 357 27 341.5 18.5 c 128,-1,22
 326 10 326 10 311 6 c 128,-1,23
 296 2 296 2 277 1 c 128,-1,24
 258 0 258 0 225 0 c 2,25,-1
 88 0 l 1,26,-1
 132 43 l 1,27,-1
 170 43 l 2,28,29
 199 43 199 43 221.5 50.5 c 128,-1,30
 244 58 244 58 262 76 c 128,-1,31
 280 94 280 94 295 123.5 c 128,-1,32
 310 153 310 153 325 197 c 0,33,34
 331 213 331 213 336.5 232.5 c 128,-1,35
 342 252 342 252 349 276.5 c 128,-1,36
 356 301 356 301 363.5 332 c 128,-1,37
 371 363 371 363 381 404 c 0,38,39
 405 497 405 497 414 536 c 1,40,41
 382 539 382 539 366 539 c 0,42,43
 296 539 296 539 259.5 511.5 c 128,-1,44
 223 484 223 484 223 431 c 0,45,46
 223 407 223 407 228 386 c 128,-1,47
 233 365 233 365 245 336 c 1,48,-1
 163 301 l 1,49,50
 153 326 153 326 149.5 341 c 128,-1,51
 146 356 146 356 146 376 c 0,52,53
 146 432 146 432 177 476 c 128,-1,54
 208 520 208 520 267 546 c 0,55,56
 333 576 333 576 449 576 c 0,57,58
 469 576 469 576 488 575 c 128,-1,59
 507 574 507 574 540 572 c 1,60,61
 529 558 529 558 519.5 552.5 c 128,-1,62
 510 547 510 547 488 541 c 1,63,-1
 436 332 l 1,64,65
 444 337 444 337 452 343 c 128,-1,66
 460 349 460 349 468 357 c 2,67,-1
 568 441 l 1,68,-1
 678 529 l 2,69,70
 695 543 695 543 708 552.5 c 128,-1,71
 721 562 721 562 732.5 567.5 c 128,-1,72
 744 573 744 573 754.5 575 c 128,-1,73
 765 577 765 577 777 577 c 0,74,75
 791 577 791 577 802.5 574.5 c 128,-1,76
 814 572 814 572 833 564 c 1,77,-1
 796 490 l 1,78,79
 775 499 775 499 763 502 c 128,-1,80
 751 505 751 505 737 505 c 0,81,82
 720 505 720 505 702.5 499 c 128,-1,83
 685 493 685 493 659 475.5 c 128,-1,84
 633 458 633 458 594 427 c 128,-1,85
 555 396 555 396 496 346 c 1,86,87
 505 321 505 321 512.5 302 c 128,-1,88
 520 283 520 283 526 265.5 c 128,-1,89
 532 248 532 248 538 231 c 128,-1,90
 544 214 544 214 552 193 c 0,91,92
 571 139 571 139 584 104 c 128,-1,93
 597 69 597 69 607 44 c 128,-1,94
 617 19 617 19 626 0.5 c 128,-1,95
 635 -18 635 -18 646 -38 c 0,96,97
 668 -78 668 -78 693.5 -99 c 128,-1,98
 719 -120 719 -120 745 -120 c 0,99,100
 770 -120 770 -120 790 -104.5 c 128,-1,101
 810 -89 810 -89 840 -48 c 1,102,-1
 851 -130 l 1,0,1
EndSplineSet
EndChar

StartChar: L
Encoding: 76 76 67
Width: 580
Flags: W
LayerCount: 2
Back
Fore
SplineSet
493 518 m 1,0,1
 479 519 479 519 469.5 519.5 c 128,-1,2
 460 520 460 520 454 520 c 128,-1,3
 448 520 448 520 443 520 c 128,-1,4
 438 520 438 520 433 520 c 0,5,6
 372 520 372 520 351 459 c 0,7,8
 346 444 346 444 341 426 c 128,-1,9
 336 408 336 408 329 382.5 c 128,-1,10
 322 357 322 357 314 322.5 c 128,-1,11
 306 288 306 288 295 241 c 0,12,13
 286 202 286 202 279 178 c 128,-1,14
 272 154 272 154 263.5 137.5 c 128,-1,15
 255 121 255 121 242.5 107 c 128,-1,16
 230 93 230 93 210 75 c 0,17,18
 202 69 202 69 195.5 62.5 c 128,-1,19
 189 56 189 56 183 49 c 1,20,-1
 372 49 l 2,21,22
 436 49 436 49 474 51.5 c 128,-1,23
 512 54 512 54 536 68 c 128,-1,24
 560 82 560 82 578 111 c 128,-1,25
 596 140 596 140 620 191 c 1,26,-1
 631 172 l 1,27,28
 625 157 625 157 616.5 137.5 c 128,-1,29
 608 118 608 118 599.5 99 c 128,-1,30
 591 80 591 80 583 64 c 128,-1,31
 575 48 575 48 571 39 c 0,32,33
 559 14 559 14 539 4 c 128,-1,34
 519 -6 519 -6 483 -6 c 0,35,36
 471 -6 471 -6 462 -6 c 128,-1,37
 453 -6 453 -6 434 -5 c 128,-1,38
 415 -4 415 -4 380.5 -2.5 c 128,-1,39
 346 -1 346 -1 284 2 c 0,40,41
 230 4 230 4 191 5.5 c 128,-1,42
 152 7 152 7 133 7 c 0,43,44
 110 7 110 7 89 6.5 c 128,-1,45
 68 6 68 6 33 4 c 1,46,47
 39 11 39 11 43 16 c 128,-1,48
 47 21 47 21 51 25.5 c 128,-1,49
 55 30 55 30 59 34.5 c 128,-1,50
 63 39 63 39 68 44 c 1,51,52
 77 43 77 43 85 43 c 128,-1,53
 93 43 93 43 100 43 c 0,54,55
 123 43 123 43 140 51 c 128,-1,56
 157 59 157 59 170.5 77.5 c 128,-1,57
 184 96 184 96 194.5 128 c 128,-1,58
 205 160 205 160 215 208 c 0,59,60
 230 279 230 279 241.5 325 c 128,-1,61
 253 371 253 371 265 402 c 128,-1,62
 277 433 277 433 290.5 453.5 c 128,-1,63
 304 474 304 474 324 494 c 0,64,65
 348 518 348 518 368 533.5 c 128,-1,66
 388 549 388 549 407.5 559 c 128,-1,67
 427 569 427 569 446 573 c 128,-1,68
 465 577 465 577 488 577 c 0,69,70
 499 577 499 577 508 576.5 c 128,-1,71
 517 576 517 576 532 574 c 1,72,-1
 493 518 l 1,0,1
EndSplineSet
EndChar

StartChar: M
Encoding: 77 77 68
Width: 840
Flags: W
LayerCount: 2
Back
Fore
SplineSet
104 69 m 1,0,1
 123 67 123 67 134.5 66 c 128,-1,2
 146 65 146 65 153.5 64.5 c 128,-1,3
 161 64 161 64 166.5 64 c 128,-1,4
 172 64 172 64 178 64 c 0,5,6
 211 64 211 64 232 76.5 c 128,-1,7
 253 89 253 89 268 118 c 0,8,9
 274 130 274 130 286.5 169.5 c 128,-1,10
 299 209 299 209 314.5 264 c 128,-1,11
 330 319 330 319 347.5 384 c 128,-1,12
 365 449 365 449 381 512 c 1,13,14
 357 516 357 516 342 517 c 128,-1,15
 327 518 327 518 309 518 c 0,16,17
 243 518 243 518 208 492 c 128,-1,18
 173 466 173 466 173 417 c 0,19,20
 173 406 173 406 174.5 395 c 128,-1,21
 176 384 176 384 180 372 c 128,-1,22
 184 360 184 360 190 345 c 128,-1,23
 196 330 196 330 205 311 c 1,24,-1
 129 258 l 1,25,26
 116 287 116 287 111 307.5 c 128,-1,27
 106 328 106 328 106 350 c 0,28,29
 106 389 106 389 130 435.5 c 128,-1,30
 154 482 154 482 196 524 c 0,31,32
 230 558 230 558 263.5 571.5 c 128,-1,33
 297 585 297 585 345 585 c 0,34,35
 365 585 365 585 381.5 584 c 128,-1,36
 398 583 398 583 427 579 c 1,37,-1
 458 604 l 1,38,39
 463 579 463 579 470 527.5 c 128,-1,40
 477 476 477 476 484 413 c 128,-1,41
 491 350 491 350 498 283 c 128,-1,42
 505 216 505 216 510 161 c 1,43,44
 522 174 522 174 535 197 c 0,45,46
 564 239 564 239 591.5 279.5 c 128,-1,47
 619 320 619 320 648 361 c 2,48,-1
 783 549 l 2,49,50
 796 568 796 568 806 580.5 c 128,-1,51
 816 593 816 593 826.5 602.5 c 128,-1,52
 837 612 837 612 850.5 620.5 c 128,-1,53
 864 629 864 629 885 641 c 0,54,55
 912 657 912 657 930.5 663.5 c 128,-1,56
 949 670 949 670 969 670 c 0,57,58
 978 670 978 670 986.5 669 c 128,-1,59
 995 668 995 668 1009 664 c 1,60,-1
 968 608 l 1,61,-1
 941 613 l 2,62,63
 931 615 931 615 922 616 c 128,-1,64
 913 617 913 617 906 617 c 0,65,66
 896 617 896 617 889 613.5 c 128,-1,67
 882 610 882 610 875 595 c 128,-1,68
 868 580 868 580 859 550 c 128,-1,69
 850 520 850 520 835 467 c 0,70,71
 830 450 830 450 826.5 437 c 128,-1,72
 823 424 823 424 819.5 410 c 128,-1,73
 816 396 816 396 811.5 379.5 c 128,-1,74
 807 363 807 363 801 339.5 c 128,-1,75
 795 316 795 316 787 282.5 c 128,-1,76
 779 249 779 249 767 202 c 0,77,78
 758 166 758 166 753.5 145.5 c 128,-1,79
 749 125 749 125 746.5 113 c 128,-1,80
 744 101 744 101 743.5 93.5 c 128,-1,81
 743 86 743 86 743 76 c 0,82,83
 743 35 743 35 792 35 c 0,84,85
 800 35 800 35 810.5 35.5 c 128,-1,86
 821 36 821 36 834 37 c 2,87,-1
 872 40 l 1,88,-1
 851 15 l 1,89,-1
 827 11 l 1,90,-1
 780 5 l 2,91,92
 774 4 774 4 761.5 2 c 128,-1,93
 749 0 749 0 734 -2.5 c 128,-1,94
 719 -5 719 -5 705.5 -7.5 c 128,-1,95
 692 -10 692 -10 685 -11 c 0,96,97
 680 -12 680 -12 675.5 -12.5 c 128,-1,98
 671 -13 671 -13 667 -13 c 0,99,100
 657 -13 657 -13 650 -6 c 128,-1,101
 643 1 643 1 643 12 c 0,102,103
 643 34 643 34 656 71 c 0,104,105
 663 95 663 95 670 122 c 128,-1,106
 677 149 677 149 686 182 c 128,-1,107
 695 215 695 215 706 256 c 128,-1,108
 717 297 717 297 731 348 c 0,109,110
 736 368 736 368 739.5 380.5 c 128,-1,111
 743 393 743 393 746 405 c 128,-1,112
 749 417 749 417 752 431.5 c 128,-1,113
 755 446 755 446 761 471 c 1,114,115
 699 383 699 383 654.5 318 c 128,-1,116
 610 253 610 253 578.5 204 c 128,-1,117
 547 155 547 155 527 120 c 128,-1,118
 507 85 507 85 494 57 c 1,119,-1
 445 19 l 1,120,121
 444 39 444 39 443.5 55 c 128,-1,122
 443 71 443 71 442 91 c 128,-1,123
 441 111 441 111 438.5 139 c 128,-1,124
 436 167 436 167 432 210 c 128,-1,125
 428 253 428 253 422 315.5 c 128,-1,126
 416 378 416 378 407 468 c 1,127,128
 401 445 401 445 392 410.5 c 128,-1,129
 383 376 383 376 374 341.5 c 128,-1,130
 365 307 365 307 356.5 277 c 128,-1,131
 348 247 348 247 344 232 c 0,132,133
 335 198 335 198 327.5 175.5 c 128,-1,134
 320 153 320 153 312 135.5 c 128,-1,135
 304 118 304 118 295 104.5 c 128,-1,136
 286 91 286 91 274 75 c 0,137,138
 242 35 242 35 201 17 c 128,-1,139
 160 -1 160 -1 101 -1 c 0,140,141
 93 -1 93 -1 82.5 -1 c 128,-1,142
 72 -1 72 -1 58 0 c 1,143,-1
 104 69 l 1,0,1
EndSplineSet
EndChar

StartChar: N
Encoding: 78 78 69
Width: 700
Flags: W
LayerCount: 2
Back
Fore
SplineSet
88 69 m 1,0,1
 109 67 109 67 121.5 66 c 128,-1,2
 134 65 134 65 150 65 c 0,3,4
 190 65 190 65 210 75 c 128,-1,5
 230 85 230 85 246 113 c 0,6,7
 271 158 271 158 300 252.5 c 128,-1,8
 329 347 329 347 364 499 c 1,9,10
 337 501 337 501 321 501 c 128,-1,11
 305 501 305 501 287 501 c 0,12,13
 253 501 253 501 232.5 497.5 c 128,-1,14
 212 494 212 494 194 484 c 0,15,16
 173 473 173 473 161 454 c 128,-1,17
 149 435 149 435 149 412 c 0,18,19
 149 402 149 402 150.5 392.5 c 128,-1,20
 152 383 152 383 155.5 372 c 128,-1,21
 159 361 159 361 165.5 346 c 128,-1,22
 172 331 172 331 181 311 c 1,23,-1
 112 264 l 1,24,25
 98 292 98 292 92.5 312 c 128,-1,26
 87 332 87 332 87 352 c 0,27,28
 87 373 87 373 95.5 397.5 c 128,-1,29
 104 422 104 422 119 446 c 128,-1,30
 134 470 134 470 155 492.5 c 128,-1,31
 176 515 176 515 200 533 c 0,32,33
 226 553 226 553 254.5 560.5 c 128,-1,34
 283 568 283 568 327 568 c 0,35,36
 342 568 342 568 353 567.5 c 128,-1,37
 364 567 364 567 382 565 c 1,38,-1
 416 596 l 1,39,40
 443 497 443 497 462 426 c 128,-1,41
 481 355 481 355 495.5 304 c 128,-1,42
 510 253 510 253 521 218 c 128,-1,43
 532 183 532 183 542 157 c 128,-1,44
 552 131 552 131 561.5 110 c 128,-1,45
 571 89 571 89 583 65 c 1,46,47
 590 95 590 95 598 122 c 0,48,49
 606 157 606 157 614 193 c 128,-1,50
 622 229 622 229 630 264 c 0,51,52
 648 345 648 345 662 398.5 c 128,-1,53
 676 452 676 452 689 487.5 c 128,-1,54
 702 523 702 523 716 546.5 c 128,-1,55
 730 570 730 570 749 592 c 0,56,57
 788 636 788 636 820.5 656.5 c 128,-1,58
 853 677 853 677 883 677 c 0,59,60
 890 677 890 677 898 676.5 c 128,-1,61
 906 676 906 676 915 675 c 1,62,-1
 878 608 l 1,63,64
 868 610 868 610 862.5 610 c 128,-1,65
 857 610 857 610 851 610 c 0,66,67
 816 610 816 610 796 597 c 128,-1,68
 776 584 776 584 760 552 c 0,69,70
 748 527 748 527 737.5 499.5 c 128,-1,71
 727 472 727 472 715.5 436.5 c 128,-1,72
 704 401 704 401 691.5 353.5 c 128,-1,73
 679 306 679 306 663 240 c 0,74,75
 653 200 653 200 646.5 171.5 c 128,-1,76
 640 143 640 143 634.5 117.5 c 128,-1,77
 629 92 629 92 623.5 67 c 128,-1,78
 618 42 618 42 612 10 c 1,79,80
 689 -136 689 -136 784 -136 c 0,81,82
 817 -136 817 -136 840 -114 c 128,-1,83
 863 -92 863 -92 886 -39 c 1,84,-1
 910 -128 l 1,85,86
 876 -148 876 -148 846 -155.5 c 128,-1,87
 816 -163 816 -163 778 -163 c 0,88,89
 599 -163 599 -163 507 29 c 0,90,91
 484 77 484 77 465 135.5 c 128,-1,92
 446 194 446 194 426 277 c 0,93,94
 421 295 421 295 418 307.5 c 128,-1,95
 415 320 415 320 411.5 336 c 128,-1,96
 408 352 408 352 402.5 376 c 128,-1,97
 397 400 397 400 387 442 c 1,98,99
 372 379 372 379 362.5 341 c 128,-1,100
 353 303 353 303 346.5 279.5 c 128,-1,101
 340 256 340 256 335.5 241.5 c 128,-1,102
 331 227 331 227 325 212 c 0,103,104
 302 149 302 149 268.5 99.5 c 128,-1,105
 235 50 235 50 199 24 c 0,106,107
 178 10 178 10 154.5 3.5 c 128,-1,108
 131 -3 131 -3 96 -3 c 0,109,110
 83 -3 83 -3 71.5 -2.5 c 128,-1,111
 60 -2 60 -2 40 0 c 1,112,-1
 88 69 l 1,0,1
EndSplineSet
EndChar

StartChar: O
Encoding: 79 79 70
Width: 600
Flags: W
LayerCount: 2
Back
Fore
SplineSet
487 591 m 0,0,1
 568 591 568 591 610 541 c 128,-1,2
 652 491 652 491 652 397 c 256,3,4
 652 303 652 303 622 226.5 c 128,-1,5
 592 150 592 150 533 96 c 0,6,7
 476 44 476 44 408.5 15.5 c 128,-1,8
 341 -13 341 -13 274 -13 c 0,9,10
 190 -13 190 -13 147 36.5 c 128,-1,11
 104 86 104 86 104 183 c 0,12,13
 104 281 104 281 138 361.5 c 128,-1,14
 172 442 172 442 236 496 c 0,15,16
 262 517 262 517 293 534.5 c 128,-1,17
 324 552 324 552 357 564.5 c 128,-1,18
 390 577 390 577 423.5 584 c 128,-1,19
 457 591 457 591 487 591 c 0,0,1
425 552 m 0,20,21
 375 552 375 552 331.5 526 c 128,-1,22
 288 500 288 500 256 455.5 c 128,-1,23
 224 411 224 411 205 350.5 c 128,-1,24
 186 290 186 290 186 221 c 0,25,26
 186 129 186 129 224.5 78 c 128,-1,27
 263 27 263 27 332 27 c 0,28,29
 389 27 389 27 438.5 60 c 128,-1,30
 488 93 488 93 520 153 c 0,31,32
 543 195 543 195 556.5 252.5 c 128,-1,33
 570 310 570 310 570 365 c 0,34,35
 570 456 570 456 532.5 504 c 128,-1,36
 495 552 495 552 425 552 c 0,20,21
EndSplineSet
EndChar

StartChar: P
Encoding: 80 80 71
Width: 540
Flags: W
LayerCount: 2
Back
Fore
SplineSet
221 42 m 1,0,1
 234 87 234 87 250.5 149.5 c 128,-1,2
 267 212 267 212 284 280.5 c 128,-1,3
 301 349 301 349 317 416.5 c 128,-1,4
 333 484 333 484 345 538 c 1,5,6
 294 533 294 533 263.5 522 c 128,-1,7
 233 511 233 511 207 490 c 0,8,9
 181 468 181 468 166 433 c 128,-1,10
 151 398 151 398 151 360 c 0,11,12
 151 342 151 342 154 326.5 c 128,-1,13
 157 311 157 311 166 285 c 1,14,-1
 91 240 l 1,15,16
 81 264 81 264 77.5 281.5 c 128,-1,17
 74 299 74 299 74 321 c 0,18,19
 74 382 74 382 106.5 433 c 128,-1,20
 139 484 139 484 202 519 c 0,21,22
 238 540 238 540 275 550.5 c 128,-1,23
 312 561 312 561 369 567 c 1,24,-1
 436 601 l 1,25,-1
 430 576 l 1,26,27
 445 577 445 577 454.5 577 c 128,-1,28
 464 577 464 577 472 577 c 0,29,30
 561 577 561 577 603 552.5 c 128,-1,31
 645 528 645 528 645 477 c 0,32,33
 645 420 645 420 613.5 371 c 128,-1,34
 582 322 582 322 528 293 c 0,35,36
 482 268 482 268 439 255.5 c 128,-1,37
 396 243 396 243 346 240 c 1,38,39
 342 225 342 225 339.5 214.5 c 128,-1,40
 337 204 337 204 334.5 194 c 128,-1,41
 332 184 332 184 329 171.5 c 128,-1,42
 326 159 326 159 321 139 c 0,43,44
 318 125 318 125 314.5 110.5 c 128,-1,45
 311 96 311 96 308 80 c 2,46,-1
 299 42 l 1,47,48
 332 42 332 42 354.5 42.5 c 128,-1,49
 377 43 377 43 395 44 c 128,-1,50
 413 45 413 45 429.5 46.5 c 128,-1,51
 446 48 446 48 467 50 c 1,52,-1
 465 41 l 1,53,54
 444 31 444 31 428.5 24 c 128,-1,55
 413 17 413 17 396 12.5 c 128,-1,56
 379 8 379 8 357 6 c 128,-1,57
 335 4 335 4 302 2.5 c 128,-1,58
 269 1 269 1 222 1 c 128,-1,59
 175 1 175 1 107 1 c 2,60,-1
 37 1 l 1,61,-1
 78 42 l 1,62,-1
 221 42 l 1,0,1
356 279 m 1,63,64
 368 277 368 277 375 276 c 128,-1,65
 382 275 382 275 391 275 c 0,66,67
 427 275 427 275 457.5 289 c 128,-1,68
 488 303 488 303 510.5 327.5 c 128,-1,69
 533 352 533 352 545.5 385.5 c 128,-1,70
 558 419 558 419 558 459 c 0,71,72
 558 502 558 502 533.5 525 c 128,-1,73
 509 548 509 548 463 548 c 0,74,75
 455 548 455 548 444 547.5 c 128,-1,76
 433 547 433 547 422 546 c 1,77,-1
 356 279 l 1,63,64
EndSplineSet
EndChar

StartChar: Q
Encoding: 81 81 72
Width: 600
Flags: W
LayerCount: 2
Back
Fore
SplineSet
851 -78 m 1,0,1
 744 -191 744 -191 636 -191 c 0,2,3
 614 -191 614 -191 594 -186.5 c 128,-1,4
 574 -182 574 -182 552 -172 c 128,-1,5
 530 -162 530 -162 505 -145 c 128,-1,6
 480 -128 480 -128 449 -103 c 0,7,8
 417 -79 417 -79 392 -57 c 128,-1,9
 367 -35 367 -35 338 -7 c 1,10,11
 318 -11 318 -11 306 -12 c 128,-1,12
 294 -13 294 -13 280 -13 c 0,13,14
 104 -13 104 -13 104 187 c 0,15,16
 104 280 104 280 138.5 361 c 128,-1,17
 173 442 173 442 236 494 c 0,18,19
 262 516 262 516 293.5 534 c 128,-1,20
 325 552 325 552 359.5 564.5 c 128,-1,21
 394 577 394 577 429 584 c 128,-1,22
 464 591 464 591 497 591 c 0,23,24
 567 591 567 591 610 543 c 0,25,26
 633 516 633 516 643.5 481 c 128,-1,27
 654 446 654 446 654 392 c 0,28,29
 654 238 654 238 569 130 c 0,30,31
 555 113 555 113 541 99 c 128,-1,32
 527 85 527 85 509.5 72 c 128,-1,33
 492 59 492 59 469.5 46 c 128,-1,34
 447 33 447 33 416 18 c 1,35,36
 517 -66 517 -66 584.5 -104 c 128,-1,37
 652 -142 652 -142 701 -142 c 0,38,39
 742 -142 742 -142 768 -112.5 c 128,-1,40
 794 -83 794 -83 802 -29 c 1,41,-1
 851 -78 l 1,0,1
393 36 m 1,42,43
 418 47 418 47 437.5 58.5 c 128,-1,44
 457 70 457 70 472.5 84 c 128,-1,45
 488 98 488 98 500.5 116 c 128,-1,46
 513 134 513 134 525 157 c 0,47,48
 546 199 546 199 559 255.5 c 128,-1,49
 572 312 572 312 572 364 c 0,50,51
 572 452 572 452 534.5 501.5 c 128,-1,52
 497 551 497 551 430 551 c 0,53,54
 379 551 379 551 334.5 525 c 128,-1,55
 290 499 290 499 257 454 c 128,-1,56
 224 409 224 409 205 348 c 128,-1,57
 186 287 186 287 186 218 c 0,58,59
 186 176 186 176 195 141 c 128,-1,60
 204 106 204 106 220.5 81.5 c 128,-1,61
 237 57 237 57 260.5 43 c 128,-1,62
 284 29 284 29 312 29 c 0,63,64
 327 29 327 29 338.5 34 c 128,-1,65
 350 39 350 39 371 55 c 1,66,-1
 393 36 l 1,42,43
EndSplineSet
EndChar

StartChar: R
Encoding: 82 82 73
Width: 600
Flags: W
LayerCount: 2
Back
Fore
SplineSet
77 45 m 1,0,1
 126 45 126 45 157 51.5 c 128,-1,2
 188 58 188 58 209.5 78.5 c 128,-1,3
 231 99 231 99 245.5 137.5 c 128,-1,4
 260 176 260 176 276 239 c 2,5,-1
 352 543 l 1,6,7
 303 537 303 537 276.5 526.5 c 128,-1,8
 250 516 250 516 229 496 c 0,9,10
 186 454 186 454 186 384 c 0,11,12
 186 366 186 366 188 351 c 128,-1,13
 190 336 190 336 197 310 c 1,14,-1
 113 267 l 1,15,16
 105 295 105 295 102 311 c 128,-1,17
 99 327 99 327 99 347 c 0,18,19
 99 435 99 435 162 491 c 128,-1,20
 225 547 225 547 350 568 c 1,21,-1
 441 611 l 1,22,-1
 433 579 l 1,23,24
 450 580 450 580 466.5 580.5 c 128,-1,25
 483 581 483 581 494 581 c 0,26,27
 560 581 560 581 596 556 c 128,-1,28
 632 531 632 531 632 485 c 0,29,30
 632 449 632 449 612.5 416 c 128,-1,31
 593 383 593 383 558 359 c 0,32,33
 546 351 546 351 535.5 345 c 128,-1,34
 525 339 525 339 512.5 333.5 c 128,-1,35
 500 328 500 328 484 322.5 c 128,-1,36
 468 317 468 317 447 310 c 1,37,38
 508 117 508 117 545 25 c 0,39,40
 608 -124 608 -124 678 -124 c 0,41,42
 707 -124 707 -124 730 -105.5 c 128,-1,43
 753 -87 753 -87 777 -42 c 1,44,-1
 826 -103 l 1,45,46
 805 -118 805 -118 787.5 -128.5 c 128,-1,47
 770 -139 770 -139 753 -145 c 128,-1,48
 736 -151 736 -151 718.5 -153.5 c 128,-1,49
 701 -156 701 -156 680 -156 c 0,50,51
 560 -156 560 -156 495 -56 c 0,52,53
 480 -33 480 -33 466.5 -3.5 c 128,-1,54
 453 26 453 26 440 64.5 c 128,-1,55
 427 103 427 103 414 151.5 c 128,-1,56
 401 200 401 200 387 261 c 0,57,58
 382 281 382 281 377.5 288 c 128,-1,59
 373 295 373 295 362 294 c 1,60,61
 350 246 350 246 341 217 c 128,-1,62
 332 188 332 188 317 164 c 128,-1,63
 302 140 302 140 277.5 113.5 c 128,-1,64
 253 87 253 87 211 45 c 1,65,66
 227 44 227 44 244 44 c 128,-1,67
 261 44 261 44 281 43 c 0,68,69
 296 43 296 43 306.5 43 c 128,-1,70
 317 43 317 43 343 42 c 1,71,-1
 269 4 l 1,72,73
 257 3 257 3 236 2.5 c 128,-1,74
 215 2 215 2 190.5 1.5 c 128,-1,75
 166 1 166 1 140.5 0.5 c 128,-1,76
 115 0 115 0 94 0 c 0,77,78
 93 0 93 0 91.5 0 c 128,-1,79
 90 0 90 0 84.5 0 c 128,-1,80
 79 0 79 0 68 0.5 c 128,-1,81
 57 1 57 1 38 1 c 1,82,-1
 77 45 l 1,0,1
368 317 m 1,83,84
 388 320 388 320 403.5 322.5 c 128,-1,85
 419 325 419 325 431 329 c 128,-1,86
 443 333 443 333 454 337.5 c 128,-1,87
 465 342 465 342 476 349 c 0,88,89
 508 369 508 369 526.5 402 c 128,-1,90
 545 435 545 435 545 474 c 0,91,92
 545 515 545 515 524.5 533 c 128,-1,93
 504 551 504 551 458 551 c 2,94,-1
 426 551 l 1,95,-1
 368 317 l 1,83,84
EndSplineSet
EndChar

StartChar: S
Encoding: 83 83 74
Width: 460
Flags: W
LayerCount: 2
Back
Fore
SplineSet
60 113 m 1,0,1
 66 80 66 80 73.5 61 c 128,-1,2
 81 42 81 42 97 25 c 0,3,4
 117 2 117 2 148 -11 c 128,-1,5
 179 -24 179 -24 211 -24 c 0,6,7
 244 -24 244 -24 273 -12 c 128,-1,8
 302 0 302 0 324.5 20 c 128,-1,9
 347 40 347 40 360 66.5 c 128,-1,10
 373 93 373 93 373 123 c 0,11,12
 373 140 373 140 369 154.5 c 128,-1,13
 365 169 365 169 355.5 183.5 c 128,-1,14
 346 198 346 198 329 214 c 128,-1,15
 312 230 312 230 287 250 c 0,16,17
 265 267 265 267 250 282 c 128,-1,18
 235 297 235 297 225.5 311.5 c 128,-1,19
 216 326 216 326 212 341 c 128,-1,20
 208 356 208 356 208 373 c 0,21,22
 208 410 208 410 228 448 c 128,-1,23
 248 486 248 486 279.5 517 c 128,-1,24
 311 548 311 548 350 567 c 128,-1,25
 389 586 389 586 428 586 c 0,26,27
 508 586 508 586 517 504 c 1,28,-1
 451 457 l 1,29,30
 443 505 443 505 428.5 522 c 128,-1,31
 414 539 414 539 383 539 c 0,32,33
 361 539 361 539 341.5 529.5 c 128,-1,34
 322 520 322 520 307 503.5 c 128,-1,35
 292 487 292 487 283.5 465 c 128,-1,36
 275 443 275 443 275 418 c 0,37,38
 275 402 275 402 278 389.5 c 128,-1,39
 281 377 281 377 290 364.5 c 128,-1,40
 299 352 299 352 316 337 c 128,-1,41
 333 322 333 322 360 301 c 0,42,43
 388 279 388 279 405.5 263.5 c 128,-1,44
 423 248 423 248 433 234.5 c 128,-1,45
 443 221 443 221 446.5 208.5 c 128,-1,46
 450 196 450 196 450 181 c 0,47,48
 450 133 450 133 424.5 87.5 c 128,-1,49
 399 42 399 42 356.5 7 c 128,-1,50
 314 -28 314 -28 259.5 -49.5 c 128,-1,51
 205 -71 205 -71 147 -71 c 0,52,53
 97 -71 97 -71 61.5 -54 c 128,-1,54
 26 -37 26 -37 0 -2 c 1,55,-1
 44 102 l 1,56,-1
 60 113 l 1,0,1
EndSplineSet
EndChar

StartChar: T
Encoding: 84 84 75
Width: 500
Flags: W
LayerCount: 2
Back
Fore
SplineSet
195 39 m 1,0,1
 227 40 227 40 247.5 47.5 c 128,-1,2
 268 55 268 55 283 73.5 c 128,-1,3
 298 92 298 92 309.5 126 c 128,-1,4
 321 160 321 160 335 215 c 2,5,-1
 416 541 l 1,6,7
 393 543 393 543 379 544 c 128,-1,8
 365 545 365 545 356 545.5 c 128,-1,9
 347 546 347 546 340.5 546 c 128,-1,10
 334 546 334 546 326 546 c 0,11,12
 281 546 281 546 253.5 542 c 128,-1,13
 226 538 226 538 206 527 c 0,14,15
 135 491 135 491 135 407 c 0,16,17
 135 396 135 396 136 387.5 c 128,-1,18
 137 379 137 379 139.5 369 c 128,-1,19
 142 359 142 359 146.5 346 c 128,-1,20
 151 333 151 333 158 315 c 1,21,-1
 83 266 l 1,22,23
 69 292 69 292 63.5 314 c 128,-1,24
 58 336 58 336 58 361 c 0,25,26
 58 409 58 409 81 449.5 c 128,-1,27
 104 490 104 490 144.5 520 c 128,-1,28
 185 550 185 550 240 567 c 128,-1,29
 295 584 295 584 360 584 c 0,30,31
 375 584 375 584 387.5 584 c 128,-1,32
 400 584 400 584 419.5 583 c 128,-1,33
 439 582 439 582 471.5 580.5 c 128,-1,34
 504 579 504 579 560 576 c 0,35,36
 582 575 582 575 598.5 574.5 c 128,-1,37
 615 574 615 574 623 574 c 0,38,39
 636 574 636 574 645 576 c 128,-1,40
 654 578 654 578 662 585.5 c 128,-1,41
 670 593 670 593 680 608 c 128,-1,42
 690 623 690 623 705 649 c 1,43,-1
 718 634 l 1,44,45
 709 597 709 597 702.5 575.5 c 128,-1,46
 696 554 696 554 688 543 c 128,-1,47
 680 532 680 532 669 529 c 128,-1,48
 658 526 658 526 641 526 c 0,49,50
 633 526 633 526 625 526.5 c 128,-1,51
 617 527 617 527 602 528 c 128,-1,52
 587 529 587 529 560.5 531 c 128,-1,53
 534 533 534 533 488 537 c 1,54,-1
 410 224 l 2,55,56
 404 195 404 195 395 173 c 128,-1,57
 386 151 386 151 372.5 131 c 128,-1,58
 359 111 359 111 339.5 91 c 128,-1,59
 320 71 320 71 291 47 c 1,60,61
 308 46 308 46 320 45.5 c 128,-1,62
 332 45 332 45 340 45 c 0,63,64
 379 45 379 45 422.5 47.5 c 128,-1,65
 466 50 466 50 499 55 c 1,66,-1
 497 47 l 1,67,68
 477 36 477 36 461 28 c 128,-1,69
 445 20 445 20 427.5 15 c 128,-1,70
 410 10 410 10 388.5 7 c 128,-1,71
 367 4 367 4 336.5 2.5 c 128,-1,72
 306 1 306 1 263 0.5 c 128,-1,73
 220 0 220 0 160 0 c 1,74,-1
 195 39 l 1,0,1
EndSplineSet
EndChar

StartChar: U
Encoding: 85 85 76
Width: 740
Flags: W
LayerCount: 2
Back
Fore
SplineSet
649 558 m 1,0,1
 675 561 675 561 691 562.5 c 128,-1,2
 707 564 707 564 720 565.5 c 128,-1,3
 733 567 733 567 745.5 569 c 128,-1,4
 758 571 758 571 778 574 c 1,5,6
 751 479 751 479 729 393.5 c 128,-1,7
 707 308 707 308 691.5 240.5 c 128,-1,8
 676 173 676 173 667 127 c 128,-1,9
 658 81 658 81 658 64 c 0,10,11
 658 31 658 31 693 31 c 0,12,13
 713 31 713 31 728 32 c 128,-1,14
 743 33 743 33 767 35 c 1,15,-1
 746 10 l 1,16,17
 638 -14 638 -14 593 -14 c 0,18,19
 566 -14 566 -14 566 8 c 0,20,21
 566 15 566 15 567.5 24.5 c 128,-1,22
 569 34 569 34 574 58 c 1,23,24
 528 38 528 38 492.5 24.5 c 128,-1,25
 457 11 457 11 428.5 3 c 128,-1,26
 400 -5 400 -5 377 -9 c 128,-1,27
 354 -13 354 -13 333 -13 c 0,28,29
 284 -13 284 -13 254 20.5 c 128,-1,30
 224 54 224 54 224 108 c 0,31,32
 224 143 224 143 233.5 182.5 c 128,-1,33
 243 222 243 222 262.5 269 c 128,-1,34
 282 316 282 316 313 372 c 128,-1,35
 344 428 344 428 387 496 c 1,36,37
 354 507 354 507 334.5 511 c 128,-1,38
 315 515 315 515 293 515 c 0,39,40
 243 515 243 515 210.5 488 c 128,-1,41
 178 461 178 461 178 419 c 0,42,43
 178 399 178 399 185 377.5 c 128,-1,44
 192 356 192 356 212 320 c 1,45,-1
 145 266 l 1,46,47
 128 299 128 299 122 320.5 c 128,-1,48
 116 342 116 342 116 363 c 0,49,50
 116 406 116 406 145.5 453.5 c 128,-1,51
 175 501 175 501 224 537 c 0,52,53
 272 572 272 572 340 572 c 0,54,55
 356 572 356 572 369.5 570.5 c 128,-1,56
 383 569 383 569 411 564 c 2,57,-1
 432 561 l 1,58,-1
 442 565 l 2,59,60
 455 571 455 571 459 573 c 128,-1,61
 463 575 463 575 473 578 c 1,62,-1
 479 570 l 1,63,64
 441 518 441 518 409 461.5 c 128,-1,65
 377 405 377 405 354 349 c 128,-1,66
 331 293 331 293 318.5 241 c 128,-1,67
 306 189 306 189 306 147 c 0,68,69
 306 95 306 95 331.5 64 c 128,-1,70
 357 33 357 33 399 33 c 0,71,72
 418 33 418 33 436.5 36 c 128,-1,73
 455 39 455 39 475.5 45.5 c 128,-1,74
 496 52 496 52 520.5 63 c 128,-1,75
 545 74 545 74 576 91 c 1,76,77
 582 113 582 113 585.5 126 c 128,-1,78
 589 139 589 139 591.5 149.5 c 128,-1,79
 594 160 594 160 596.5 170 c 128,-1,80
 599 180 599 180 603 197 c 0,81,82
 622 276 622 276 657 410 c 0,83,84
 662 429 662 429 667 450 c 128,-1,85
 672 471 672 471 677 494 c 0,86,87
 679 504 679 504 681.5 513.5 c 128,-1,88
 684 523 684 523 686 532 c 1,89,-1
 667 533 l 1,90,-1
 640 533 l 1,91,-1
 622 533 l 1,92,-1
 649 558 l 1,0,1
EndSplineSet
EndChar

StartChar: V
Encoding: 86 86 77
Width: 640
Flags: W
LayerCount: 2
Back
Fore
SplineSet
357 80 m 1,0,1
 425 146 425 146 468.5 189 c 128,-1,2
 512 232 512 232 541.5 263 c 128,-1,3
 571 294 571 294 591 317.5 c 128,-1,4
 611 341 611 341 631 367 c 0,5,6
 675 424 675 424 698.5 476.5 c 128,-1,7
 722 529 722 529 722 569 c 0,8,9
 722 595 722 595 714.5 611.5 c 128,-1,10
 707 628 707 628 687 645 c 1,11,12
 704 660 704 660 716 668 c 128,-1,13
 728 676 728 676 748 685 c 1,14,15
 766 683 766 683 775.5 680 c 128,-1,16
 785 677 785 677 800 668 c 1,17,18
 805 654 805 654 807 644.5 c 128,-1,19
 809 635 809 635 809 621 c 0,20,21
 809 539 809 539 725 424 c 0,22,23
 709 403 709 403 685.5 375.5 c 128,-1,24
 662 348 662 348 628.5 311 c 128,-1,25
 595 274 595 274 550 227 c 128,-1,26
 505 180 505 180 447 120 c 0,27,28
 423 94 423 94 408 78.5 c 128,-1,29
 393 63 393 63 382 51.5 c 128,-1,30
 371 40 371 40 361.5 29.5 c 128,-1,31
 352 19 352 19 339 4 c 1,32,33
 323 0 323 0 313.5 -2 c 128,-1,34
 304 -4 304 -4 296.5 -5.5 c 128,-1,35
 289 -7 289 -7 282 -8.5 c 128,-1,36
 275 -10 275 -10 265 -12 c 1,37,38
 271 16 271 16 281 77 c 128,-1,39
 291 138 291 138 302 214.5 c 128,-1,40
 313 291 313 291 325 375 c 128,-1,41
 337 459 337 459 346 534 c 1,42,43
 320 537 320 537 303 537 c 0,44,45
 276 537 276 537 254 527 c 128,-1,46
 232 517 232 517 215.5 499.5 c 128,-1,47
 199 482 199 482 190 458 c 128,-1,48
 181 434 181 434 181 405 c 0,49,50
 181 384 181 384 184.5 367 c 128,-1,51
 188 350 188 350 198 325 c 1,52,-1
 122 283 l 1,53,54
 111 307 111 307 107.5 323.5 c 128,-1,55
 104 340 104 340 104 360 c 0,56,57
 104 405 104 405 126.5 447 c 128,-1,58
 149 489 149 489 191 521 c 0,59,60
 228 549 228 549 268 561 c 128,-1,61
 308 573 308 573 366 573 c 0,62,63
 391 573 391 573 412 572 c 128,-1,64
 433 571 433 571 469 566 c 1,65,66
 458 557 458 557 450 552 c 128,-1,67
 442 547 442 547 424 539 c 1,68,-1
 357 80 l 1,0,1
EndSplineSet
EndChar

StartChar: W
Encoding: 87 87 78
Width: 880
Flags: W
LayerCount: 2
Back
Fore
SplineSet
263 -17 m 1,0,1
 283 100 283 100 297.5 188 c 128,-1,2
 312 276 312 276 322.5 341 c 128,-1,3
 333 406 333 406 340 450.5 c 128,-1,4
 347 495 347 495 351 527 c 1,5,6
 322 527 322 527 302 526 c 128,-1,7
 282 525 282 525 268 523.5 c 128,-1,8
 254 522 254 522 244 520 c 128,-1,9
 234 518 234 518 225 514 c 0,10,11
 171 492 171 492 171 431 c 0,12,13
 171 405 171 405 178.5 382 c 128,-1,14
 186 359 186 359 204 332 c 1,15,-1
 129 285 l 1,16,17
 116 307 116 307 110 328 c 128,-1,18
 104 349 104 349 104 375 c 0,19,20
 104 405 104 405 114.5 432.5 c 128,-1,21
 125 460 125 460 144.5 483.5 c 128,-1,22
 164 507 164 507 190.5 524.5 c 128,-1,23
 217 542 217 542 250 552 c 0,24,25
 263 556 263 556 275.5 558.5 c 128,-1,26
 288 561 288 561 311.5 562 c 128,-1,27
 335 563 335 563 376 563.5 c 128,-1,28
 417 564 417 564 488 565 c 1,29,30
 474 551 474 551 463 544.5 c 128,-1,31
 452 538 452 538 436 533 c 1,32,33
 430 504 430 504 423 467 c 128,-1,34
 416 430 416 430 408.5 389.5 c 128,-1,35
 401 349 401 349 394 307.5 c 128,-1,36
 387 266 387 266 380.5 229 c 128,-1,37
 374 192 374 192 369 161.5 c 128,-1,38
 364 131 364 131 362 112 c 1,39,40
 380 136 380 136 406 173 c 128,-1,41
 432 210 432 210 461.5 252.5 c 128,-1,42
 491 295 491 295 521 339.5 c 128,-1,43
 551 384 551 384 577.5 424.5 c 128,-1,44
 604 465 604 465 625 498 c 128,-1,45
 646 531 646 531 657 550 c 1,46,-1
 715 573 l 1,47,-1
 710 495 l 2,48,49
 708 448 708 448 705.5 404.5 c 128,-1,50
 703 361 703 361 701 319 c 2,51,-1
 695 178 l 2,52,53
 694 156 694 156 693 134.5 c 128,-1,54
 692 113 692 113 690 90 c 1,55,56
 737 145 737 145 772 187.5 c 128,-1,57
 807 230 807 230 832.5 265.5 c 128,-1,58
 858 301 858 301 876.5 330.5 c 128,-1,59
 895 360 895 360 910 390 c 0,60,61
 953 476 953 476 953 541 c 0,62,63
 953 572 953 572 944.5 593.5 c 128,-1,64
 936 615 936 615 916 636 c 1,65,66
 934 652 934 652 946.5 659.5 c 128,-1,67
 959 667 959 667 980 677 c 1,68,69
 989 674 989 674 994 672.5 c 128,-1,70
 999 671 999 671 1003 669 c 128,-1,71
 1007 667 1007 667 1011 665.5 c 128,-1,72
 1015 664 1015 664 1020 661 c 0,73,74
 1028 644 1028 644 1031.5 630 c 128,-1,75
 1035 616 1035 616 1035 596 c 0,76,77
 1035 559 1035 559 1022 518 c 128,-1,78
 1009 477 1009 477 979 424.5 c 128,-1,79
 949 372 949 372 900 305.5 c 128,-1,80
 851 239 851 239 780 152 c 0,81,82
 756 122 756 122 740.5 102.5 c 128,-1,83
 725 83 725 83 713.5 67.5 c 128,-1,84
 702 52 702 52 692.5 37.5 c 128,-1,85
 683 23 683 23 670 4 c 1,86,-1
 606 -17 l 1,87,88
 608 5 608 5 610.5 40 c 128,-1,89
 613 75 613 75 615 116.5 c 128,-1,90
 617 158 617 158 619.5 203 c 128,-1,91
 622 248 622 248 623.5 292 c 128,-1,92
 625 336 625 336 626.5 375.5 c 128,-1,93
 628 415 628 415 628 444 c 1,94,95
 600 401 600 401 577 366.5 c 128,-1,96
 554 332 554 332 533 300.5 c 128,-1,97
 512 269 512 269 491 238.5 c 128,-1,98
 470 208 470 208 446.5 173.5 c 128,-1,99
 423 139 423 139 394 97.5 c 128,-1,100
 365 56 365 56 328 3 c 1,101,-1
 263 -17 l 1,0,1
EndSplineSet
EndChar

StartChar: X
Encoding: 88 88 79
Width: 560
Flags: W
LayerCount: 2
Back
Fore
SplineSet
49 75 m 1,0,1
 60 73 60 73 65.5 73 c 128,-1,2
 71 73 71 73 79 73 c 0,3,4
 98 73 98 73 112.5 74.5 c 128,-1,5
 127 76 127 76 139 80.5 c 128,-1,6
 151 85 151 85 161 92.5 c 128,-1,7
 171 100 171 100 182 111 c 0,8,9
 198 127 198 127 238 176.5 c 128,-1,10
 278 226 278 226 333 298 c 1,11,12
 325 339 325 339 317 374 c 128,-1,13
 309 409 309 409 298 452 c 0,14,15
 290 481 290 481 286 491.5 c 128,-1,16
 282 502 282 502 275 509 c 0,17,18
 263 524 263 524 236 524 c 0,19,20
 231 524 231 524 228 524 c 128,-1,21
 225 524 225 524 220 523 c 128,-1,22
 215 522 215 522 207 520.5 c 128,-1,23
 199 519 199 519 184 516 c 2,24,-1
 160 511 l 1,25,-1
 183 540 l 1,26,27
 255 560 255 560 291 568.5 c 128,-1,28
 327 577 327 577 339 577 c 0,29,30
 354 577 354 577 358 556 c 2,31,-1
 394 374 l 1,32,33
 410 394 410 394 423 409.5 c 128,-1,34
 436 425 436 425 447 439.5 c 128,-1,35
 458 454 458 454 469.5 468 c 128,-1,36
 481 482 481 482 495 500 c 0,37,38
 530 545 530 545 556.5 562.5 c 128,-1,39
 583 580 583 580 615 580 c 0,40,41
 632 580 632 580 644 575.5 c 128,-1,42
 656 571 656 571 671 559 c 1,43,-1
 626 488 l 1,44,45
 612 496 612 496 602.5 499.5 c 128,-1,46
 593 503 593 503 582 503 c 0,47,48
 558 503 558 503 535 486.5 c 128,-1,49
 512 470 512 470 478 429 c 0,50,51
 464 412 464 412 454.5 400 c 128,-1,52
 445 388 445 388 436.5 378 c 128,-1,53
 428 368 428 368 419.5 358 c 128,-1,54
 411 348 411 348 400 335 c 1,55,-1
 409 290 l 2,56,57
 419 241 419 241 426.5 207.5 c 128,-1,58
 434 174 434 174 440 150 c 128,-1,59
 446 126 446 126 451.5 109.5 c 128,-1,60
 457 93 457 93 463 79 c 0,61,62
 482 36 482 36 537 36 c 0,63,64
 555 36 555 36 582 39 c 2,65,-1
 606 41 l 1,66,-1
 589 18 l 1,67,68
 559 12 559 12 539.5 8.5 c 128,-1,69
 520 5 520 5 509 3 c 2,70,-1
 471 -4 l 1,71,-1
 452 -7 l 2,72,73
 431 -13 431 -13 418 -13 c 0,74,75
 406 -13 406 -13 400 -0.5 c 128,-1,76
 394 12 394 12 386 52 c 2,77,-1
 344 258 l 1,78,79
 314 219 314 219 296.5 197 c 128,-1,80
 279 175 279 175 269 162 c 128,-1,81
 259 149 259 149 253.5 142.5 c 128,-1,82
 248 136 248 136 242 128 c 0,83,84
 221 100 221 100 204.5 80.5 c 128,-1,85
 188 61 188 61 174.5 47.5 c 128,-1,86
 161 34 161 34 150 26 c 128,-1,87
 139 18 139 18 127 12 c 0,88,89
 111 4 111 4 89 0 c 128,-1,90
 67 -4 67 -4 45 -4 c 0,91,92
 36 -4 36 -4 26.5 -3 c 128,-1,93
 17 -2 17 -2 0 0 c 1,94,-1
 49 75 l 1,0,1
EndSplineSet
EndChar

StartChar: Y
Encoding: 89 89 80
Width: 560
Flags: W
LayerCount: 2
Back
Fore
SplineSet
66 -76 m 1,0,1
 97 -78 97 -78 111.5 -79 c 128,-1,2
 126 -80 126 -80 139 -80 c 0,3,4
 204 -80 204 -80 243 -63.5 c 128,-1,5
 282 -47 282 -47 310 -7 c 0,6,7
 330 22 330 22 349 59.5 c 128,-1,8
 368 97 368 97 381 133 c 0,9,10
 390 160 390 160 394 189 c 128,-1,11
 398 218 398 218 398 255 c 0,12,13
 398 316 398 316 388 365 c 128,-1,14
 378 414 378 414 359.5 448 c 128,-1,15
 341 482 341 482 314 500.5 c 128,-1,16
 287 519 287 519 254 519 c 0,17,18
 231 519 231 519 211 509.5 c 128,-1,19
 191 500 191 500 176.5 483 c 128,-1,20
 162 466 162 466 153.5 443 c 128,-1,21
 145 420 145 420 145 393 c 0,22,23
 145 382 145 382 146 371.5 c 128,-1,24
 147 361 147 361 149 349.5 c 128,-1,25
 151 338 151 338 155 324.5 c 128,-1,26
 159 311 159 311 165 293 c 1,27,-1
 89 245 l 1,28,29
 68 291 68 291 68 336 c 0,30,31
 68 379 68 379 91 421.5 c 128,-1,32
 114 464 114 464 150.5 498.5 c 128,-1,33
 187 533 187 533 232.5 554.5 c 128,-1,34
 278 576 278 576 323 576 c 0,35,36
 387 576 387 576 424 519 c 128,-1,37
 461 462 461 462 461 363 c 0,38,39
 461 338 461 338 458.5 315.5 c 128,-1,40
 456 293 456 293 450 253 c 1,41,42
 499 356 499 356 537 424.5 c 128,-1,43
 575 493 575 493 606 534 c 128,-1,44
 637 575 637 575 665 591.5 c 128,-1,45
 693 608 693 608 723 608 c 0,46,47
 736 608 736 608 744 605 c 128,-1,48
 752 602 752 602 763 592 c 1,49,-1
 735 519 l 1,50,51
 718 526 718 526 707.5 528.5 c 128,-1,52
 697 531 697 531 685 531 c 0,53,54
 661 531 661 531 641.5 517 c 128,-1,55
 622 503 622 503 599 469 c 0,56,57
 589 454 589 454 580 439.5 c 128,-1,58
 571 425 571 425 556.5 398 c 128,-1,59
 542 371 542 371 519 325 c 128,-1,60
 496 279 496 279 458 202 c 0,61,62
 418 121 418 121 387 63 c 128,-1,63
 356 5 356 5 329 -34.5 c 128,-1,64
 302 -74 302 -74 277 -97 c 128,-1,65
 252 -120 252 -120 223.5 -132.5 c 128,-1,66
 195 -145 195 -145 159.5 -148.5 c 128,-1,67
 124 -152 124 -152 77 -152 c 0,68,69
 63 -152 63 -152 54.5 -152 c 128,-1,70
 46 -152 46 -152 31 -150 c 1,71,-1
 66 -76 l 1,0,1
EndSplineSet
EndChar

StartChar: Z
Encoding: 90 90 81
Width: 620
Flags: W
LayerCount: 2
Back
Fore
SplineSet
656 272 m 1,0,1
 667 245 667 245 671 226.5 c 128,-1,2
 675 208 675 208 675 186 c 0,3,4
 675 173 675 173 673.5 163.5 c 128,-1,5
 672 154 672 154 668 144.5 c 128,-1,6
 664 135 664 135 657 124.5 c 128,-1,7
 650 114 650 114 639 101 c 2,8,-1
 616 72 l 2,9,10
 605 58 605 58 597.5 48.5 c 128,-1,11
 590 39 590 39 585 33 c 128,-1,12
 580 27 580 27 576 22.5 c 128,-1,13
 572 18 572 18 567 14 c 0,14,15
 538 -13 538 -13 498 -13 c 0,16,17
 478 -13 478 -13 413 -7.5 c 128,-1,18
 348 -2 348 -2 254 8 c 0,19,20
 225 11 225 11 200 12.5 c 128,-1,21
 175 14 175 14 155 14 c 0,22,23
 126 14 126 14 106 7 c 128,-1,24
 86 0 86 0 62 -18 c 1,25,-1
 62 19 l 1,26,27
 80 35 80 35 117.5 71 c 128,-1,28
 155 107 155 107 213 164 c 2,29,-1
 552 503 l 1,30,31
 534 500 534 500 520 498 c 128,-1,32
 506 496 506 496 493.5 495 c 128,-1,33
 481 494 481 494 467.5 493.5 c 128,-1,34
 454 493 454 493 437 493 c 0,35,36
 423 493 423 493 411 493 c 128,-1,37
 399 493 399 493 387.5 494 c 128,-1,38
 376 495 376 495 363 496.5 c 128,-1,39
 350 498 350 498 334 500 c 0,40,41
 326 501 326 501 319 501.5 c 128,-1,42
 312 502 312 502 307 502 c 0,43,44
 295 502 295 502 287 499 c 128,-1,45
 279 496 279 496 268.5 483 c 128,-1,46
 258 470 258 470 242.5 444 c 128,-1,47
 227 418 227 418 201 372 c 1,48,-1
 184 397 l 1,49,50
 214 465 214 465 231 502 c 128,-1,51
 248 539 248 539 258.5 556 c 128,-1,52
 269 573 269 573 275.5 576 c 128,-1,53
 282 579 282 579 293 579 c 0,54,55
 297 579 297 579 299.5 579 c 128,-1,56
 302 579 302 579 308 578.5 c 128,-1,57
 314 578 314 578 325 576.5 c 128,-1,58
 336 575 336 575 356 573 c 0,59,60
 367 572 367 572 397 569.5 c 128,-1,61
 427 567 427 567 475 562 c 0,62,63
 504 559 504 559 524.5 557.5 c 128,-1,64
 545 556 545 556 556 556 c 0,65,66
 583 556 583 556 606 565 c 128,-1,67
 629 574 629 574 655 597 c 1,68,-1
 655 568 l 1,69,-1
 172 76 l 1,70,-1
 204 81 l 1,71,-1
 223 81 l 1,72,-1
 240 81 l 2,73,74
 251 81 251 81 261.5 80.5 c 128,-1,75
 272 80 272 80 286.5 79.5 c 128,-1,76
 301 79 301 79 321.5 77 c 128,-1,77
 342 75 342 75 374 72 c 0,78,79
 422 67 422 67 454.5 65.5 c 128,-1,80
 487 64 487 64 517 64 c 0,81,82
 613 64 613 64 613 143 c 0,83,84
 613 160 613 160 609 172.5 c 128,-1,85
 605 185 605 185 593 206 c 2,86,-1
 581 227 l 1,87,-1
 656 272 l 1,0,1
EndSplineSet
EndChar

